<svg width="30" height="30" viewBox="0 0 34 34" fill="none" xmlns="http://www.w3.org/2000/svg">
<path d="M9.91602 9.91699H8.49935C7.7479 9.91699 7.02723 10.2155 6.49588 10.7469C5.96453 11.2782 5.66602 11.9989 5.66602 12.7503V25.5003C5.66602 26.2518 5.96453 26.9724 6.49588 27.5038C7.02723 28.0351 7.7479 28.3337 8.49935 28.3337H21.2493C22.0008 28.3337 22.7215 28.0351 23.2528 27.5038C23.7842 26.9724 24.0827 26.2518 24.0827 25.5003V24.0837" stroke="url(#paint0_linear_513_697)" stroke-width="1.5" stroke-linecap="round" stroke-linejoin="round"/>
<path d="M22.6667 7.08348L26.9167 11.3335M28.8787 9.3289C29.4367 8.77095 29.7502 8.01421 29.7502 7.22515C29.7502 6.43609 29.4367 5.67935 28.8787 5.1214C28.3208 4.56345 27.5641 4.25 26.775 4.25C25.9859 4.25 25.2292 4.56345 24.6713 5.1214L12.75 17.0002V21.2502H17L28.8787 9.3289Z" stroke="url(#paint1_linear_513_697)" stroke-width="1.5" stroke-linecap="round" stroke-linejoin="round"/>
<defs>
<linearGradient id="paint0_linear_513_697" x1="5.66602" y1="9.91699" x2="24.0827" y2="28.3337" gradientUnits="userSpaceOnUse">
<stop stop-color="#73A0E7"/>
<stop offset="1" stop-color="#314CB6"/>
</linearGradient>
<linearGradient id="paint1_linear_513_697" x1="12.75" y1="4.25" x2="29.7502" y2="21.2502" gradientUnits="userSpaceOnUse">
<stop stop-color="#73A0E7"/>
<stop offset="1" stop-color="#314CB6"/>
</linearGradient>
</defs>
</svg>
