<svg width="22" height="27" viewBox="0 0 28 34" fill="none" xmlns="http://www.w3.org/2000/svg">
<g clip-path="url(#clip0_516_1500)">
<path d="M23.5678 20.0657C25.6078 20.0657 27.2602 21.7181 27.2602 23.7581V25.1637H27.25C27.1807 26.7549 26.7441 28.748 24.9591 30.3759C23.0089 32.1568 19.6408 33.3196 14.0002 33.3196C8.35759 33.3196 4.99159 32.1568 3.04135 30.3759C1.25635 28.748 0.819795 26.7528 0.750435 25.1637H0.740234V23.7561C0.740234 21.7181 2.39263 20.0657 4.43263 20.0657H23.5678ZM6.86023 2.7196C6.04867 2.7196 5.27035 3.04199 4.69649 3.61585C4.12263 4.18971 3.80023 4.96804 3.80023 5.7796V13.9396C3.80023 14.7512 4.12263 15.5295 4.69649 16.1033C5.27035 16.6772 6.04867 16.9996 6.86023 16.9996H21.1402C21.9518 16.9996 22.7301 16.6772 23.304 16.1033C23.8778 15.5295 24.2002 14.7512 24.2002 13.9396V5.7796C24.2002 4.96804 23.8778 4.18971 23.304 3.61585C22.7301 3.04199 21.9518 2.7196 21.1402 2.7196H15.0202V1.6996C15.026 1.56411 15.0036 1.4289 14.9544 1.30253C14.9051 1.17617 14.8302 1.0614 14.7343 0.965512C14.6384 0.86962 14.5237 0.794692 14.3973 0.745475C14.2709 0.696258 14.1357 0.673825 14.0002 0.679599C13.4372 0.679599 12.9802 1.1488 12.9802 1.6996V2.7196H6.86023ZM7.88023 9.8596C7.88023 9.31856 8.09516 8.79967 8.47774 8.4171C8.86031 8.03453 9.37919 7.8196 9.92023 7.8196C10.4613 7.8196 10.9802 8.03453 11.3627 8.4171C11.7453 8.79967 11.9602 9.31856 11.9602 9.8596C11.9602 10.4006 11.7453 10.9195 11.3627 11.3021C10.9802 11.6847 10.4613 11.8996 9.92023 11.8996C9.37919 11.8996 8.86031 11.6847 8.47774 11.3021C8.09516 10.9195 7.88023 10.4006 7.88023 9.8596ZM16.0402 9.8596C16.0402 9.31856 16.2552 8.79967 16.6377 8.4171C17.0203 8.03453 17.5392 7.8196 18.0802 7.8196C18.6213 7.8196 19.1402 8.03453 19.5227 8.4171C19.9053 8.79967 20.1202 9.31856 20.1202 9.8596C20.1202 10.4006 19.9053 10.9195 19.5227 11.3021C19.1402 11.6847 18.6213 11.8996 18.0802 11.8996C17.5392 11.8996 17.0203 11.6847 16.6377 11.3021C16.2552 10.9195 16.0402 10.4006 16.0402 9.8596Z" fill="white"/>
</g>
<defs>
<clipPath id="clip0_516_1500">
<rect width="27.2" height="34" fill="white" transform="translate(0.400391)"/>
</clipPath>
</defs>
</svg>
