<svg width="97" height="192" viewBox="0 0 97 192" fill="none" xmlns="http://www.w3.org/2000/svg">
<path opacity="0.3" d="M66.3532 168.374V175.531L75.1107 180.572H87.5021L96.2502 175.531V168.374L87.5021 163.317H75.1107L66.3532 168.374Z" fill="black"/>
<path d="M82.494 67.6992L81.7081 66.2289L80.0717 65.5944L78.561 63.2295L78.7554 62.7175H79.5117L80.1702 63.5464L81.1462 63.6443L81.9265 62.1317L82.0483 59.8147L81.7081 57.8394L82.78 57.2542L85.0268 58.6443L86.7308 61.4978L86.3886 64.7888L86.2061 66.4486L86.4132 68.0325L83.3892 68.6922L82.494 67.6992Z" fill="white"/>
<path d="M82.5848 166.218L87.1201 166.316L91.3884 168.096L93.4856 169.73V170.168L90.7053 170.559L85.3158 168.633L81.2186 168.292L80.3657 167.158V166.718L82.5848 166.218Z" fill="#3E6669"/>
<path d="M74.8044 174.072L77.9748 175.973L79.5114 178.217V178.656L77.9502 179.241L75.7804 178.851L73.4149 176.973L72.0487 173.144V172.706L74.8044 174.072Z" fill="#3E6669"/>
<path d="M86.5115 163.317L88.2426 164.877L92.6807 166.657L93.4856 167.707V169.73L90.7053 170.121L85.3158 168.193L81.2186 167.853L80.3657 166.718L80.4528 163.623L86.5115 163.317Z" fill="white"/>
<path d="M77.3656 171.461L78.1219 173.827L79.5114 176.51V178.217L77.9502 178.802L75.7804 178.413L73.4149 176.534L72.0487 172.706L72.1712 170.51L77.3656 171.461Z" fill="white"/>
<path d="M75.5609 92.2755L76.0615 93.2016L76.713 94.7679V97.2862L80.0236 99.2622H83.2067L85.4927 96.3171L84.41 91.4699L79.9504 89.6953H76.6032L74.9271 91.3979L75.5609 92.2755Z" fill="#C7A495"/>
<path d="M79.3955 97.7249L82.3362 98.2508L84.0489 97.3972L84.5053 94.7678L85.8399 94.9452L88.7029 103.428L82.7313 105.92L79.3955 97.7249Z" fill="white"/>
<path d="M93.2793 122.891L91.218 137.708L87.8525 149.415L87.0482 163.334L84.8532 165.071H81.999L79.9681 163.169L79.1461 146.78L81.999 128.784L93.2793 122.891Z" fill="#377691"/>
<path d="M73.6845 124.075L73.2199 127.1L73.6845 130.467V148.708L71.7079 153.78V170.559L73.5583 172.706H76.8291L77.9995 170.9L79.9679 152.805L82.4938 147.05L85.1699 133.979L89.8644 129.491L93.1188 123.296L91.3158 119.931L73.6845 124.075Z" fill="#428AA8"/>
<path d="M82.4938 105.006L88.7028 101.689L90.7299 112.224L91.8334 123.295L85.0203 126.515L82.4938 105.006Z" fill="#428AA8"/>
<path d="M83.0134 69.2055L82.4938 71.0647L85.8044 80.5204L83.5557 88.509L83.9017 91.9339L89.0228 96.0311L89.7539 95.0544L92.8271 80.2761L92.2911 76.2888L88.7028 68.5855L86.8177 67.5394L83.0134 69.2055Z" fill="#377691"/>
<path d="M89.8643 122.891L90.0834 125.235L92.9003 123.844L93.8024 121.576L93.6345 118.638L89.8643 122.891Z" fill="#2D5A78"/>
<path d="M83.6019 92.9699L84.5053 94.7679L84.9794 98.5804L88.7301 109.005L89.5596 123.296L92.5836 121.832L93.8026 118.126L93.0217 102.323L89.754 95.0545L84.487 90.9093L83.6019 92.9699Z" fill="#377691"/>
<path d="M83.9018 91.7805L84.8778 94.0305L85.2187 96.5179L84.9794 98.5804L83.9504 95.201L83.6019 92.9699V92.5431L83.9018 91.7805Z" fill="#2D5A78"/>
<path d="M72.9257 122.891V124.576L74.5728 126.515L79.5115 128.015L84.7065 127.539L87.0108 126.698V124.801L72.9257 122.891Z" fill="#2D5A78"/>
<path d="M76.3005 94.7678L76.0613 93.2015L78.4135 95.6403L82.0234 97.884L82.7311 100.103L80.9262 99.9326L76.5366 96.9326L76.3005 94.7678Z" fill="#2D5A78"/>
<path d="M68.6832 105.371L71.7748 121.101L74.1712 124.832L79.5115 126.515L84.4129 125.71L87.3397 124.686L86.5354 109.761L82.7311 100.103L77.6093 96.9086L76.3006 94.7678L74.317 97.6832L68.6832 105.371Z" fill="#377691"/>
<path d="M91.572 103.274L88.298 105.165L87.661 103.579L90.935 101.689L91.572 103.274Z" fill="white"/>
<path d="M75.6339 99.5172L74.9875 96.6971L74.531 97.3689L74.2192 98.6397L75.6339 99.5172Z" fill="#2D5A78"/>
<path d="M80.8038 81.1543L83.0235 83.6233L83.1144 84.9952L84.1756 86.5867L85.2185 91.7622L83.6018 92.9699L78.634 93.0791L76.6031 91.5614L75.473 91.4086L74.884 91.3966L73.1833 89.7502L72.1953 85.3607L75.5058 81.7395L80.627 80.2761L80.8038 81.1543Z" fill="#F0C6B4"/>
<path d="M80.4144 80.6177V82.3494L78.3898 83.8367L78.5855 82.7149L76.2194 83.2269L75.6821 85.5924L74.9271 86.5678L75.3166 87.8115L74.9271 88.2262L74.1468 87.9099L73.5489 88.4882L73.6228 89.677L74.5919 90.8114L75.4732 91.4087L75.5609 92.2754L73.6834 91.2262L71.3173 87.2269L71.775 83.1543L74.4391 80.3248L74.6102 80.8127L76.8532 79.4226L76.5527 79.886L79.3658 79.6423L80.804 80.1783V81.1543L80.4144 80.6177Z" fill="black"/>
<path d="M82.2261 90.3822L82.1844 89.1038L83.098 88.5236L83.5557 88.5091L83.6371 88.1947L84.3505 87.6587L85.0203 88.5147L84.5651 88.6031L84.1567 88.9914L83.7368 89.0059L83.4041 89.4649L82.5935 89.8399L82.2261 90.3822Z" fill="black"/>
<path d="M82.4938 67.6991L83.9364 67.7269L85.3505 67.3209L86.2059 66.4485L87.5595 68.8626L86.6081 70.1063L84.8922 70.7218L83.461 70.5065L82.4938 67.6991Z" fill="#2D5A78"/>
<path d="M77.5981 72.0925L81.7079 69.7162V66.3526L77.5981 63.9719H71.7743L67.6569 66.3526V69.7162L71.7743 72.0925H77.5981Z" fill="#B5A794"/>
<path d="M71.775 72.0924L67.6569 69.7162L70.1777 76.9624L72.8191 78.4914L72.1184 72.5438L71.775 72.0924Z" fill="#836E69"/>
<path d="M77.5981 72.0924H71.7749L72.8191 78.4914H76.5527L78.0785 72.4327L77.5981 72.0924Z" fill="#685750"/>
<path d="M81.708 69.7162L77.5982 72.0924L76.5527 78.4914L79.2004 76.9624L81.708 69.7162Z" fill="#403531"/>
<path d="M79.0981 70.5066L85.3493 66.9151V61.8065L79.0981 58.2024H70.2673L64.0173 61.8065V66.9151L70.2673 70.5066H79.0981Z" fill="#B5A794"/>
<path d="M70.2679 70.5066L64.0179 66.915V70.9239L70.2679 74.5293L70.7912 71.1922L70.2679 70.5066Z" fill="#A39685"/>
<path d="M79.098 70.5066H70.2678V74.5293H79.098L79.8233 71.0318L79.098 70.5066Z" fill="#736656"/>
<path d="M85.35 66.915L79.0981 70.5066V74.5293L85.3437 70.9239L85.35 66.915Z" fill="#5E4439"/>
<path d="M79.7205 68.0855L86.8524 63.9719V58.1588L79.7205 54.0446H69.6448L62.5211 58.1588V63.9719L69.6448 68.0855H79.7205Z" fill="#B5A794"/>
<path d="M69.6441 68.0855L62.5211 63.9719V68.5527L69.6441 72.6657L70.2344 68.869L69.6441 68.0855Z" fill="#A39685"/>
<path d="M79.7203 68.0856H69.6439V72.6657H79.7203L80.5466 68.6796L79.7203 68.0856Z" fill="#736656"/>
<path d="M86.8524 63.9719L79.7205 68.0855V72.6657L86.8449 68.5527L86.8524 63.9719Z" fill="#5E4439"/>
<path d="M79.0981 62.6399L85.3493 59.0225V53.9265L79.0981 50.3249L70.2673 50.3186L64.0173 53.9265V59.0225L70.2673 62.6399H79.0981Z" fill="#B5A794"/>
<path d="M70.2679 62.6399L64.0179 59.0225V63.0452L70.2679 66.6506L70.7912 63.3204L70.2679 62.6399Z" fill="#A39685"/>
<path d="M79.098 62.6399H70.2678V66.6506H79.098L79.8233 63.1513L79.098 62.6399Z" fill="#736656"/>
<path d="M85.35 59.0225L79.0981 62.6399V66.6506L85.3437 63.0452L85.35 59.0225Z" fill="#5E4439"/>
<path d="M79.7205 60.208L86.8524 56.0963V50.2826L79.7205 46.1652H69.6448L62.5211 50.2826V56.0963L69.6448 60.208H79.7205Z" fill="#B5A794"/>
<path d="M69.6441 60.2082L62.5211 56.0964V60.676L69.6441 64.7889L70.2344 60.9834L69.6441 60.2082Z" fill="#A39685"/>
<path d="M79.7203 60.2081H69.6439V64.7889L79.7203 64.7839L80.5466 60.7959L79.7203 60.2081Z" fill="#736656"/>
<path d="M86.8524 56.0964L79.7205 60.2082V64.7839L86.8449 60.676L86.8524 56.0964Z" fill="#5E4439"/>
<path d="M79.0981 54.9215L85.3493 51.3116V46.2151L79.0981 42.609H70.2673L64.0173 46.2151V51.3116L70.2673 54.9215H79.0981Z" fill="#B5A794"/>
<path d="M70.2679 54.9214L64.0179 51.3115V55.3311L70.2679 58.9403L70.7912 55.6038L70.2679 54.9214Z" fill="#A39685"/>
<path d="M79.098 54.9214H70.2678V58.9403H79.098L79.8233 55.4384L79.098 54.9214Z" fill="#736656"/>
<path d="M85.35 51.3115L79.0981 54.9214V58.9403L85.3437 55.3311L85.35 51.3115Z" fill="#5E4439"/>
<path d="M79.7206 52.4891L86.8525 48.3767V42.5573L79.7206 38.4493H69.6449L62.5212 42.5573V48.3767L69.6449 52.4966L79.7206 52.4891Z" fill="#B5A794"/>
<path d="M69.6442 52.4971L62.5211 48.3772V52.9611L69.6442 57.0773L70.2345 53.2717L69.6442 52.4971Z" fill="#A39685"/>
<path d="M79.7203 52.489L69.644 52.4972V57.0774H79.7203L80.5467 53.085L79.7203 52.489Z" fill="#736656"/>
<path d="M86.8525 48.3772L79.7206 52.4889V57.0773L86.8449 52.9611L86.8525 48.3772Z" fill="#5E4439"/>
<path d="M69.6441 52.4972L62.521 48.3773L52.3689 31.3894L68.5462 35.7448L69.6441 52.4972Z" fill="#E09D38"/>
<path d="M79.7204 52.4972L86.8523 48.3773L97 31.3894L80.8208 35.7448L79.7204 52.4972Z" fill="#E09D38"/>
<path d="M79.1863 12.7001L85.5594 9.02334V3.82639L79.1863 0.149013L70.1845 0.146484L63.8152 3.82702V9.02397L70.1845 12.7007L79.1863 12.7001Z" fill="#FFF3AB"/>
<path d="M79.7204 52.489L69.6441 52.4972L65.4389 38.9392H83.9363L79.7204 52.489Z" fill="#FFC654"/>
<path d="M83.9363 38.9392H65.4389L67.2047 25.5011H82.1718L83.9363 38.9392Z" fill="#FBE979"/>
<path d="M97 31.3894L83.9363 38.9392L82.1718 25.5012L92.7595 19.3914L97 31.3894Z" fill="#FFC654"/>
<path d="M52.3689 31.3894L65.4389 38.9392L67.2047 25.5012L56.6132 19.3914L52.3689 31.3894Z" fill="#FFC654"/>
<path d="M96.9999 20.7107V31.3893L92.7594 19.3913V10.7449L96.9999 20.7107Z" fill="#E09D38"/>
<path d="M92.7594 10.7448V19.3913L85.5594 9.02263V3.82568L92.7594 10.7448Z" fill="#FFC654"/>
<path d="M56.6132 10.7448V19.3913L63.8145 9.02263V3.82568L56.6132 10.7448Z" fill="#FFC654"/>
<path d="M52.3689 20.7107V31.3893L56.6132 19.3913V10.7449L52.3689 20.7107Z" fill="#E09D38"/>
<path d="M82.1719 25.5011H67.2048L70.1846 12.7001H79.1865L82.1719 25.5011Z" fill="#FFF094"/>
<path d="M92.7594 19.3913L82.1717 25.5012L79.1863 12.7001L85.5594 9.02271L92.7594 19.3913Z" fill="#FBE979"/>
<path d="M56.6132 19.3913L67.2046 25.5012L70.1844 12.7001L63.8145 9.02271L56.6132 19.3913Z" fill="#FBE979"/>
<path d="M65.8305 76.6542L64.6777 78.2641L65.0988 93.079L67.4044 102.006L68.6834 105.371L72.8191 106.907L75.6341 104.347V99.5171L70.7913 90.0797L70.268 78.2887L69.0862 76.6542L67.458 76.2887L65.8305 76.6542Z" fill="#377691"/>
<path d="M65.8303 75.292V77.7888L66.8056 78.4915H68.281L69.0859 77.7888L68.4641 75.292H65.8303Z" fill="#2D5A78"/>
<path d="M68.4643 75.2919L67.4044 75.7767L65.8305 75.2919L63.3059 71.826L62.5212 69.3746L64.477 66.6505L67.1474 68.7162L67.4044 70.3759V72.8771L68.4643 73.4889L68.6834 74.7155L68.4643 75.2919Z" fill="white"/>
<path opacity="0.3" d="M66.9586 176.977L26.7925 153.785L0.768066 168.811L40.9342 192L66.9586 176.977Z" fill="black"/>
<path d="M64.1262 174.649L28.5496 154.119L28.1296 154.359L63.7146 175.059L64.1262 174.649Z" fill="#FBE979"/>
<path d="M63.7104 174.892L28.1296 154.359L27.8329 154.877L63.4103 175.886L63.7104 174.892Z" fill="#E3BD5E"/>
<path d="M63.4154 175.407L27.8329 154.877V155.359L63.4103 175.886L63.4154 175.407Z" fill="#D6A950"/>
<path d="M63.7088 176.058L63.4104 175.886L63.4154 175.407L63.7105 174.892L64.1263 174.649L64.4239 174.821L64.4222 175.301L64.1246 175.815L63.7088 176.058Z" fill="#CC934C"/>
<path d="M33.9765 163.357L12.4805 172.099L10.8794 172.265V173.024L14.7128 175.24L33.9765 164.116V163.357Z" fill="#CC934C"/>
<path d="M30.143 161.142L10.8793 172.265L14.7128 174.478L33.9765 163.357L30.143 161.142Z" fill="#FBE979"/>
<path d="M51.313 173.367L29.8211 182.11L28.2167 182.275V183.035L32.0501 185.248L51.313 174.126V173.367Z" fill="#CC934C"/>
<path d="M47.4812 171.153L28.2167 182.275L32.0501 184.49L51.313 173.367L47.4812 171.153Z" fill="#FBE979"/>
<path d="M28.266 129.228L23.6253 125.361L22.1533 124.511L7.35936 133.051L2.24249 141.916L2.24669 168.743L3.71786 169.592L4.27868 168.53L4.19484 167.349L4.50417 142.496L9.26224 134.265L22.4626 126.496L26.1662 128.634L28.266 129.228Z" fill="#FBE979"/>
<path d="M26.1665 128.634L26.1673 154.931L27.6394 155.781L28.051 155.32L28.5522 154.032L28.2664 129.228L26.1665 128.634Z" fill="#E3BD5E"/>
<path d="M23.6264 125.361L8.83407 133.902L3.71387 142.767L3.71805 169.592L4.04247 169.78L4.49681 169.518L4.82123 168.956V142.657L9.29262 134.916L23.167 126.903L27.6375 129.484L27.6392 155.781L27.9619 155.968L28.4205 155.704L28.7449 155.144V128.316L23.6264 125.361Z" fill="#CC934C"/>
<path d="M43.2228 152.723L37.7338 149.555L33.1769 152.157L38.7523 157.182L43.2228 152.723Z" fill="#574943"/>
<path d="M38.7122 155.354L33.1771 152.157L29.9363 157.772L35.4505 166.19L38.7122 155.354Z" fill="#362C29"/>
<path d="M35.4714 160.966L29.9363 157.771L29.9589 163.019L35.4505 166.189L35.4714 160.966Z" fill="#211A1A"/>
<path d="M38.6876 168.058L35.4502 166.19L35.4711 160.966L38.7119 155.354L43.2227 152.723L46.4627 154.595L46.44 159.815L43.2018 165.428L38.6876 168.058Z" fill="#0A0808"/>
<path d="M55.725 160.694L43.1348 153.427L38.9602 155.812L51.6316 164.779L55.725 160.694Z" fill="#574943"/>
<path d="M51.5928 163.104L38.9599 155.812L35.9907 160.953L48.6043 173.03L51.5928 163.104Z" fill="#362C29"/>
<path d="M40.1781 157.428L37.963 161.265L47.3894 166.707L49.6046 162.871L40.1781 157.428Z" fill="#B5AFA7"/>
<path d="M48.6253 168.247L35.9907 160.953L36.0134 165.761L48.6043 173.03L48.6253 168.247Z" fill="#211A1A"/>
<path d="M51.5713 174.744L48.6047 173.03L48.6256 168.247L51.5931 163.105L55.725 160.694L58.6951 162.41L58.6741 167.192L55.7057 172.335L51.5713 174.744Z" fill="#AB281F"/>
<path d="M58.685 162.405L55.7251 160.695L51.5513 163.079L54.5917 166.488L58.685 162.405Z" fill="#FA5C52"/>
<path d="M54.554 164.813L51.5512 163.079L48.5829 168.223L51.5638 174.739L54.554 164.813Z" fill="#C84030"/>
<path d="M51.5856 169.956L48.5829 168.223L48.6047 173.03L51.5638 174.739L51.5856 169.956Z" fill="#AB281F"/>
<path d="M54.5321 176.453L51.5638 174.739L51.5856 169.956L54.5539 164.813L58.685 162.405L61.6533 164.119L61.634 168.901L58.6657 174.044L54.5321 176.453Z" fill="#8A1C14"/>
<path d="M59.9113 165.952L59.1208 165.496L59.1057 168.626L57.1626 171.994L54.4583 173.571L55.2488 174.026L57.9548 172.452L59.8987 169.084L59.9113 165.952Z" fill="#FA5C52"/>
<path d="M59.121 165.496L57.9683 164.83L55.2649 166.407L53.3209 169.775L53.3066 172.906L54.4584 173.571L57.1627 171.994L59.1059 168.626L59.121 165.496Z" fill="#AB281F"/>
<path d="M24.7715 160.614L15.4758 155.249L12.3943 157.01L21.7478 163.63L24.7715 160.614Z" fill="#E6E1DD"/>
<path d="M21.7217 162.394L12.3941 157.01L10.2029 160.807L19.5145 169.722L21.7217 162.394Z" fill="#D8D1C7"/>
<path d="M19.5296 166.191L10.2029 160.807L10.2188 164.356L19.5145 169.722L19.5296 166.191Z" fill="#B5AFA7"/>
<path d="M21.7049 170.987L19.5145 169.722L19.5296 166.191L21.7217 162.394L24.7714 160.614L26.9626 161.881L26.9484 165.413L24.7555 169.207L21.7049 170.987Z" fill="#A39C95"/>
<path d="M36.6892 165.138L23.8334 157.715L19.5707 160.151L32.5087 169.309L36.6892 165.138Z" fill="#574943"/>
<path d="M32.4694 167.598L19.5708 160.151L16.5396 165.402L29.4181 177.733L32.4694 167.598Z" fill="#362C29"/>
<path d="M29.4382 172.848L16.5396 165.402L16.5623 170.311L29.4181 177.733L29.4382 172.848Z" fill="#211A1A"/>
<path d="M32.4483 179.484L29.4179 177.733L29.438 172.848L32.4692 167.598L36.6891 165.138L39.7204 166.888L39.7002 171.772L36.6682 177.023L32.4483 179.484Z" fill="#0A0808"/>
<path d="M48.1669 167.341L35.7252 160.156L31.6 162.515L44.1197 171.375L48.1669 167.341Z" fill="#574943"/>
<path d="M44.0837 169.721L31.6001 162.515L28.6669 167.595L41.1296 186.04L44.0837 169.721Z" fill="#362C29"/>
<path d="M41.1506 174.802L28.6669 167.595L28.6879 178.856L41.1296 186.04L41.1506 174.802Z" fill="#211A1A"/>
<path d="M36.6895 182.098L30.3387 178.432V174.388L36.6895 178.055V182.098Z" fill="#B5AFA7"/>
<path d="M44.0621 187.734L41.1298 186.04L41.1508 174.802L44.0839 169.721L48.1672 167.341L51.1003 169.034L51.081 180.273L48.1471 185.353L44.0621 187.734Z" fill="#0A0808"/>
<path d="M46.9424 177.098L46.0295 176.57L44.3387 177.537L45.2834 178.753L46.9424 177.098Z" fill="#E6E1DD"/>
<path d="M45.2673 178.074L44.3384 177.537L43.133 179.621L44.0543 182.098L45.2673 178.074Z" fill="#D8D1C7"/>
<path d="M44.0635 180.158L43.133 179.621L43.1431 181.573L44.0543 182.098L44.0635 180.158Z" fill="#B5AFA7"/>
<path d="M45.2582 182.792L44.0544 182.098L44.0636 180.158L45.2674 178.074L46.9423 177.098L48.146 177.792L48.1376 179.731L46.9339 181.815L45.2582 182.792Z" fill="#A39C95"/>
<path d="M48.2082 178.108L46.9097 177.358L45.3589 178.244L46.6876 179.624L48.2082 178.108Z" fill="#E6E1DD"/>
<path d="M46.6739 179.003L45.3586 178.244L44.2571 180.154L45.5649 182.688L46.6739 179.003Z" fill="#D8D1C7"/>
<path d="M45.5699 180.912L44.2571 180.154L44.2655 181.939L45.5649 182.688L45.5699 180.912Z" fill="#B5AFA7"/>
<path d="M46.6656 183.323L45.5649 182.688L45.57 180.912L46.674 179.003L48.208 178.108L49.3112 178.744L49.302 180.521L48.2013 182.431L46.6656 183.323Z" fill="#A39C95"/>
<path d="M40.0894 188.541L4.51112 168.012L4.09198 168.252L39.6778 188.949L40.0894 188.541Z" fill="#FBE979"/>
<path d="M39.6734 188.782L4.09178 168.252L3.79419 168.766L39.3733 189.778L39.6734 188.782Z" fill="#E3BD5E"/>
<path d="M39.3758 189.297L3.79419 168.766L3.79754 169.249L39.3733 189.778L39.3758 189.297Z" fill="#D6A950"/>
<path d="M39.671 189.95L39.3734 189.778L39.3759 189.297L39.6735 188.782L40.0892 188.541L40.386 188.712L40.3835 189.191L40.0867 189.707L39.671 189.95Z" fill="#CC934C"/>
<path d="M26.3682 130.069L4.94936 142.437L4.82111 142.657V146.869L16.0775 138.756L27.3499 130.635L26.3682 130.069Z" fill="#FBE979"/>
<path d="M27.35 135.176L4.53113 148.349V143.808L27.35 130.635V135.176Z" fill="#CC934C"/>
<path d="M40.0392 170.134L4.41235 149.564V144.858L40.0392 165.427V170.134Z" fill="#362C29"/>
<path d="M40.0392 165.428L4.41235 144.858L28.44 131.263L63.833 151.694L40.0392 165.428Z" fill="#574943"/>
<path d="M43.5565 166.275L63.8328 154.575V151.694L40.0391 165.428V170.134L43.5565 168.102V166.275Z" fill="#0A0808"/>
<path d="M40.111 163.027L8.59753 144.834V138.566L40.111 156.759V163.027Z" fill="#362C29"/>
<path d="M40.111 156.759L8.59753 138.566L28.3843 127.34L59.7284 145.434L40.111 156.759Z" fill="#574943"/>
<path d="M55.1925 144.77L46.8901 149.564L43.7818 147.769L52.0841 142.975L55.1925 144.77Z" fill="#A39C95"/>
<path d="M59.7283 151.703V145.434L40.1109 156.759V163.027L59.7283 151.703Z" fill="#0A0808"/>
<path d="M42.8304 158.2L7.07273 137.555L4.04236 142.806L7.15992 146.833L36.3815 164.138L39.7992 163.447L42.8304 158.2Z" fill="#FA5C52"/>
<path d="M14.0633 145.553L14.3525 147.759L14.6853 147.952L16.8254 144.243L16.4909 144.051L14.0633 145.553Z" fill="black"/>
<path d="M8.51815 139.43L6.3772 143.139L14.3556 147.744L16.4966 144.035L8.51815 139.43Z" fill="#211A1A"/>
<path d="M8.59952 139.914L6.81458 143.009L14.2319 147.287L16.0168 144.192L8.59952 139.914Z" fill="#BFAD97"/>
<path d="M39.7992 163.447L4.04236 142.806V154.077L39.7556 174.696L39.7992 163.447Z" fill="#C84030"/>
<path d="M5.23926 145.313V153.477L38.2457 172.531L38.2809 164.388L5.23926 145.313Z" fill="#AB281F"/>
<path d="M28.8882 160.363L22.9817 156.953L22.98 162.47L28.8882 165.882V160.363Z" fill="#8A1C14"/>
<path d="M27.6963 164.625L26.977 165.042L25.9946 162.222L26.8454 160.529L27.6963 160.187V164.625Z" fill="#0A0808"/>
<path d="M26.9761 160.603L25.0069 160.719L23.5735 158.637L24.2944 158.222L27.6961 160.187L26.9761 160.603Z" fill="#574943"/>
<path d="M26.9769 165.042L23.5735 163.075V158.637L26.9761 160.603L26.9769 165.042Z" fill="#362C29"/>
<path d="M26.6598 162.877V163.048L23.8868 161.45V159.343L24.0368 159.429L26.6598 162.877Z" fill="#0A0808"/>
<path d="M26.6632 162.692V162.877L24.0386 161.362V159.429L24.2029 159.524L26.6632 162.692Z" fill="#685750"/>
<path d="M26.6635 160.946V162.692L24.2031 161.27V159.524L26.6635 160.946Z" fill="#A39685"/>
<path d="M8.8918 153.172L8.41231 153.45L7.75677 150.713L8.32512 149.583L8.8918 149.355V153.172Z" fill="#0A0808"/>
<path d="M8.41125 149.632L7.09683 149.711L6.13867 148.321L6.61985 148.043L8.89158 149.355L8.41125 149.632Z" fill="#574943"/>
<path d="M8.41209 153.45L6.13867 152.139V148.322L8.41125 149.633L8.41209 153.45Z" fill="#362C29"/>
<path d="M8.18785 153.08L7.7947 153.307L7.25903 150.912L7.72429 149.986L8.18785 149.8V153.08Z" fill="#79995A"/>
<path d="M7.79461 150.027L6.71909 150.092L5.9353 148.954L6.32845 148.727L8.18776 149.8L7.79461 150.027Z" fill="#CFDB77"/>
<path d="M7.79461 150.027L5.9353 148.954V152.233L7.79461 153.307V150.027Z" fill="#9FB366"/>
<path d="M11.5484 154.707L11.0672 154.985L10.4125 152.247L10.9817 151.115L11.5484 150.889V154.707Z" fill="#0A0808"/>
<path d="M11.0672 151.167L9.75279 151.245L8.79547 149.855L9.27664 149.577L11.5484 150.889L11.0672 151.167Z" fill="#574943"/>
<path d="M11.0671 154.985L8.79541 153.67V149.855L11.0671 151.167V154.985Z" fill="#362C29"/>
<path d="M10.8451 154.613L10.4528 154.841L9.91547 152.446L10.3807 151.519L10.8451 151.332V154.613Z" fill="#D66B24"/>
<path d="M10.4528 151.561L9.37391 151.625L8.5918 150.485L8.98495 150.259L10.8451 151.333L10.4528 151.561Z" fill="#FDBD6F"/>
<path d="M10.4528 151.561L8.5918 150.485V153.766L10.4528 154.842V151.561Z" fill="#EF8F2D"/>
<path d="M13.3489 152.396L14.173 151.925L15.7808 152.844L14.9258 153.97L13.3489 152.396Z" fill="#574943"/>
<path d="M14.9407 153.323L15.7807 152.844L16.9241 154.826L16.0934 157.148L14.9407 153.323Z" fill="#211A1A"/>
<path d="M16.0853 155.305L16.9244 154.826L16.9169 156.678L16.0937 157.148L16.0853 155.305Z" fill="#0A0808"/>
<path d="M14.9502 157.809L16.0936 157.148L16.0853 155.305L14.941 153.324L13.3491 152.396L12.2057 153.057L12.2141 154.898L13.3575 156.88L14.9502 157.809Z" fill="#362C29"/>
<path d="M18.4124 155.319L19.2347 154.848L20.8425 155.767L19.9883 156.892L18.4124 155.319Z" fill="#574943"/>
<path d="M20.0041 156.248L20.8424 155.767L21.9875 157.746L21.1534 160.072L20.0041 156.248Z" fill="#211A1A"/>
<path d="M21.1484 158.229L21.9875 157.746L21.9783 159.6L21.1534 160.072L21.1484 158.229Z" fill="#0A0808"/>
<path d="M20.0109 160.731L21.1535 160.072L21.1485 158.229L20.0042 156.248L18.4123 155.319L17.2681 155.978L17.2756 157.821L18.419 159.803L20.0109 160.731Z" fill="#362C29"/>
<path d="M33.4561 163.049L33.8391 162.826L35.5325 163.792L35.1142 164.703L33.4561 163.049Z" fill="#574943"/>
<path d="M35.1308 164.026L35.5323 163.792L36.7353 165.878L36.343 168.051L35.1308 164.026Z" fill="#211A1A"/>
<path d="M36.3347 166.111L36.7354 165.878L36.7262 167.825L36.3431 168.051L36.3347 166.111Z" fill="#0A0808"/>
<path d="M35.1392 168.743L36.343 168.051L36.3346 166.11L35.1309 164.026L33.456 163.049L32.2531 163.743L32.2606 165.684L33.466 167.766L35.1392 168.743Z" fill="#362C29"/>
<path d="M32.9196 163.636L33.4871 163.309L35.0387 164.195L34.4402 165.154L32.9196 163.636Z" fill="#574943"/>
<path d="M34.455 164.53L35.0385 164.195L36.14 166.105L35.5649 168.217L34.455 164.53Z" fill="#211A1A"/>
<path d="M35.5568 166.441L36.1402 166.104L36.1343 167.889L35.5651 168.217L35.5568 166.441Z" fill="#0A0808"/>
<path d="M34.4629 168.853L35.5652 168.217L35.5568 166.441L34.4554 164.53L32.9196 163.636L31.8181 164.273L31.8257 166.048L32.9288 167.959L34.4629 168.853Z" fill="#362C29"/>
<path d="M41.6814 140.231V141.431L37.2729 138.908H30.9698L26.5638 141.431V140.231L30.9698 137.709H37.2729L41.6814 140.231Z" fill="#0A0808"/>
<path d="M41.6814 141.431V143.869L37.2729 146.389H30.9698L26.5638 143.869V141.431L30.9698 138.908H37.2729L41.6814 141.431Z" fill="#362C29"/>
<path d="M30.2225 142.911V143.528L32.4221 144.813L33.1791 143.709L30.2225 142.911Z" fill="#D8D1C7"/>
<path d="M32.4223 144.17V144.813H35.5667L37.7663 142.911L32.4223 144.17Z" fill="#B5AFA7"/>
<path d="M35.5657 144.17L35.5666 144.813L37.7662 143.528V142.911L35.5657 144.17Z" fill="#A39C95"/>
<path d="M37.7654 141.097L37.7662 142.911L35.5657 144.17H32.4222L30.2225 142.911V141.097L32.4222 139.838L35.5657 139.84L37.7654 141.097Z" fill="#E6E1DD"/>
<path d="M30.5396 141.495V142.779L32.5532 143.954L33.2489 142.226L30.5396 141.495Z" fill="#D8D1C7"/>
<path d="M32.5538 142.647L32.553 143.954L35.4325 143.952L37.4502 141.495L32.5538 142.647Z" fill="#B5AFA7"/>
<path d="M35.4352 142.647L35.4327 143.952L37.4504 142.779V141.495L35.4352 142.647Z" fill="#A39C95"/>
<path d="M37.4503 139.834V141.495L35.4351 142.647H32.5539L30.5396 141.495V139.834L32.5539 138.681H35.4343L37.4503 139.834Z" fill="#E6E1DD"/>
<path d="M45.1415 154.137L9.56489 133.609L9.14575 133.847L44.7316 154.546L45.1415 154.137Z" fill="#FBE979"/>
<path d="M44.7272 154.378L9.14555 133.847L8.84796 134.364L44.4271 155.374L44.7272 154.378Z" fill="#E3BD5E"/>
<path d="M44.4296 154.894L8.84796 134.364L8.85047 134.848L44.4271 155.374L44.4296 154.894Z" fill="#D6A950"/>
<path d="M44.7248 155.546L44.4272 155.374L44.4297 154.894L44.7273 154.378L45.1414 154.137L45.4415 154.308L45.4381 154.788L45.1406 155.303L44.7248 155.546Z" fill="#CC934C"/>
<path d="M58.9262 146.177L23.3487 125.648L22.9296 125.888L58.5129 146.585L58.9262 146.177Z" fill="#FBE979"/>
<path d="M58.5113 146.417L22.9297 125.888L22.6304 126.404L58.2104 147.414L58.5113 146.417Z" fill="#E3BD5E"/>
<path d="M58.2121 146.934L22.6304 126.404L22.6346 126.886L58.2104 147.413L58.2121 146.934Z" fill="#D6A950"/>
<path d="M58.5088 147.586L58.2103 147.413L58.212 146.934L58.5113 146.417L58.9262 146.177L59.2221 146.348L59.2205 146.828L58.9229 147.344L58.5088 147.586Z" fill="#CC934C"/>
<path d="M65.2947 150.608L60.6548 146.742L59.1828 145.891L44.3922 154.431L39.2728 163.298L39.277 190.122L40.7482 190.971L41.3107 189.911L41.226 188.73L41.5353 163.876L46.2934 155.645L59.4938 147.877L63.1973 150.014L65.2947 150.608Z" fill="#FBE979"/>
<path d="M63.1973 150.014V176.313L64.671 177.162L65.0817 176.699L65.5847 175.411L65.2946 150.608L63.1973 150.014Z" fill="#E3BD5E"/>
<path d="M60.655 146.742L45.8644 155.28L40.7466 164.147L40.7483 190.971L41.0727 191.159L41.5279 190.896L41.8507 190.337V164.037L46.322 156.293L60.1981 148.283L64.6661 150.864L64.6712 177.162L64.9922 177.348L65.4524 177.083L65.776 176.523V149.696L60.655 146.742Z" fill="#CC934C"/>
<path d="M63.3992 151.45L41.9803 163.816L41.8503 164.037V168.249L53.1093 160.136L64.3791 152.016L63.3992 151.45Z" fill="#FBE979"/>
<path d="M64.3794 156.557L41.563 169.729V165.188L64.3794 152.016V156.557Z" fill="#CC934C"/>
</svg>
