<svg width="185" height="192" viewBox="0 0 185 192" fill="none" xmlns="http://www.w3.org/2000/svg">
<g clip-path="url(#clip0_171_435)">
<path d="M109.153 53.4943L109.151 50.7819L105.161 51.1907L86.5502 61.9327L69.0032 61.9352L6.64856 25.9314L6.65044 15.8014L25.2552 5.05689L25.2571 2.34631L20.4109 2.71562L4.46342 12.3234L1.00732 24.5683L1.00418 27.2827L66.6638 65.1906L88.8914 65.1932L109.153 53.4943Z" fill="#0A0808"/>
<path d="M103.479 51.0397L20.1893 6.49097V6.86341L100.088 52.9928L103.479 51.0397Z" fill="#A39C95"/>
<path d="M103.479 50.6672L23.5764 4.53589L20.1893 6.49092L100.088 52.6203L103.479 50.6672Z" fill="#F4EFE9"/>
<path d="M109.15 50.7819L105.156 48.4726L86.5535 59.2197L69.0047 59.2171L6.65002 23.2215L6.64689 13.0896L25.2567 2.34637L21.2657 0.0383301L1 11.7346L1.0069 24.5684L66.6671 62.477L88.8898 62.4776L109.15 50.7819Z" fill="#574943"/>
<path d="M129.87 71.0489L131.586 68.0486L134.024 66.6272L135.727 67.6517L135.728 70.4526L134.027 73.4272L131.586 74.8097L129.867 73.8278L129.87 71.0489Z" fill="#693121"/>
<path d="M131.586 68.0486L134.024 66.6272L106.101 50.5135L103.67 51.8817L111.07 57.6571L131.586 68.0486Z" fill="#D18067"/>
<path d="M129.87 71.0489L131.586 68.0486L103.67 51.8817L101.929 54.8757L107.645 59.2297L129.87 71.0489Z" fill="#944E39"/>
<path d="M129.867 73.8279L129.87 71.0489L101.929 54.8757L101.928 57.713L129.867 73.8279Z" fill="#853E2A"/>
<path opacity="0.3" d="M87.6193 86.4716L67.9693 75.1276L82.9769 66.4617L102.627 77.8062L87.6193 86.4716Z" fill="black"/>
<path d="M101.716 77.2243L88.5222 84.8444L86.8067 79.4546L88.5222 74.7551L94.2625 69.3164L101.716 67.1344V77.2243Z" fill="#0A0808"/>
<path d="M68.1667 63.0005V73.0904L69.6264 75.6229L87.058 85.689L88.5221 84.8444V74.7551L83.553 69.9052L68.1667 63.0005Z" fill="#362C29"/>
<path d="M82.2558 52.0447L81.361 52.5613V55.3823L101.716 67.1344V64.316L100.82 62.7635L82.2558 52.0447Z" fill="#C84030"/>
<path d="M101.717 67.1343L88.5223 74.7551L86.6062 69.6462L100.821 62.7634L101.717 64.3159V67.1343Z" fill="#AB281F"/>
<path d="M100.82 62.7635L87.6262 70.3804L79.2606 66.5306L69.0616 59.6648L82.2559 52.0447L100.82 62.7635Z" fill="#FA5C52"/>
<path d="M69.0615 59.6648L68.1667 60.1815V63.0005L88.5221 74.7551V71.9336L87.6261 70.3805L69.0615 59.6648Z" fill="#C84030"/>
<path d="M79.3449 74.0692L80.1694 73.5952V67.631L79.4013 66.3068L76.9096 64.8684L76.0844 65.3424L76.3465 71.1567L77.1121 72.4822L79.3449 74.0692Z" fill="#0A0808"/>
<path d="M78.5789 74.5137L79.3445 74.0692V68.1075L78.5789 66.782L76.084 65.3424L75.3203 65.7845V71.7474L76.084 73.0722L78.5789 74.5137Z" fill="#574943"/>
<path d="M82.8273 30.8875L83.0724 35.5712L81.4008 41.1354L80.2201 49.3649L78.9354 53.0499L79.1028 54.9761L92.0067 62.4275L91.3741 60.9528L87.0132 57.0289L87.1016 52.5476L90.0009 47.4789L90.9383 43.4867L94.2947 43.5149L91.6801 42.0031L91.0925 37.7087L92.6751 35.2302L95.7331 36.9946L96.9532 36.7726L87.4477 31.2856L82.8273 30.8875Z" fill="#AB281F"/>
<path d="M86.9942 65.3193L92.0066 62.4275L91.3739 60.9528H90.5149L85.8581 63.8471L86.9942 65.3193Z" fill="#AB281F"/>
<path d="M86.361 63.8471L91.374 60.9528L87.0131 57.0289L81.6427 59.1282V60.6876L86.361 63.8471Z" fill="#FA5C52"/>
<path d="M90.0008 47.4789L87.1015 52.5477L87.0131 57.0289L85.7459 59.0266L82.0001 59.9214L81.6427 55.3329L84.5251 50.0779L85.3057 45.8073L90.9382 43.4867L90.0008 47.4789Z" fill="#0A0808"/>
<path d="M94.2947 43.5148L89.2805 46.406L88.5036 42.5198L90.2254 39.6041L95.2384 36.7098L94.2201 39.7979L94.2947 43.5148Z" fill="#0A0808"/>
<path d="M90.2255 39.6042L85.4608 36.8516V44.202L89.2805 46.406L89.2078 42.6897L90.2255 39.6042Z" fill="#362C29"/>
<path d="M77.8123 33.7798L78.0593 38.4667L76.3864 44.0283L75.2083 52.2598L73.921 55.9447L74.0922 57.8715L86.9942 65.3192L86.361 63.847L82.0001 59.9212L82.0872 55.4412L84.9884 50.3718L85.9233 46.3815L89.2803 46.406L86.6657 44.8961L86.0788 40.6073L87.6633 38.1225L90.7187 39.8881L91.9389 39.6681L82.4346 34.1804L77.8123 33.7798Z" fill="#C84030"/>
<path d="M82.4346 34.1805V38.7796L79.2393 44.8811L78.4537 51.4089L78.7459 57.6521L77.5194 58.0214L73.921 55.9447L73.3072 48.8632L74.3518 41.6143L76.5306 36.5293L75.8353 32.7045L73.3072 29.834L72.4325 28.4044L82.4346 34.1805Z" fill="#362C29"/>
<path d="M90.1047 38.6078L67.8708 25.7703L68.3016 23.4805L90.533 36.3167L90.1047 38.6078Z" fill="#FA5C52"/>
<path d="M99.0936 35.5474L93.2197 38.9357L90.1047 37.1387V38.6078L93.6523 40.6556L98.6647 37.7601L102.209 31.6179V30.15L99.0936 35.5474Z" fill="#8A1C14"/>
<path d="M65.3081 15.1513L62.7624 13.9832V19.9385L64.8504 21.1424L66.1427 18.1578L65.3081 15.1513Z" fill="#211A1A"/>
<path d="M67.9297 12.9403L64.8504 15.1926L62.7624 13.9831L66.4098 7.67029L69.037 8.87478L67.9297 12.9403Z" fill="#362C29"/>
<path d="M71.4548 8.2823L68.4991 8.87483L66.4099 7.67033L71.5646 4.69202L73.6525 5.89839L71.4548 8.2823Z" fill="#574943"/>
<path d="M68.499 8.87487L64.8504 15.1927V21.1424L68.499 23.2492L73.6524 20.2727L77.2991 13.9562V8.00207L73.6524 5.89844L68.499 8.87487Z" fill="#0A0808"/>
<path d="M96.1917 32.8136L97.5404 36.6779L95.3258 40.1535L64.5074 22.3576V15.5764L96.1917 32.8136Z" fill="#AB281F"/>
<path d="M100.038 25.3089L99.6753 29.3168L95.3258 33.3723L64.5074 15.5764L68.6582 8.3877L100.038 25.3089Z" fill="#C84030"/>
<path d="M105.352 22.7877V27.7505L99.4816 26.1773L68.6582 8.3877L74.5314 4.99304L105.352 22.7877Z" fill="#FA5C52"/>
<path d="M99.4817 26.1774L95.3259 33.3723V40.1535L99.4817 42.5512L105.352 39.1609L109.506 31.9678V25.1842L105.352 22.7877L99.4817 26.1774Z" fill="#8A1C14"/>
<path d="M83.692 15.3036V16.4322L89.823 19.9724H91.6376L94.5952 18.2625V17.1339L88.4661 13.9518H86.6509L83.692 15.3036Z" fill="#0A0808"/>
<path d="M83.6921 14.2565V15.3036L89.823 18.8431H91.6376L94.5952 17.1339V16.0867L88.4662 12.5466H86.651L83.6921 14.2565Z" fill="#574943"/>
<path d="M97.5406 33.7623L96.1919 33.2858V39.2399L97.0873 39.7522L98.3777 36.7688L97.5406 33.7623Z" fill="#211A1A"/>
<path d="M100.161 31.5483L97.0873 33.7993L96.1919 33.2858L99.8386 26.9698L101.27 27.4859L100.161 31.5483Z" fill="#362C29"/>
<path d="M103.687 26.8933L100.732 27.4859L99.8384 26.9698L104.994 23.994L105.887 24.5088L103.687 26.8933Z" fill="#574943"/>
<path d="M100.732 27.4859L97.087 33.7993V39.7521L100.732 41.8589L105.887 38.8837L109.535 32.5678V26.6137L105.887 24.5088L100.732 27.4859Z" fill="#0A0808"/>
<path d="M100.949 41.1265L109.846 44.9438L109.007 43.0345L98.4662 38.52L97.6116 39.1991L100.949 41.1265Z" fill="#0A0808"/>
<path d="M106.982 43.2904L97.6116 39.1991V33.7466L107.913 38.611L106.982 43.2904Z" fill="#211A1A"/>
<path d="M111.023 33.3723L108.752 37.3457L106.982 38.611L97.6116 33.7466L100.949 27.9668L111.023 33.3723Z" fill="#362C29"/>
<path d="M109.007 27.168L116.763 32.9647L116.051 33.1836L106.309 26.8714L105.669 25.2424L109.007 27.168Z" fill="#362C29"/>
<path d="M113.898 31.31L112.852 33.988L109.846 33.6488L100.949 27.9668L105.669 25.2424L113.898 31.31Z" fill="#574943"/>
<path d="M109.846 33.6488L106.982 38.611V43.2904L109.846 44.9438L113.898 42.6038L116.763 37.6423V32.9648L113.898 31.3101L109.846 33.6488Z" fill="#0A0808"/>
<path d="M110.084 44.4573L113.387 45.0065L112.954 43.5983L108.468 42.5511L107.424 42.9223L110.084 44.4573Z" fill="#0A0808"/>
<path d="M111.235 43.7624L107.424 42.9222L107.422 38.5764L111.964 40.1559L111.235 43.7624Z" fill="#211A1A"/>
<path d="M111.235 40.2443L107.422 38.5764L110.084 33.9679L113.899 36.4854L111.235 40.2443Z" fill="#362C29"/>
<path d="M116.504 33.334L118.587 36.0001L116.277 35.3285L113.898 32.4637L113.845 31.7991L116.504 33.334Z" fill="#362C29"/>
<path d="M116.433 34.7567L115.35 36.4032L113.388 36.5161L110.084 33.9679L113.845 31.7991L116.433 34.7567Z" fill="#574943"/>
<path d="M113.388 36.5161L111.235 40.2443V43.7625L113.388 45.0065L116.432 43.2452L118.587 39.5176V36.0001L116.432 34.7567L113.388 36.5161Z" fill="#0A0808"/>
<path d="M114.376 38.6956L113.619 40.0073V41.245L114.376 41.682L115.445 41.0657L116.203 39.7521V38.5175L115.445 38.0798L114.376 38.6956Z" fill="#E6E1DD"/>
<path d="M114.911 39.0066L114.153 40.3183V41.5572L114.911 41.9924L115.983 41.3729L116.74 40.0618V38.8241L115.983 38.3877L114.911 39.0066Z" fill="#A39C95"/>
<path d="M115.066 39.3459L114.524 40.2801V41.1642L115.066 41.4752L115.829 41.0344L116.369 40.1008V39.2192L115.829 38.9082L115.066 39.3459Z" fill="#211A1A"/>
<path d="M114.661 41.1003L115.155 41.3843L115.592 41.1567L115.798 41.758L116.944 42.417L117.39 42.1969L117.591 42.7901L118.737 43.4541L119.172 43.234L119.383 43.8253L120.531 44.4886L120.983 44.2485L121.171 44.8598L122.32 45.5213L122.758 45.3125L122.965 45.8919L124.112 46.5559L124.511 46.3672L124.755 46.9296L125.905 47.5905L126.312 47.3942L126.547 47.9635L127.038 48.2451L127.426 47.2425L115.155 40.2124L114.661 40.2945V41.1003Z" fill="#B5AFA7"/>
<path d="M114.661 40.2946L127.038 47.4413L127.879 46.6343L115.683 39.3804L115.155 39.4406L114.661 40.2946Z" fill="#D8D1C7"/>
<path d="M115.851 39.0417L117.851 40.1942L117.891 40.8037L118.496 40.5673L119.645 41.23L119.728 41.8282L120.289 41.6018L121.435 42.2652L121.507 42.8389L122.078 42.6364L123.229 43.2979L123.331 43.8635L123.869 43.6697L125.019 44.3325L125.118 44.9106L125.665 44.7031L126.812 45.3683L126.89 45.9608L127.455 45.7408L128.225 46.1853L128.107 46.6637L127.53 46.5872L115.155 39.4405L115.851 39.0417Z" fill="#E6E1DD"/>
<path d="M127.53 46.5872L127.038 47.4412V48.245L127.53 48.5278L128.225 48.129L128.721 47.2738V46.9026L128.605 46.4029L128.225 46.1853L127.53 46.5872Z" fill="#A39C95"/>
<path d="M129.291 48.9517L127.53 48.5278L127.038 48.245L127.178 48.1152L129.185 48.5629L129.291 48.9517Z" fill="#A39C95"/>
<path d="M127.038 47.4412L127.133 47.381L129.16 48.3083V48.7071L129.013 48.7936L127.038 48.245L126.939 48.0519V47.6255L127.038 47.4412Z" fill="#B5AFA7"/>
<path d="M127.53 46.5872L127.768 46.6122L129.334 47.7691L129.396 47.9183L129.231 48.2895L129.013 48.339L127.038 47.4412V47.1916L127.339 46.695L127.53 46.5872Z" fill="#D8D1C7"/>
<path d="M128.737 46.9484L129.093 46.8612L129.967 47.7867L129.686 47.8513L128.226 46.5521V46.1853L128.603 46.4016L128.737 46.9484Z" fill="#D8D1C7"/>
<path d="M128.225 46.1853L128.653 46.6041L128.735 46.9678L128.961 46.912L129.686 47.6256V47.8513H129.291L127.53 46.5872L127.879 46.295L128.225 46.1853Z" fill="#E6E1DD"/>
<path d="M129.291 47.8512L129.013 48.339V48.7936L129.291 48.9516L129.686 48.7271L129.967 48.2418V47.7866L129.686 47.6255L129.291 47.8512Z" fill="#A39C95"/>
<path d="M118.496 40.5673L118.018 40.6914L117.851 40.1942L117.156 40.5968L115.733 40.9153L115.154 41.3843L115.52 41.2702L115.798 41.758L116.376 41.2858L117.799 40.9679L118.496 40.5673Z" fill="#8C8680"/>
<path d="M120.286 41.6019L119.81 41.7267L119.645 41.2301L118.946 41.6333L117.527 41.9493L116.944 42.417L117.313 42.3035L117.588 42.7901L118.169 42.3211L119.591 42.0032L120.286 41.6019Z" fill="#8C8680"/>
<path d="M122.078 42.6365L121.6 42.7562L121.435 42.2653L120.74 42.6678L119.316 42.9826L118.737 43.4541L119.101 43.3381L119.383 43.8253L119.963 43.3563L121.381 43.0384L122.078 42.6365Z" fill="#8C8680"/>
<path d="M123.872 43.6698L123.393 43.7939L123.228 43.298L122.531 43.7011L121.108 44.0197L120.531 44.4887L120.894 44.3746L121.171 44.8599L121.752 44.3909L123.174 44.0723L123.872 43.6698Z" fill="#8C8680"/>
<path d="M125.662 44.7031L125.184 44.8285L125.019 44.3325L124.324 44.7351L122.899 45.0523L122.32 45.5213L122.685 45.4053L122.965 45.8919L123.543 45.4235L124.968 45.1075L125.662 44.7031Z" fill="#8C8680"/>
<path d="M127.455 45.7407L126.976 45.863L126.812 45.3683L126.114 45.7702L124.692 46.0881L124.112 46.5558L124.478 46.4417L124.755 46.9296L125.334 46.458L126.759 46.1433L127.455 45.7407Z" fill="#8C8680"/>
<path d="M128.769 46.8982L128.603 46.4016L127.906 46.8048L126.484 47.1214L125.905 47.5904L126.268 47.4788L126.547 47.9635L127.127 47.4939L128.55 47.1754L129.093 46.8612L128.769 46.8982Z" fill="#8C8680"/>
<path d="M178.43 123.55L175.584 118.623L171.561 116.3L168.717 117.942V122.587L171.561 127.513L175.584 129.838L178.43 128.193V123.55ZM177.561 127.279L175.225 128.63L171.921 126.72L169.584 122.674V118.855L171.921 117.509L175.225 119.417L177.561 123.464V127.279Z" fill="#D8D1C7"/>
<path d="M169.584 122.674L165.381 125.766L165.034 120.068L169.584 118.161V122.674Z" fill="#A39C95"/>
<path d="M167.686 129.48L165.544 125.008L169.584 122.674L171.921 126.72L171.14 128.347L167.686 129.48Z" fill="#B5AFA7"/>
<path d="M171.145 131.518L167.882 129.053L171.921 126.72L175.225 128.63L173.901 130.719L171.145 131.518Z" fill="#E6E1DD"/>
<path d="M175.116 119.445V128.681L171.288 130.891V121.653L175.116 119.445Z" fill="#2D5A78"/>
<path d="M174.755 120.344V128.199L171.65 129.993V129.284L172.311 124.608L171.65 122.603V122.137L174.755 120.344Z" fill="#65C6E5"/>
<path d="M171.65 129.284L171.967 129.288L172.884 127.332L172.894 124.563L171.993 122.603H171.65V129.284Z" fill="#C8DFE8"/>
<path d="M167.99 119.75L169.861 120.25L171.288 121.653V130.891L167.99 128.989V119.75Z" fill="#428AA8"/>
<path d="M168.191 120.558V128.413L171.084 130.086V129.284L170.439 125.451L171.084 122.599V122.227L168.191 120.558Z" fill="#65C6E5"/>
<path d="M171.084 122.599H170.705L169.787 124.553L169.777 127.323L170.679 129.284L171.084 129.284V122.599Z" fill="#C8DFE8"/>
<path d="M171.816 117.542L175.116 119.445L171.288 121.653L167.99 119.749L171.816 117.542Z" fill="#2D5A78"/>
<path d="M104.12 95.0502L101.839 93.7354V78.719L108.16 77.7026L104.12 95.0502Z" fill="#D8D1C7"/>
<path d="M108.16 77.7026L106.484 79.3842L104.12 80.0357L101.839 78.719L105.877 76.3865L108.16 77.7026Z" fill="#E6E1DD"/>
<path d="M108.159 92.7209L104.12 95.0502V80.0358L108.159 77.7026V92.7209Z" fill="#A39C95"/>
<path d="M104.12 80.0358V95.0502L178.643 138.077L182.682 120.73L104.12 80.0358ZM173.846 130.221L171.358 131.518L167.732 129.611L165.149 125.057V120.901L167.703 119.311L171.251 121.327L173.979 125.93L173.846 130.221Z" fill="#E3BD5E"/>
<path d="M174.388 125.88L171.543 120.955L167.521 118.633L164.677 120.274V124.92L167.521 129.846L171.543 132.17L174.388 130.527V125.88ZM173.522 129.611L171.185 130.961L167.881 129.053L165.543 125.008V121.189L167.881 119.842L171.185 121.749L173.522 125.795V129.611Z" fill="#D8D1C7"/>
<path d="M147.614 110.561L135.15 103.364V97.9495L147.614 105.148V110.561Z" fill="#2D5A78"/>
<path d="M146.881 109.629L135.882 103.275V98.8832L137.824 100.007L141.188 102.882L144.914 104.099L146.881 105.235V109.629Z" fill="#65C6E5"/>
<path d="M137.824 100.007L137.629 100.342L139.141 102.512L142.072 104.218L144.704 104.462L144.914 104.099L137.824 100.007Z" fill="#C8DFE8"/>
<path d="M151.652 102.815L149.978 104.493L147.614 105.148L135.15 97.9495L139.188 95.6171L151.652 102.815Z" fill="#428AA8"/>
<path d="M150.674 102.537L139.673 96.1826L136.129 98.2305L138.17 99.4105L141.439 100.384L145.263 103.503L147.129 104.582L150.674 102.537Z" fill="#65C6E5"/>
<path d="M145.263 103.503L145.497 103.099L143.985 100.931L141.056 99.2248L138.422 98.9822L138.172 99.4104L145.263 103.503Z" fill="#C8DFE8"/>
<path d="M151.652 108.229L147.614 110.561V105.148L151.652 102.815V108.229Z" fill="#2D5A78"/>
<path d="M135.15 97.9495L139.188 95.6171L108.159 77.7026L104.12 80.0358L135.15 97.9495Z" fill="#FBE979"/>
<path d="M152.594 105.148H147.614V111.668H152.594V105.148Z" fill="#E3BD5E"/>
<path d="M151.652 102.814L147.614 105.148L178.643 123.06L181.007 122.409L182.683 120.73L151.652 102.814Z" fill="#FBE979"/>
<path d="M182.683 135.746L178.643 138.077V123.06L182.683 120.73V135.746Z" fill="#CC934C"/>
<path d="M180.926 139.396L178.643 138.076V123.06L184.964 122.047L180.926 139.396Z" fill="#D8D1C7"/>
<path d="M184.964 122.047L183.291 123.727L180.926 124.381L178.643 123.06L182.683 120.73L184.964 122.047Z" fill="#E6E1DD"/>
<path d="M184.964 137.063L180.926 139.396V124.381L184.964 122.047V137.063Z" fill="#A39C95"/>
<path opacity="0.3" d="M51.9464 65.9013L37.4756 74.2575L5.03829 55.533L3.3071 56.5061L2.06875 58.6379V60.6563L31.5541 77.6766L27.518 80.0072V92.0546L41.3123 100.018L65.7414 85.9124V73.8643L51.9464 65.9013Z" fill="black"/>
<path d="M37.6457 78.0094L38.8684 75.8738L40.6052 74.8618L41.8185 75.5898V77.5856L40.6052 79.7005L38.8684 80.6874L37.6457 79.9908V78.0094Z" fill="#C7AE87"/>
<path d="M38.8684 75.8738L40.6052 74.8619L5.03846 54.3315L3.30728 55.3047L8.57733 59.4166L38.8684 75.8738Z" fill="#F7EDD4"/>
<path d="M37.6455 78.0095L38.8682 75.8739L3.3071 55.3047L2.06875 57.4365L6.14058 60.534L37.6455 78.0095Z" fill="#EFCFA3"/>
<path d="M37.6455 79.9908V78.0095L2.06875 57.4365V59.4549L37.6455 79.9908Z" fill="#D9BE93"/>
<path d="M41.3122 98.8163L27.5179 90.8533V78.8058L65.7413 72.663L41.3122 98.8163Z" fill="#D9BE93"/>
<path d="M65.7414 72.6629L55.6126 82.8274L41.3123 86.7682L27.518 78.8058L51.9464 64.6998L65.7414 72.6629Z" fill="#EFCFA3"/>
<path d="M65.7413 84.711L41.3122 98.8163V86.7683L65.7413 72.663V84.711Z" fill="#C7AE87"/>
<path d="M51.4416 85.9745L52.6649 83.8389L54.3999 82.8275L55.6125 83.5549V85.5481L54.3999 87.663L52.6649 88.6531L51.4416 87.9571V85.9745Z" fill="#D9BE93"/>
<path d="M100.083 116.734L94.767 118.576H92.7116V118.836L93.1612 120.196L94.6723 120.326L98.2676 118.572L99.7756 118.247L101.309 117.256V116.995L100.083 116.734Z" fill="white"/>
<path d="M97.4588 115.138L95.9477 116.429L93.3738 117.61L92.7116 118.576L93.1612 119.936L94.6723 120.065L98.2676 118.312L99.7756 117.987L101.309 116.995L101.032 115.482L97.4588 115.138Z" fill="#87511B"/>
<path d="M98.0026 90.9346L96.8683 97.0925L96.7749 104.494L97.1054 106.651L97.2026 115.138L99.0886 116.297L101.309 115.365L101.794 107.221L101.404 104.234L104.167 95.4773L101.026 90.47L98.0026 90.9346Z" fill="#377691"/>
<path d="M104.381 124.506L103.069 125.817V126.171L105.196 126.722L107.285 125.659L109.159 122.49V122.135L108.183 122.286L104.381 124.506Z" fill="white"/>
<path d="M105.549 120.848L104.734 122.346L103.165 124.531L103.069 125.817L105.196 126.366L107.285 125.304L109.159 122.135L108.72 120.202L107.428 119.936L105.549 120.848Z" fill="#87511B"/>
<path d="M98.0025 90.9346L101.026 94.8703L103.165 96.4535L103.796 107.659L104.681 111.256L105.359 120.848L106.223 122.135L109.159 120.491L109.294 110.832L108.348 107.934L110.175 93.3517L109.837 91.2029L98.0025 90.9346Z" fill="#428AA8"/>
<path d="M95.1647 83.9798L96.8232 81.4228L97.3655 75.258L96.114 74.5508L94.7377 74.8091L94.2167 77.5504L92.2522 82.3195L95.1647 83.9798Z" fill="#362C29"/>
<path d="M102.365 73.4165L102.945 73.8961L103.424 74.7997V76.8901L100.323 78.8502L98.2232 78.2708L98.358 74.6216L100.679 73.0867L102.365 73.4165Z" fill="#C7A495"/>
<path d="M102.945 73.8961L102.822 76.6061L100.27 78.2351L98.2233 77.8457L96.9047 75.537H95.8425L96.0902 81.2466L98.3932 86.8797L98.0026 90.9346L101.793 93.6897H107.563L109.837 91.203L108.773 86.9869L108.182 77.5704L105.743 75.332L102.945 73.8961Z" fill="#574943"/>
<path d="M94.4505 74.5752L95.3571 75.7665L96.1139 76.3465L96.1848 77.7861L96.4908 78.0238H97.0344L98.1868 78.8502L98.9461 78.6846L101.097 76.771L101.215 75.4022L101.604 75.1646L101.876 74.6924L101.995 73.0866L100.34 72.2239L95.0511 73.2045L94.4505 74.5752Z" fill="#F0C6B4"/>
<path d="M94.1281 73.0867L94.3651 74.5037L96.09 75.9214L98.8288 75.4023L99.8916 75.3772L100.27 75.9214L100.483 75.6368L100.319 74.4454L100.979 73.6767L101.688 73.7482L101.876 74.6925L102.279 74.0304L102.491 72.5424L101.428 70.2049L98.8526 68.5289L96.9189 68.6487L94.92 69.9585L93.8842 72.5174L94.1281 73.0867Z" fill="#B5AFA7"/>
<path d="M94.1281 73.0867L95.1909 70.5831L97.0343 69.3315L95.3345 70.748L94.1281 73.0867Z" fill="#A39C95"/>
<path opacity="0.3" d="M105.235 127.057H106.562L110.886 124.561V121.031L102.408 116.136H96.2938L91.9718 118.632V119.399L76.4131 110.415L51.8115 124.616L60.4186 129.586L64.8591 127.021L116.391 156.774L136.547 145.136L105.235 127.057Z" fill="black"/>
<path d="M83.1644 114.4L80.7573 115.793L75.7236 88.984L83.1644 90.5014V114.4Z" fill="#A16739"/>
<path d="M83.1643 90.5014L80.7572 91.894L75.7236 88.984L78.1313 87.5914L83.1643 90.5014Z" fill="#B88F5A"/>
<path d="M80.7573 115.793L75.7236 112.883V88.984L80.7573 91.894V115.793Z" fill="#B88F5A"/>
<path d="M64.7982 120.55L63.7135 119.924V117.109L80.0648 108.919L64.7982 120.55Z" fill="#B88F5A"/>
<path d="M80.0648 108.919L64.7982 117.735L63.7135 117.109L78.9807 108.293L80.0648 108.919Z" fill="#DBB276"/>
<path d="M80.0648 111.734L64.7983 120.55V117.735L80.0648 108.919V111.734Z" fill="#A16739"/>
<path d="M123.761 136.179L124.846 135.553V132.738L81.4876 108.959L123.761 136.179Z" fill="#A16739"/>
<path d="M81.4876 108.959L123.762 133.365L124.846 132.738L82.573 108.332L81.4876 108.959Z" fill="#DBB276"/>
<path d="M81.4876 111.773L123.761 136.179V133.365L81.4876 108.959V111.773Z" fill="#B88F5A"/>
<path d="M127.848 140.196L125.439 141.588L123.032 116.297H127.848V140.196Z" fill="#A16739"/>
<path d="M127.848 116.297L125.439 117.689L123.031 116.297L125.439 114.905L127.848 116.297Z" fill="#B88F5A"/>
<path d="M125.439 141.588L123.032 140.196V116.297L125.439 117.689V141.588Z" fill="#B88F5A"/>
<path d="M63.5066 105.199V105.745L63.8433 106.324L64.3167 106.598L64.6509 106.406L64.723 106.111L64.6521 105.857L64.3167 105.279L63.8433 105.005L63.5066 105.199Z" fill="#685750"/>
<path d="M63.8435 105.005L64.3163 105.279L64.5157 105.332L73.5879 99.9209L73.1158 99.6488L63.8435 105.005Z" fill="#836E69"/>
<path d="M64.3161 105.279L64.6515 105.857L64.8183 105.95L73.9213 100.5L73.5877 99.9209L64.3161 105.279Z" fill="#544540"/>
<path d="M64.6516 105.857L64.6504 106.406L73.9214 101.047V100.5L64.6516 105.857Z" fill="#403531"/>
<path d="M65.491 124.603L63.0839 125.995L58.0502 99.1862L65.491 100.704V124.603Z" fill="#A16739"/>
<path d="M65.4911 100.704L63.084 102.094L58.0503 99.1862L60.4568 97.7942L65.4911 100.704Z" fill="#B88F5A"/>
<path d="M63.0839 125.995L58.0502 123.085V99.1862L63.0839 102.094V125.995Z" fill="#B88F5A"/>
<path d="M106.017 146.426L107.103 145.799V142.984L63.7426 119.203L106.017 146.426Z" fill="#A16739"/>
<path d="M63.7424 119.203L106.017 143.61L107.103 142.984L64.8278 118.576L63.7424 119.203Z" fill="#DBB276"/>
<path d="M63.7426 122.019L106.017 146.426V143.61L63.7426 119.203V122.019Z" fill="#B88F5A"/>
<path d="M109.447 146.322L108.364 145.697V142.882L124.716 134.693L109.447 146.322Z" fill="#B88F5A"/>
<path d="M124.716 134.693L109.447 143.508L108.365 142.882L123.63 134.066L124.716 134.693Z" fill="#DBB276"/>
<path d="M124.716 137.508L109.447 146.322V143.508L124.716 134.693V137.508Z" fill="#A16739"/>
<path d="M110.175 150.399L107.766 151.791L105.359 126.498H110.175V150.399Z" fill="#A16739"/>
<path d="M110.175 126.498L107.766 127.891L105.359 126.498L107.766 125.105L110.175 126.498Z" fill="#B88F5A"/>
<path d="M107.766 151.791L105.359 150.399V126.498L107.766 127.891V151.791Z" fill="#B88F5A"/>
<path d="M118.188 133.908L138.268 122.314V119.498L58.0502 96.3689L118.188 133.908Z" fill="#A16739"/>
<path d="M58.0503 96.3689L118.188 131.092L138.269 119.498L78.1311 84.7773L58.0503 96.3689Z" fill="#DBB276"/>
<path d="M58.0502 99.1861L118.188 133.908V131.092L58.0502 96.3689V99.1861Z" fill="#B88F5A"/>
<path d="M119.334 138.629L139.415 127.034V120.162L118.186 131.093L119.334 138.629Z" fill="#A16739"/>
<path d="M118.186 131.093L119.334 131.756L139.415 120.162L138.269 119.498L127.584 123.657L118.186 131.093Z" fill="#DBB276"/>
<path d="M118.186 137.966L119.334 138.629V131.756L118.186 131.093V137.966Z" fill="#B88F5A"/>
<path d="M122.751 140.601L142.831 129.008V122.135L121.602 133.067L122.751 140.601Z" fill="#A16739"/>
<path d="M121.602 133.067L122.751 133.727L142.831 122.135L141.685 121.471L121.602 133.067Z" fill="#DBB276"/>
<path d="M121.602 139.939L122.751 140.601V133.727L121.602 133.067V139.939Z" fill="#B88F5A"/>
<path d="M126.412 138.056L140.067 130.172V127.269L126.006 134.917L126.412 138.056Z" fill="#403531"/>
<path d="M126.006 134.917L126.412 135.151L140.067 127.269L139.662 127.033L126.006 134.917Z" fill="#836E69"/>
<path d="M126.006 137.82L126.412 138.056V135.151L126.006 134.917V137.82Z" fill="#685750"/>
<path d="M135.206 133.638L134.991 133.511H134.681L134.464 133.638V133.815L134.564 133.909L134.681 133.94H134.99L135.206 133.815L135.206 133.638Z" fill="#836E69"/>
<path d="M135.206 133.815L134.992 133.94L134.924 134.006L134.992 139.508L135.206 139.381V133.815Z" fill="#403531"/>
<path d="M134.992 133.94H134.682L134.608 133.985L134.682 139.508H134.992V133.94Z" fill="#544540"/>
<path d="M134.682 133.94L134.465 133.815V139.382L134.682 139.508V133.94Z" fill="#685750"/>
<path d="M136.73 132.938L136.287 132.682L135.662 133.044L135.218 133.81L135.125 134.146L135.22 134.534L135.662 134.789L136.288 134.428L136.73 133.661V132.938Z" fill="#403531"/>
<path d="M136.287 132.681L135.662 133.044L135.398 133.114L133.375 131.724L134.001 131.362L136.287 132.681Z" fill="#836E69"/>
<path d="M135.661 133.044L135.218 133.809L134.997 133.932L132.933 132.489L133.375 131.724L135.661 133.044Z" fill="#685750"/>
<path d="M135.218 133.809L135.22 134.534L132.933 133.214V132.49L135.218 133.809Z" fill="#544540"/>
<path d="M135.206 129.157L134.991 129.033H134.681L134.464 129.157V129.334L134.564 129.429L134.681 129.46H134.99L135.206 129.334L135.206 129.157Z" fill="#836E69"/>
<path d="M135.206 129.335L134.992 129.461L134.924 129.527L134.992 132.429L135.206 132.304V129.335Z" fill="#403531"/>
<path d="M134.992 129.461H134.682L134.608 129.506L134.682 132.429H134.992V129.461Z" fill="#544540"/>
<path d="M134.682 129.461L134.465 129.335V132.304L134.682 132.429V129.461Z" fill="#685750"/>
<path d="M62.4322 128.267L60.96 129.121L52.7868 97.7177L62.4322 101.582V128.267Z" fill="#A16739"/>
<path d="M62.4322 101.582L60.9599 102.433L52.7868 97.7177L54.2597 96.863L62.4322 101.582Z" fill="#DBB276"/>
<path d="M60.96 129.121L52.7868 124.403V97.7177L60.96 102.433V129.121Z" fill="#B88F5A"/>
<path d="M54.7737 111.604V111.85L55.074 112.023H55.4991L55.6628 111.981L55.802 111.85V111.604L55.4991 111.429H55.074L54.7737 111.604Z" fill="#836E69"/>
<path d="M54.7737 111.85L55.074 112.023L55.1662 112.116L55.074 119.753L54.7737 119.579V111.85Z" fill="#685750"/>
<path d="M55.0741 112.023H55.4992L55.6026 112.086L55.4992 119.753H55.0741V112.023Z" fill="#544540"/>
<path d="M55.4993 112.023L55.8021 111.85V119.58L55.4993 119.753V112.023Z" fill="#403531"/>
<path d="M52.6568 110.632V111.636L53.2719 112.701L54.1404 113.202L54.7542 112.849L54.8859 112.31L54.7567 111.844L54.1404 110.779L53.2745 110.279L52.6568 110.632Z" fill="#685750"/>
<path d="M53.2746 110.279L54.1405 110.778L54.5066 110.876L57.3156 108.946L56.4485 108.446L53.2746 110.279Z" fill="#836E69"/>
<path d="M54.1405 110.778L54.7568 111.843L55.0622 112.011L57.9308 110.01L57.3157 108.946L54.1405 110.778Z" fill="#544540"/>
<path d="M54.7566 111.843L54.7541 112.849L57.9318 111.014L57.9306 110.01L54.7566 111.843Z" fill="#403531"/>
<path d="M54.7737 105.384V105.63L55.074 105.804H55.4991L55.6628 105.762L55.802 105.63V105.384L55.4991 105.209H55.074L54.7737 105.384Z" fill="#836E69"/>
<path d="M54.7737 105.63L55.074 105.804L55.1662 105.897L55.074 109.928L54.7737 109.754V105.63Z" fill="#685750"/>
<path d="M55.0741 105.804H55.4992L55.6026 105.867L55.4992 109.928H55.0741V105.804Z" fill="#544540"/>
<path d="M55.4993 105.804L55.8021 105.63V109.754L55.4993 109.928V105.804Z" fill="#403531"/>
<path opacity="0.3" d="M85.9574 90.9816L85.8765 90.9346L68.1941 101.141L106.991 123.536L107.071 123.584L124.747 113.377L85.9574 90.9816Z" fill="black"/>
<path d="M107.072 123.393L124.419 113.377V112.174L68.5222 99.9373L107.072 123.393Z" fill="#C79D5C"/>
<path d="M68.5222 99.9373L107.072 122.189L124.419 112.174L85.8767 89.9208L68.5222 99.9373Z" fill="#F7E6BB"/>
<path d="M85.6051 93.3085L85.5888 93.2985L77.0909 98.203L77.074 98.2155V102.312L103.13 117.351L103.137 117.357L110.178 117.358L118.667 112.458L118.721 112.427L85.6051 93.3085ZM110.162 117.289L103.155 117.286L77.1436 102.272V98.2569L85.5888 93.3812L118.579 112.429L110.162 117.289Z" fill="#9E9E9E"/>
<path d="M68.5222 101.141L107.072 123.393V122.189L68.5222 99.9373V101.141Z" fill="#D7B37F"/>
<path d="M86.2086 95.5188L86.1302 95.5646L86.5447 96.2856L86.6243 96.2392L86.5397 95.942L86.4024 95.6436L86.2086 95.5188Z" fill="#362C29"/>
<path d="M100.448 103.583L99.8615 103.92L87.9859 97.0638V97.0437L100.448 103.563V103.583Z" fill="#D66B24"/>
<path d="M100.448 103.563L99.8616 103.9L87.986 97.0436L88.5704 96.7063L100.448 103.563Z" fill="#FDBD6F"/>
<path d="M101.026 103.917L100.444 104.255L99.8617 103.92V103.9L101.026 103.896V103.917Z" fill="#A39C95"/>
<path d="M101.026 103.896L100.443 104.234L99.8616 103.9L100.448 103.563L101.026 103.896Z" fill="#E6E1DD"/>
<path d="M101.008 103.592L100.424 103.928V104.225L100.443 104.234L101.026 103.602L101.008 103.592Z" fill="#D8D1C7"/>
<path d="M101.026 103.602L100.444 103.939V104.234L100.533 104.195L100.98 103.938L101.026 103.897V103.602Z" fill="#A39C95"/>
<path d="M87.4238 94.5833L88.111 96.986L88.8126 96.581V95.1702L88.2307 94.1638L87.4238 94.5833Z" fill="#0A0808"/>
<path d="M88.2306 94.1638L87.5503 94.6705L86.7082 94.0942L87.4099 93.6898L88.2306 94.1638Z" fill="#574943"/>
<path d="M88.8123 95.1702L88.1106 95.5746L87.688 95.2316L87.5307 94.5689L88.2304 94.1638L88.8123 95.1702Z" fill="#211A1A"/>
<path d="M86.708 94.0942L86.1262 94.4297V94.5432L87.431 96.8023L87.9332 97.0926L88.1107 96.986V95.5746L87.5307 94.5689L86.708 94.0942Z" fill="#362C29"/>
<path d="M86.8077 94.4272L86.3669 94.6831L86.1262 94.5432V95.3784L86.708 96.3867L87.431 96.8024V96.5265L87.8718 96.2707V95.5515L87.431 94.7878L86.8077 94.4272Z" fill="#E3BD5E"/>
<path d="M86.883 94.6843L86.5506 94.8762V95.4204L86.883 95.9985L87.3551 96.2707L87.688 96.0776V95.5333L87.3551 94.9558L86.883 94.6843Z" fill="#362C29"/>
<path d="M88.2832 95.8217V96.4907L88.445 96.4537L88.6826 95.5909L88.2832 95.8217Z" fill="#E3BD5E"/>
<path d="M88.6826 95.5909L88.2832 95.8217L88.445 96.0455L88.6444 95.9991L88.8438 95.8135L88.6826 95.5909Z" fill="#FBE979"/>
<path d="M88.4452 96.0455V96.4537L88.844 96.2242V95.8135L88.4452 96.0455Z" fill="#CC934C"/>
<path d="M83.98 103.729L83.5869 103.05L83.032 102.729L82.6401 102.956V103.595L83.032 104.275L83.5869 104.595L83.98 104.369V103.729ZM83.8597 104.242L83.5367 104.429L83.0822 104.166L82.7599 103.608V103.082L83.0822 102.896L83.5367 103.159L83.8597 103.716V104.242Z" fill="#D8D1C7"/>
<path d="M82.7604 103.608L82.1817 104.034L82.1334 103.249L82.7604 102.986V103.608Z" fill="#A39C95"/>
<path d="M82.5003 104.544L82.2044 103.929L82.7606 103.608L83.0828 104.166L82.9763 104.389L82.5003 104.544Z" fill="#B5AFA7"/>
<path d="M82.9773 104.827L82.5265 104.486L83.0827 104.166L83.5366 104.429L83.3561 104.716L82.9773 104.827Z" fill="#E6E1DD"/>
<path d="M83.522 103.162V104.435L82.9959 104.74V103.468L83.522 103.162Z" fill="#2D5A78"/>
<path d="M83.4733 103.288V104.368L83.0438 104.616V104.519L83.1366 103.874L83.0438 103.598V103.534L83.4733 103.288Z" fill="#65C6E5"/>
<path d="M83.0438 104.519L83.087 104.519L83.2149 104.25L83.2168 103.869L83.092 103.598H83.0438V104.519Z" fill="#C8DFE8"/>
<path d="M82.5389 103.205L82.7991 103.273L82.996 103.468V104.74L82.5389 104.478V103.205Z" fill="#428AA8"/>
<path d="M82.5683 103.316V104.397L82.9671 104.628V104.519L82.8781 103.99L82.9671 103.597V103.547L82.5683 103.316Z" fill="#65C6E5"/>
<path d="M82.9671 103.597H82.9157L82.7884 103.866L82.7872 104.247L82.9107 104.519H82.9671V103.597Z" fill="#C8DFE8"/>
<path d="M83.0682 102.899L83.5221 103.162L82.9961 103.468L82.539 103.205L83.0682 102.899Z" fill="#2D5A78"/>
<path d="M73.7414 99.8012L73.4266 99.62V97.5515L74.2988 97.4104L73.7414 99.8012Z" fill="#D8D1C7"/>
<path d="M74.2989 97.4104L74.0687 97.6443L73.7414 97.7327L73.4267 97.5515L73.9816 97.2305L74.2989 97.4104Z" fill="#E6E1DD"/>
<path d="M74.2987 99.4802L73.7413 99.8012V97.7327L74.2987 97.4104V99.4802Z" fill="#A39C95"/>
<path d="M73.7413 97.7327V99.8012L84.0099 105.73L84.5648 103.34L73.7413 97.7327ZM83.349 104.646L83.0054 104.827L82.5057 104.563L82.1489 103.936V103.363L82.5019 103.144L82.9904 103.421L83.3653 104.057L83.349 104.646Z" fill="#E3BD5E"/>
<path d="M83.4225 104.05L83.0313 103.371L82.477 103.05L82.0857 103.276V103.916L82.477 104.596L83.0313 104.916L83.4225 104.689V104.05ZM83.3034 104.563L82.9811 104.75L82.5265 104.486L82.2042 103.929V103.403L82.5265 103.218L82.9811 103.479L83.3034 104.037V104.563Z" fill="#D8D1C7"/>
<path d="M79.7337 101.939L78.0169 100.947V100.201L79.7337 101.193V101.939Z" fill="#2D5A78"/>
<path d="M79.6325 101.81L78.1164 100.934V100.33L78.3841 100.484L78.8494 100.88L79.3604 101.048L79.6325 101.205V101.81Z" fill="#65C6E5"/>
<path d="M78.3844 100.484L78.3574 100.531L78.5662 100.83L78.9694 101.064L79.3318 101.099L79.3607 101.048L78.3844 100.484Z" fill="#C8DFE8"/>
<path d="M80.2899 100.872L80.0597 101.102L79.7337 101.193L78.0169 100.201L78.5725 99.8796L80.2899 100.872Z" fill="#428AA8"/>
<path d="M80.1562 100.834L78.6376 99.9574L78.1511 100.24L78.4338 100.402L78.8828 100.536L79.4089 100.966L79.6672 101.116L80.1562 100.834Z" fill="#65C6E5"/>
<path d="M79.4087 100.966L79.4426 100.911L79.2338 100.613L78.8294 100.377L78.467 100.343L78.4337 100.402L79.4087 100.966Z" fill="#C8DFE8"/>
<path d="M80.2899 101.618L79.7337 101.939V101.193L80.2899 100.872V101.618Z" fill="#2D5A78"/>
<path d="M78.0169 100.201L78.5725 99.8796L74.2987 97.4104L73.7413 97.7327L78.0169 100.201Z" fill="#FBE979"/>
<path d="M80.421 101.193H79.7337V102.09H80.421V101.193Z" fill="#E3BD5E"/>
<path d="M80.2899 100.871L79.7337 101.193L84.01 103.661L84.3341 103.571L84.5649 103.34L80.2899 100.871Z" fill="#FBE979"/>
<path d="M84.5648 105.409L84.0099 105.73V103.661L84.5648 103.34V105.409Z" fill="#CC934C"/>
<path d="M84.3234 105.911L84.0099 105.73V103.661L84.8796 103.522L84.3234 105.911Z" fill="#D8D1C7"/>
<path d="M84.8796 103.522L84.6489 103.753L84.3234 103.842L84.0099 103.661L84.5648 103.34L84.8796 103.522Z" fill="#E6E1DD"/>
<path d="M84.8796 105.591L84.3234 105.911V103.842L84.8796 103.522V105.591Z" fill="#A39C95"/>
<path d="M90.1905 86.1192L87.9859 92.6201L88.5628 93.6898H89.7666L92.9713 88.0373L92.8058 86.1192L91.4132 85.4634L90.1905 86.1192Z" fill="#F0C6B4"/>
<path d="M92.2522 82.3195L91.518 84.0989L90.1906 86.1192L91.8904 86.5969L92.9714 88.0372L94.2166 85.4388L95.1647 83.9798L94.4505 82.3195H92.2522Z" fill="#362C29"/>
<path d="M104.275 93.3989L101.794 98.9981L102.468 100.083L103.796 99.9374L107.38 95.7846L107.569 93.6114L105.963 92.6433L104.275 93.3989Z" fill="#F0C6B4"/>
<path d="M107.072 77.1736L105.443 78.8502L104.912 82.275L105.443 90.9346L104.275 93.3988L106.316 93.9901L107.38 95.7846L108.844 92.6201L109.838 79.6522L108.454 77.6683L107.072 77.1736Z" fill="#362C29"/>
<path d="M102.697 99.1216L101.793 98.998L99.472 99.7943L98.1596 101.089L97.8781 102.771L98.534 103.563L100.89 103.691L101.793 102.504L103.432 101.19L103.796 99.9373L102.697 99.1216Z" fill="white"/>
<path d="M89.7666 93.6898L88.8436 92.7261L87.9859 92.6201L86.2221 93.2929L85.0358 94.4272L84.8797 96.0455L85.9562 96.369L86.5394 95.942L87.0849 94.7996L88.2304 94.6843L87.9859 95.357L87.5896 96.1339L87.7959 96.6242L88.2831 96.369L88.791 95.7195L89.4832 95.0291L89.7666 93.6898Z" fill="white"/>
<path opacity="0.3" d="M98.5551 104.275L102.322 106.448L102.397 106.492L102.391 106.501L102.525 106.581L102.594 106.619L102.559 106.697L102.441 106.765L102.307 106.784L102.24 106.746L102.106 106.668L102.084 106.671L102.011 106.627L98.2429 104.456L97.8178 104.035L98.5551 104.275Z" fill="black"/>
<path d="M97.987 103.963L98.0196 103.925L97.8177 103.872L97.987 103.963Z" fill="#836E69"/>
<path d="M97.965 104.017L97.9807 103.973L97.8177 103.872L97.965 104.017Z" fill="#403531"/>
<path d="M97.965 103.98H97.9845L97.987 103.943L97.8177 103.872L97.965 103.98Z" fill="#685750"/>
<path d="M98.3074 104.36L98.483 104.226L98.488 104.046L98.3005 104.017L97.987 103.943L97.9651 103.98L98.2008 104.191L98.3074 104.36Z" fill="#EFC58B"/>
<path d="M98.3074 104.36V104.236L97.9651 103.98V104.017L98.3074 104.36Z" fill="#C79D5C"/>
<path d="M98.3821 104.108L98.4881 104.046L98.0197 103.925L97.9871 103.943L98.3821 104.108Z" fill="#F7E6BB"/>
<path d="M101.631 106.155L101.705 106.027L101.811 105.965L101.884 106.008V106.13L101.811 106.261L101.705 106.319L101.631 106.278V106.155Z" fill="#785B56"/>
<path d="M101.705 106.027L101.811 105.965L98.4882 104.046L98.3822 104.108L101.69 106.029L101.705 106.027Z" fill="#A39685"/>
<path d="M101.631 106.155L101.705 106.027L98.382 104.108L98.3074 104.236L101.616 106.161L101.631 106.155Z" fill="#736656"/>
<path d="M101.631 106.278V106.155L98.3074 104.236V104.36L101.631 106.278Z" fill="#5E4439"/>
<path d="M102.07 106.412L102.145 106.281L102.251 106.219L102.326 106.264V106.386L102.251 106.515L102.145 106.574L102.07 106.532V106.412Z" fill="#D8D1C7"/>
<path d="M102.145 106.281L102.251 106.219L101.811 105.965L101.705 106.026L102.133 106.283L102.145 106.281Z" fill="#E6E1DD"/>
<path d="M102.07 106.412L102.145 106.281L101.705 106.026L101.631 106.155L102.058 106.417L102.07 106.412Z" fill="#D1D1D1"/>
<path d="M102.07 106.532V106.412L101.631 106.155V106.278L102.07 106.532Z" fill="#A39C95"/>
<path d="M102.296 106.531L102.365 106.413L102.46 106.358L102.528 106.397V106.509L102.46 106.628L102.365 106.685L102.296 106.645V106.531Z" fill="#C26A5E"/>
<path d="M102.365 106.413L102.46 106.358L102.258 106.24L102.161 106.298L102.351 106.416L102.365 106.413Z" fill="#FCA48F"/>
<path d="M102.296 106.532L102.365 106.413L102.161 106.298L102.091 106.417L102.282 106.538L102.296 106.532Z" fill="#D57A70"/>
<path d="M102.296 106.645V106.531L102.091 106.417V106.529L102.296 106.645Z" fill="#A6495D"/>
<path d="M101.324 105.807L101.429 105.745L101.269 105.654L101.164 105.713L101.311 105.809L101.324 105.807Z" fill="#FA5C52"/>
<path d="M101.251 105.936L101.324 105.807L101.163 105.713L101.087 105.843L101.236 105.944L101.251 105.936Z" fill="#C84030"/>
<path d="M101.251 106.058V105.936L101.087 105.843V105.964L101.251 106.058Z" fill="#8A1C14"/>
<path d="M10.1329 95.6974L9.52095 96.051L12.7275 101.608L13.3388 101.255L12.6849 98.9629L11.634 96.6636L10.1329 95.6974Z" fill="#362C29"/>
<path d="M38.4068 110.823L33.9055 113.423L23.8307 107.603V107.441L38.4068 110.664V110.823Z" fill="#CC934C"/>
<path d="M38.4068 110.664L33.9055 113.261L23.8306 107.441L28.3326 104.843L38.4068 110.664Z" fill="#FBE979"/>
<path d="M42.8668 113.399L38.3642 115.996L33.9056 113.423V113.261L42.8668 113.234V113.399Z" fill="#A39C95"/>
<path d="M42.8668 113.234L38.3642 115.835L33.9056 113.261L38.4069 110.664L42.8668 113.234Z" fill="#E6E1DD"/>
<path d="M42.727 110.878L38.2269 113.48V115.756L38.3642 115.835L42.8668 110.963L42.727 110.878Z" fill="#D8D1C7"/>
<path d="M42.8668 110.963L38.3642 113.561V115.835L39.0614 115.532L42.5 113.55L42.8668 113.234V110.963Z" fill="#A39C95"/>
<path d="M19.4954 88.4955L24.8018 107.007L30.196 103.891V93.0226L25.7148 85.2645L19.4954 88.4955Z" fill="#0A0808"/>
<path d="M25.7146 85.2645L20.4772 89.169L13.9901 84.7197L19.3818 81.6078L25.7146 85.2645Z" fill="#574943"/>
<path d="M30.196 93.0226L24.8018 96.1369L21.5382 93.4979L20.3224 88.3789L25.7147 85.2645L30.196 93.0226Z" fill="#211A1A"/>
<path d="M13.9901 84.7197L9.50948 87.3068V88.1865L19.5517 105.592L23.4323 107.833L24.8017 107.007V96.137L20.3223 88.379L13.9901 84.7197Z" fill="#362C29"/>
<path d="M14.7557 87.2942L11.3548 89.2549L9.50948 88.1864V94.6196L13.9901 102.379L19.5517 105.592L19.5586 103.462L22.9564 101.5V95.9551L19.5586 90.0693L14.7557 87.2942Z" fill="#E3BD5E"/>
<path d="M15.342 89.2693L12.7731 90.7522V94.9431L15.342 99.3937L18.9711 101.487L21.5381 100.002V95.8147L18.9711 91.3635L15.342 89.2693Z" fill="#362C29"/>
<path d="M26.1123 98.0343V103.184L27.3638 102.907L29.1947 96.2549L26.1123 98.0343Z" fill="#E3BD5E"/>
<path d="M29.1947 96.2549L26.1123 98.0343L27.3638 99.7517L28.9044 99.4119L30.4431 97.9704L29.1947 96.2549Z" fill="#FBE979"/>
<path d="M27.364 99.7517V102.907L30.4432 101.131V97.9703L27.364 99.7517Z" fill="#CC934C"/>
<path opacity="0.3" d="M94.1786 191.005L98.2385 190.882L116.393 171.412L116.392 168.444L115.698 165.475L92.5346 152.099L90.9031 153.043L9.20758 105.876L0.867043 110.038L70.1483 176.061L75.6171 174.865L75.8742 180.438L94.1786 191.005ZM7.18609 109.807L7.18107 108.809L8.40626 108.102L10.1337 108.103L12.4135 109.42L12.4129 110.415L11.1877 111.122L9.4634 111.121L7.18609 109.807ZM83.8874 178.955L83.821 166.364L94.6206 160.129L106.286 166.865L90.7783 182.934L83.8874 178.955Z" fill="black"/>
<path d="M92.5358 152.686L75.1619 159.748L75.1625 162.714L75.8761 178.059L94.1786 188.627L98.2398 188.502L116.392 169.03L116.394 166.063L92.5358 152.686ZM94.62 157.747L108.125 165.545L90.7771 183.518L83.8837 179.537L83.8047 163.994L94.62 157.747Z" fill="#8A1C14"/>
<path d="M0.868423 107.656L70.1503 173.681L75.7514 172.455L75.162 159.748L90.9032 150.664L9.20457 103.496L0.868423 107.656ZM8.40576 105.723H10.1338L12.4136 107.039L12.4124 108.036L11.1884 108.741L9.46102 108.738L7.18371 107.423L7.18182 106.427L8.40576 105.723Z" fill="#D8D1C7"/>
<path d="M98.2367 185.532L116.393 166.062L115.695 163.095L92.534 149.718L75.1626 159.747L75.8743 175.089L94.1775 185.656L98.2367 185.532ZM83.8073 161.024L94.6201 154.781L108.125 162.578L90.779 180.551L83.8869 176.572L83.8073 161.024Z" fill="#FA5C52"/>
<path opacity="0.3" d="M175.286 159.08L163.616 165.82L130.988 146.982L129.25 147.964L128.004 150.108L128 152.136L157.666 169.257L150.715 173.271L150.678 180.715L153.584 182.398L163.036 181.383L182.004 170.432L182.041 162.981L175.286 159.08Z" fill="black"/>
<path d="M163.787 169.819L165.018 167.673L166.764 166.655L167.982 167.384L167.981 169.391L166.762 171.523L165.016 172.512L163.787 171.809L163.787 169.819Z" fill="#C7AE87"/>
<path d="M165.018 167.673L166.764 166.655L130.988 146L129.25 146.982L134.546 151.118L165.018 167.673Z" fill="#F7EDD4"/>
<path d="M163.787 169.819L165.018 167.673L129.25 146.982L128.004 149.126L132.097 152.243L163.787 169.819Z" fill="#EFCFA3"/>
<path d="M163.787 171.809L163.787 169.819L128.004 149.126L128 151.154L163.787 171.809Z" fill="#D9BE93"/>
<path d="M153.584 181.416L150.678 179.733L150.716 172.29L182.041 162L153.584 181.416Z" fill="#362C29"/>
<path d="M182.041 162L171.855 172.224L157.468 176.185L150.716 172.29L175.286 158.098L182.041 162Z" fill="#574943"/>
<path d="M182.004 169.449L163.036 180.401L153.584 181.416L153.62 173.964L163.075 172.949L182.041 162L182.004 169.449Z" fill="#0A0808"/>
<path d="M168.398 172.481L169.628 170.335L171.372 169.316L172.592 170.046L172.594 172.054L171.372 174.183L169.629 175.178L168.398 174.477V172.481Z" fill="#EFCFA3"/>
</g>
<defs>
<clipPath id="clip0_171_435">
<rect width="185" height="192" fill="white"/>
</clipPath>
</defs>
</svg>