<svg width="217" height="194" viewBox="0 0 217 194" fill="none" xmlns="http://www.w3.org/2000/svg">
<path d="M70.5899 121.168C70.5899 122.145 65.3622 122.932 58.9163 122.932C52.4679 122.932 47.2403 122.145 47.2403 121.168C47.2403 120.188 52.4679 119.401 58.9163 119.401C65.3597 119.401 70.5899 120.188 70.5899 121.168Z" fill="#314CB6"/>
<path d="M54.6712 111.05C57.2242 110.457 58.7179 109.762 58.7179 109.023C58.7179 107.628 53.5373 106.405 45.7318 105.7C46.9078 105.346 47.5827 104.946 47.5827 104.519C47.5827 103.056 39.7251 101.865 30.0289 101.865C20.3403 101.865 12.4801 103.056 12.4801 104.519C12.4801 104.961 13.2046 105.38 14.47 105.745C6.94979 106.457 2 107.658 2 109.023C2 110.95 11.9467 112.563 25.0817 112.905C25.0792 112.93 25.0593 112.953 25.0593 112.977C25.0593 114.444 32.9219 115.635 42.6106 115.635C52.3067 115.635 60.1644 114.446 60.1644 112.977C60.1619 112.218 58.043 111.536 54.6712 111.05Z" fill="#314CB6"/>
<path d="M132.295 103.872L23.943 103.013L13.5348 36.6241H141.078L132.295 103.872Z" fill="#E6B343"/>
<path d="M132.007 103.586C132.007 108.889 107.799 116.568 77.9365 116.568C48.0765 116.568 23.8634 108.886 23.8634 103.586C23.8634 98.2893 48.0765 93.9945 77.9365 93.9945C107.799 93.997 132.007 98.2918 132.007 103.586Z" fill="#E6B343"/>
<path d="M130.791 63.9137L127.337 97.4358C117.242 101.477 98.7502 106.549 77.8123 106.549C59.1544 106.549 42.3947 102.018 31.8674 98.5672L28.4385 65.8961C40.7373 67.938 60.0402 69.8088 77.1449 69.8088C96.6364 69.8088 117.889 66.494 130.791 63.9137Z" fill="#FFFCF3"/>
<path d="M147.382 37.8498C146.893 37.5793 146.31 37.4429 145.655 37.4429C143.472 37.4429 140.902 38.9712 140.167 39.4402L139.453 39.8942L141.269 42.7499L141.981 42.2959C143.194 41.5218 144.737 40.8866 145.616 40.8246C145.618 40.8618 145.621 40.9114 145.621 40.9685C145.621 61.0306 122.303 84.2537 100.527 93.3643C97.0506 94.8182 95.7555 96.5649 94.8102 97.8377C93.8997 99.0634 93.3985 99.7407 90.9844 100.093C89.8208 100.262 84.0869 100.381 77.0357 100.381C70.3045 100.381 64.8659 100.267 64.0968 100.108C61.8861 99.6514 61.4246 98.9815 60.6679 97.8724C59.7821 96.5872 58.6855 94.9869 55.3311 93.8282C32.4852 85.9334 8.85518 64.3925 8.79563 41.8295C8.87751 41.8121 9.00655 41.7922 9.19512 41.7922C10.3687 41.7922 12.356 42.4373 13.7107 43.07L14.4774 43.4273L15.9114 40.3606L15.1422 40.0009C14.3532 39.6312 11.5794 38.413 9.2298 38.413C8.27954 38.413 7.48563 38.614 6.8728 39.006C5.91758 39.6114 5.39655 40.6311 5.39655 41.8766C5.39655 65.8415 30.2248 88.7346 54.222 97.0289C56.522 97.8228 57.1174 98.6912 57.8717 99.7878C58.8046 101.152 59.8665 102.696 63.4145 103.428C64.8932 103.73 72.7508 103.765 76.0606 103.765C82.5561 103.765 90.0961 103.643 91.4682 103.445C95.2766 102.889 96.418 101.348 97.522 99.8573C98.3929 98.6912 99.2093 97.5896 101.829 96.4929C124.611 86.968 149 62.3828 149 40.9735C149.005 39.0283 147.988 38.1822 147.382 37.8498Z" fill="#556566"/>
<path d="M144.388 45.8787C144.388 53.4138 114.354 59.5247 77.3012 59.5247C40.251 59.5247 10.2198 53.4138 10.2198 45.8787C10.2198 44.467 10.2198 35.8228 10.2198 35.8228C18.7126 30.2677 43.6526 32.255 73.7507 32.255C112.337 32.2525 144.283 33.9992 144.388 35.8228C144.388 35.8228 144.388 43.3331 144.388 45.8787Z" fill="#FAD43A"/>
<path d="M144.393 46.618C144.393 46.5659 144.393 46.5337 144.393 46.5337C144.546 46.5833 144.546 46.618 144.393 46.618Z" fill="#FAD43A"/>
<path d="M138.284 41.368C128.499 46.3798 104.137 50.2727 77.3012 50.2727C50.4706 50.2727 26.3246 46.3798 16.6607 41.368C26.3246 36.7805 50.4706 33.8528 77.3012 33.8528C104.137 33.8528 128.496 36.7805 138.284 41.368Z" fill="#FAD43A"/>
<path d="M77.3012 33.8528C104.137 33.8528 128.499 36.783 138.284 41.368C128.499 46.3798 104.137 50.2727 77.3012 50.2727C50.4706 50.2727 26.3246 46.3798 16.6607 41.368C26.3246 36.7805 50.4681 33.8528 77.3012 33.8528Z" fill="#E6B343"/>
<path d="M144.388 35.8228C144.388 42.9162 114.123 50.2702 77.068 50.2702C40.0203 50.2702 10.2198 42.9162 10.2198 35.8228C10.2198 28.7293 40.251 22.9781 77.3012 22.9781C114.351 22.9806 144.388 28.7318 144.388 35.8228Z" fill="#E6B343"/>
<path d="M138.284 41.368C128.499 46.3798 104.137 50.2727 77.3012 50.2727C50.4706 50.2727 26.3246 46.3798 16.6607 41.368C26.3246 36.7805 50.4706 33.8528 77.3012 33.8528C104.137 33.8528 128.496 36.7805 138.284 41.368Z" fill="#FAFFE4"/>
<path d="M34.5396 46.675C34.5396 46.675 43.6055 51.6993 43.3226 55.6492C43.0398 59.6016 36.3408 76.5847 46.8433 76.5847C52.4903 76.5847 49.3691 62.6632 49.1036 61.7229C47.5554 56.2843 57.5071 56.8972 57.9462 61.7229C58.3829 66.5437 61.2362 68.1216 62.3676 65.0153C63.494 61.9139 66.9204 57.8176 69.4586 59.1401C71.9967 60.46 73.4283 63.3852 76.4775 63.3232C79.0529 63.2686 86.5259 54.9148 93.3614 49.8037C93.3614 49.8037 64.804 52.126 34.5396 46.675Z" fill="#FEB95F"/>
<path d="M90.843 101.897C90.843 103.768 89.3295 105.281 87.4612 105.281H66.9475C65.0793 105.281 63.5659 103.768 63.5659 101.897V99.3761C63.5659 97.5078 65.0793 95.9894 66.9475 95.9894H87.4612C89.3295 95.9894 90.843 97.5053 90.843 99.3761V101.897Z" fill="#8D5C3E"/>
<path opacity="0.4" d="M142.709 93.5571C140.527 94.8251 138.345 96.0929 136.163 97.3609C131.895 99.8407 127.628 102.32 123.36 104.8C119.837 106.848 116.128 108.733 112.752 111.015C111.013 112.191 109.766 113.912 108.372 115.451C107.983 115.881 107.606 116.352 107.178 116.744C106.858 117.083 106.527 117.343 106.188 117.532C104.246 118.614 102.036 117.405 100.266 115.856L72.7504 131.943L110.757 154.048L112.955 159.342L112.933 160.763L112.917 161.491C112.834 161.678 112.668 161.856 112.416 162.003L92.7331 173.44C91.982 173.878 90.7601 173.878 90.0042 173.44L86.2562 171.277L80.8332 174.415L82.884 151.029L99.5993 160.963L106.349 157.04L67.2422 133.807C65.919 133.135 64.0394 134.664 64.0394 132.526C64.0394 131.202 65.7573 130.485 66.1329 130.268L96.9454 112.061C95.3559 110.44 96.031 107.498 98.4446 106.914L102.006 106.05L136.951 85.7427L142.702 89.0628C144.43 90.0612 144.433 92.554 142.709 93.5571Z" fill="#808080"/>
<path d="M73.7541 174.531C73.7628 174.536 73.7703 174.541 73.7791 174.546C73.7678 174.541 73.7541 174.534 73.7541 174.531Z" fill="#666666"/>
<path d="M73.9053 174.619C74.0294 174.691 74.1264 174.746 74.1948 174.786C74.098 174.733 74.001 174.675 73.9053 174.619Z" fill="#666666"/>
<path d="M88.0955 150.231C87.9549 150.161 87.8118 150.092 87.6784 150.018L88.0955 150.231Z" fill="#666666"/>
<path d="M91.4203 156.893C91.424 158.035 91.2833 159.176 91.0433 160.291C90.7869 161.476 90.4181 162.634 89.9606 163.754C89.4914 164.909 88.9277 166.027 88.2835 167.094C87.6418 168.159 86.9195 169.176 86.1171 170.126C85.3441 171.042 84.4967 171.899 83.5712 172.661C82.5996 173.462 81.5406 174.165 80.3893 174.678C79.8728 174.908 79.3386 175.098 78.789 175.233C77.399 175.575 75.9016 175.549 74.5742 174.979C74.4702 174.934 74.3697 174.884 74.2704 174.83C74.2669 174.829 74.2634 174.827 74.2597 174.824C74.2586 174.824 74.2574 174.823 74.2574 174.823C71.8262 173.368 71.3179 170.473 71.4927 167.702C71.5778 166.375 71.832 165.069 72.1287 163.953C73.2526 159.729 75.7301 155.885 78.9911 152.99C80.2994 151.829 81.7568 150.789 83.4162 150.237C84.9786 149.717 86.832 149.626 88.3424 150.357C88.3437 150.359 88.3437 150.359 88.3448 150.359L88.3461 150.36C90.2172 151.486 91.4121 153.767 91.4203 156.893Z" fill="#C34A0B"/>
<path d="M88.3426 150.357C86.8321 149.625 84.9788 149.716 83.4163 150.236C81.7569 150.788 80.2996 151.828 78.9912 152.989C75.7302 155.885 73.2529 159.728 72.1289 163.953C71.8322 165.068 71.578 166.374 71.4929 167.702C71.3179 170.472 71.8263 173.368 74.2575 174.823C74.2398 174.813 74.2198 174.8 74.1949 174.786C74.1263 174.746 74.0295 174.69 73.9054 174.618C73.8653 174.595 73.8227 174.571 73.7778 174.545C73.7696 174.54 73.7624 174.536 73.7542 174.531C67.7736 171.048 16.0535 140.939 16.0535 140.939C15.7733 140.778 15.5097 140.586 15.2651 140.366C15.2155 140.323 15.167 140.278 15.1197 140.232C10.5019 135.761 14.4259 126.782 17.4671 122.576C19.4491 119.835 22.3201 117.086 25.6792 116.203C28.8314 115.373 31.2815 117.233 33.8499 118.726C38.4924 121.423 43.1339 124.122 47.7766 126.819C53.8388 130.342 59.9008 133.865 65.9629 137.388C71.2284 140.448 76.4927 143.507 81.7582 146.567C83.7297 147.713 85.6846 148.909 87.6786 150.018C87.8122 150.093 87.9551 150.161 88.0957 150.231L88.3426 150.357Z" fill="#314CB6"/>
<path d="M78.4674 164.175C78.4615 162.081 79.9341 159.533 81.7555 158.481C82.6667 157.955 83.5201 157.907 84.1453 158.253C84.5401 158.525 84.7941 158.937 84.9301 159.396C85.3484 160.809 84.8025 162.448 84.079 163.666C84.0459 163.722 84.0128 163.777 83.9786 163.832C83.618 164.406 83.1761 164.929 82.6726 165.381C82.1502 165.849 81.5758 166.257 80.888 166.434C80.4068 166.557 79.888 166.544 79.4484 166.295C78.8516 165.92 78.4709 165.183 78.4674 164.175Z" fill="#666666"/>
<path d="M79.4486 166.295C79.8884 166.544 80.4071 166.557 80.8882 166.434C81.576 166.257 82.1505 165.849 82.6728 165.381C83.1763 164.929 83.6183 164.406 83.9788 163.832C84.0131 163.777 84.0462 163.722 84.0793 163.666C84.8027 162.448 85.3487 160.808 84.9303 159.396C84.7943 158.937 84.5403 158.525 84.1455 158.253C84.1596 158.261 84.1739 158.268 84.1869 158.277C84.5806 158.502 84.96 158.751 85.3511 158.978C85.3853 158.996 85.416 159.017 85.4481 159.038C85.4503 159.04 85.4515 159.041 85.4539 159.043C85.4669 159.051 85.4788 159.061 85.4905 159.07C85.9834 159.431 86.2257 160.078 86.2954 160.669C86.3628 161.245 86.2789 161.827 86.1358 162.389C86.098 162.535 86.0566 162.681 86.0105 162.825C85.63 164.022 84.9609 165.138 84.0449 166.002C83.2105 166.788 81.8335 167.687 80.6787 167.016L79.5369 166.348L79.46 166.302L79.4486 166.295Z" fill="#333333"/>
<path d="M84.1348 158.246C84.1527 158.256 84.1706 158.266 84.1872 158.277C84.1741 158.269 84.1597 158.261 84.1455 158.253C84.142 158.251 84.1385 158.248 84.1348 158.246Z" fill="#141415"/>
<path d="M88.0573 158.956C88.0573 158.955 88.0572 158.955 88.0572 158.954C88.0565 158.94 88.0549 158.927 88.0543 158.914C88.0486 158.808 88.0413 158.704 88.0315 158.603C88.031 158.598 88.0304 158.594 88.0299 158.59C88.0264 158.554 88.0213 158.52 88.0172 158.484C88.0164 158.477 88.0155 158.471 88.0147 158.464C88.0069 158.399 87.9998 158.334 87.9904 158.27C87.9895 158.264 87.9881 158.258 87.9871 158.252C87.982 158.218 87.9756 158.185 87.97 158.152C87.9678 158.14 87.9657 158.128 87.9635 158.115C87.9542 158.062 87.9454 158.008 87.9348 157.956C87.9334 157.949 87.9315 157.942 87.9301 157.935C87.9233 157.903 87.9153 157.872 87.908 157.839C87.9054 157.828 87.9028 157.817 87.9001 157.805C87.8884 157.756 87.8775 157.705 87.8646 157.656C87.8627 157.649 87.8603 157.642 87.8584 157.634C87.8502 157.604 87.8408 157.574 87.832 157.543C87.829 157.533 87.8259 157.523 87.8229 157.513C87.809 157.465 87.7955 157.417 87.7803 157.37C87.7778 157.362 87.7748 157.355 87.7721 157.347C87.7621 157.318 87.7513 157.289 87.7408 157.26C87.7389 157.254 87.737 157.249 87.735 157.243C87.7172 157.194 87.6998 157.144 87.6808 157.096C87.6771 157.087 87.673 157.078 87.6694 157.069C87.6591 157.044 87.6483 157.02 87.6377 156.996C87.6351 156.99 87.6326 156.984 87.6301 156.978C87.6092 156.93 87.5885 156.882 87.5662 156.835C87.561 156.824 87.5551 156.814 87.5499 156.803C87.5404 156.784 87.5305 156.765 87.5209 156.746C87.5179 156.74 87.5147 156.734 87.5117 156.728C87.4863 156.679 87.4608 156.63 87.4339 156.583C87.426 156.569 87.4174 156.556 87.4093 156.542C87.4033 156.532 87.3973 156.522 87.3912 156.512C87.3857 156.502 87.38 156.493 87.3745 156.484C87.3439 156.434 87.3125 156.385 87.28 156.337C87.2702 156.322 87.2602 156.308 87.2502 156.294C87.248 156.291 87.2459 156.288 87.2437 156.285C87.2344 156.272 87.2252 156.259 87.2157 156.246C87.1762 156.191 87.1351 156.139 87.0933 156.088C87.0789 156.07 87.0645 156.053 87.0497 156.035C87.0448 156.03 87.0402 156.024 87.0353 156.018C86.9702 155.943 86.9025 155.872 86.8321 155.805C86.8263 155.799 86.8201 155.794 86.8144 155.789C86.7951 155.771 86.7751 155.754 86.7554 155.736C86.7245 155.709 86.6941 155.68 86.6621 155.654C86.66 155.652 86.658 155.651 86.6558 155.649C86.6272 155.626 86.5974 155.605 86.5683 155.583C86.5474 155.567 86.5266 155.551 86.5054 155.536C86.5016 155.533 86.4979 155.53 86.494 155.527C86.438 155.488 86.3803 155.451 86.3219 155.415C86.2532 155.374 86.1832 155.335 86.1112 155.299C86.1299 155.312 86.1486 155.325 86.167 155.338C86.1732 155.342 86.18 155.346 86.1862 155.35C86.232 155.383 86.2765 155.418 86.3206 155.454C86.3258 155.459 86.3314 155.462 86.3366 155.467C86.3871 155.508 86.4368 155.552 86.4851 155.597C86.4892 155.601 86.4928 155.606 86.497 155.61C86.5692 155.679 86.6385 155.752 86.7051 155.828C86.7096 155.834 86.7149 155.838 86.7195 155.843C86.7328 155.859 86.7443 155.876 86.7573 155.892C86.8009 155.945 86.8434 155.999 86.8844 156.056C86.8938 156.069 86.9043 156.08 86.9136 156.093C86.9245 156.109 86.9342 156.126 86.945 156.142C86.9783 156.191 87.0104 156.241 87.0418 156.293C87.0535 156.312 87.0667 156.33 87.0781 156.349C87.0854 156.362 87.0917 156.375 87.0989 156.388C87.1263 156.436 87.1524 156.486 87.1783 156.537C87.1909 156.561 87.205 156.584 87.2174 156.61C87.2222 156.62 87.2263 156.63 87.231 156.64C87.2538 156.688 87.2751 156.738 87.2965 156.787C87.3095 156.817 87.3237 156.845 87.3361 156.876C87.3394 156.884 87.3421 156.893 87.3454 156.901C87.3651 156.95 87.383 157.002 87.4012 157.052C87.4134 157.086 87.4269 157.119 87.4383 157.153C87.4407 157.16 87.4426 157.168 87.445 157.175C87.4611 157.224 87.4752 157.275 87.49 157.326C87.5012 157.364 87.5138 157.401 87.5244 157.44C87.5261 157.447 87.5275 157.454 87.5293 157.461C87.5428 157.512 87.5545 157.566 87.5667 157.618C87.5762 157.659 87.587 157.699 87.5958 157.741C87.5973 157.748 87.5981 157.755 87.5995 157.761C87.6106 157.815 87.6196 157.872 87.6294 157.927C87.637 157.971 87.6459 158.013 87.6529 158.057C87.6537 158.063 87.6543 158.07 87.6551 158.075C87.6648 158.14 87.6721 158.206 87.6798 158.273C87.6848 158.314 87.6911 158.353 87.6952 158.395C87.6957 158.399 87.6957 158.404 87.6962 158.408C87.7061 158.51 87.7134 158.614 87.7191 158.719C87.7198 158.733 87.7214 158.746 87.722 158.759C87.722 158.76 87.722 158.76 87.7221 158.761C87.7277 158.878 87.7309 158.997 87.7312 159.118C87.7312 159.129 87.7312 159.14 87.7312 159.151C87.7312 159.178 87.7293 159.206 87.729 159.233C87.7279 159.336 87.7255 159.44 87.7206 159.544C87.7199 159.559 87.7201 159.574 87.7193 159.59C87.7179 159.618 87.7142 159.647 87.7125 159.676C87.7058 159.783 87.6973 159.892 87.6868 160C87.6841 160.027 87.6833 160.053 87.6805 160.08C87.6786 160.097 87.6752 160.115 87.6733 160.133C87.655 160.299 87.6331 160.465 87.606 160.633C87.605 160.638 87.6047 160.643 87.6038 160.649C87.5908 160.728 87.5756 160.808 87.5608 160.887C87.554 160.923 87.5483 160.959 87.5412 160.996C87.5172 161.117 87.4912 161.239 87.4629 161.362C87.4627 161.362 87.4624 161.363 87.4622 161.364C87.4218 161.539 87.3756 161.714 87.3266 161.889C87.315 161.93 87.3035 161.972 87.2913 162.013C87.2409 162.187 87.1874 162.36 87.1291 162.533C87.128 162.537 87.1271 162.54 87.126 162.544C87.0992 162.623 87.0702 162.702 87.0418 162.781C87.0269 162.822 87.0131 162.864 86.9978 162.905C86.9551 163.02 86.9106 163.135 86.8646 163.249C86.8607 163.259 86.8572 163.269 86.8531 163.279C86.803 163.403 86.7508 163.527 86.697 163.651C86.6797 163.69 86.6612 163.729 86.6436 163.769C86.6081 163.848 86.5729 163.928 86.5358 164.007C86.5342 164.01 86.5325 164.014 86.5309 164.017C86.4578 164.173 86.3811 164.327 86.3022 164.481C86.281 164.522 86.2593 164.563 86.2375 164.604C86.1735 164.726 86.1077 164.847 86.0404 164.967C86.0266 164.992 86.0139 165.018 85.9998 165.042C85.9943 165.052 85.9881 165.061 85.9826 165.071C85.8748 165.26 85.7624 165.446 85.6466 165.629C85.636 165.646 85.6263 165.664 85.6155 165.681C85.6038 165.7 85.5913 165.717 85.5794 165.735C85.4822 165.887 85.3835 166.037 85.2813 166.184C85.2807 166.185 85.2802 166.185 85.2796 166.186C85.2754 166.192 85.271 166.198 85.2669 166.204C85.1784 166.331 85.088 166.456 84.9959 166.579C84.9849 166.594 84.9746 166.609 84.9636 166.624C84.9428 166.651 84.9211 166.678 84.9 166.705C84.8385 166.786 84.7762 166.866 84.7133 166.945C84.6945 166.969 84.6767 166.993 84.6577 167.016C84.6407 167.037 84.6227 167.058 84.6056 167.079C84.5477 167.15 84.4891 167.219 84.4301 167.289C84.4057 167.317 84.3821 167.347 84.3574 167.376C84.3449 167.39 84.3317 167.404 84.3192 167.418C84.2637 167.482 84.2075 167.544 84.1512 167.606C84.1217 167.639 84.0932 167.672 84.0636 167.704C84.0542 167.714 84.0444 167.724 84.035 167.734C83.9823 167.791 83.9287 167.846 83.8751 167.901C83.8412 167.936 83.8081 167.972 83.7739 168.007C83.7664 168.014 83.7585 168.022 83.7511 168.029C83.6986 168.082 83.6453 168.133 83.5921 168.185C83.5553 168.22 83.5192 168.257 83.4821 168.292C83.4758 168.298 83.4691 168.304 83.4628 168.31C83.4129 168.357 83.3623 168.402 83.3117 168.448C83.2712 168.485 83.2311 168.523 83.19 168.559C83.1839 168.564 83.1777 168.569 83.1715 168.575C83.1214 168.619 83.0704 168.661 83.0198 168.704C82.9775 168.739 82.9357 168.777 82.8931 168.812C82.887 168.817 82.881 168.821 82.875 168.826C82.824 168.868 82.7723 168.907 82.721 168.948C82.6774 168.982 82.6343 169.017 82.5904 169.051C82.5847 169.055 82.5788 169.059 82.5731 169.063C82.5146 169.108 82.4552 169.15 82.3962 169.193C82.356 169.222 82.3164 169.252 82.2758 169.28C82.2717 169.283 82.2672 169.286 82.2631 169.289C82.1812 169.346 82.0985 169.401 82.0156 169.454C81.9926 169.469 81.9699 169.486 81.9468 169.501C81.9455 169.501 81.9441 169.502 81.9428 169.503C81.8371 169.57 81.731 169.635 81.624 169.697C81.6169 169.701 81.6096 169.705 81.6023 169.709C81.5813 169.721 81.5608 169.731 81.5398 169.743C81.447 169.795 81.3546 169.845 81.2627 169.892C81.2509 169.898 81.239 169.905 81.2273 169.911C81.2029 169.923 81.179 169.933 81.1546 169.945C81.0639 169.989 80.9738 170.031 80.8844 170.07C80.863 170.08 80.8413 170.091 80.82 170.1C80.7912 170.113 80.763 170.123 80.7343 170.135C80.7055 170.147 80.6766 170.158 80.6478 170.17C80.5717 170.2 80.4961 170.228 80.4211 170.254C80.4051 170.259 80.389 170.265 80.3731 170.271C80.3687 170.272 80.3643 170.274 80.3598 170.276C80.2966 170.297 80.2341 170.315 80.1714 170.333C80.1408 170.342 80.1096 170.353 80.0792 170.362C79.9828 170.388 79.8874 170.412 79.7929 170.432H79.7925C79.682 170.456 79.5733 170.475 79.4655 170.49C79.4321 170.495 79.3993 170.498 79.3662 170.502C79.2912 170.511 79.217 170.519 79.1435 170.523C79.1069 170.526 79.0706 170.528 79.0343 170.529C78.9619 170.532 78.8904 170.533 78.8196 170.532C78.7879 170.531 78.7559 170.531 78.7245 170.53C78.6251 170.526 78.527 170.519 78.431 170.507C78.4301 170.507 78.4291 170.507 78.4283 170.507C78.3315 170.494 78.2369 170.477 78.1435 170.457C78.1144 170.45 78.086 170.442 78.0572 170.435C77.9927 170.42 77.929 170.402 77.8664 170.382C77.8351 170.372 77.8041 170.362 77.7733 170.351C77.7117 170.33 77.6511 170.306 77.5916 170.28C77.5649 170.269 77.538 170.258 77.5118 170.246C77.4835 170.233 77.4559 170.219 77.428 170.205C77.4874 170.246 77.5483 170.284 77.6104 170.32C77.6871 170.364 77.7662 170.404 77.8467 170.441C77.873 170.453 77.8999 170.464 77.9267 170.475C77.9863 170.5 78.0469 170.524 78.1085 170.546C78.1288 170.553 78.1495 170.56 78.1702 170.567C78.1824 170.571 78.1946 170.575 78.2068 170.578C78.2676 170.598 78.3296 170.615 78.3923 170.63C78.3974 170.631 78.4025 170.633 78.4075 170.634C78.4337 170.64 78.4597 170.647 78.4862 170.653C78.564 170.669 78.643 170.683 78.7234 170.694C78.7396 170.697 78.7554 170.7 78.7717 170.702C78.866 170.714 78.9624 170.721 79.0598 170.725C79.0912 170.726 79.1232 170.726 79.1549 170.726C79.2258 170.728 79.2972 170.727 79.3697 170.724C79.3928 170.723 79.4163 170.722 79.4395 170.721C79.454 170.72 79.4682 170.719 79.4826 170.718C79.5549 170.713 79.6278 170.706 79.7013 170.697C79.7064 170.697 79.7115 170.696 79.7166 170.695C79.7462 170.692 79.7757 170.689 79.8056 170.684C79.9021 170.671 79.9999 170.653 80.0988 170.632C80.1085 170.63 80.118 170.629 80.1276 170.627C80.1292 170.627 80.131 170.626 80.1326 170.626C80.1842 170.615 80.2367 170.6 80.2888 170.587C80.3322 170.577 80.3753 170.567 80.4191 170.555C80.4481 170.547 80.4774 170.537 80.5066 170.528C80.534 170.52 80.5616 170.511 80.5891 170.503C80.6242 170.492 80.6589 170.482 80.694 170.47C80.7002 170.468 80.7064 170.466 80.7126 170.464C80.727 170.459 80.7417 170.454 80.7562 170.449C80.8028 170.432 80.85 170.414 80.897 170.397C80.9268 170.385 80.9565 170.375 80.9866 170.363C81.014 170.352 81.0417 170.341 81.0693 170.33C81.097 170.318 81.1251 170.306 81.1528 170.294C81.1726 170.285 81.1924 170.277 81.2123 170.268C81.2146 170.267 81.2172 170.266 81.2196 170.265C81.3089 170.226 81.3991 170.184 81.4896 170.14C81.5062 170.131 81.5229 170.123 81.5397 170.115C81.5466 170.112 81.5536 170.108 81.5608 170.105C81.5734 170.098 81.5858 170.093 81.5983 170.086C81.6899 170.04 81.7821 169.99 81.8749 169.937C81.8956 169.926 81.9161 169.915 81.9368 169.904C81.9443 169.899 81.9516 169.896 81.959 169.891C82.066 169.829 82.1723 169.765 82.2779 169.698C82.2791 169.697 82.2804 169.696 82.2815 169.695C82.3045 169.681 82.327 169.665 82.35 169.65C82.433 169.596 82.516 169.541 82.5981 169.484C82.6021 169.481 82.6062 169.478 82.6102 169.475C82.6501 169.447 82.6896 169.417 82.7294 169.389C82.7889 169.346 82.8488 169.303 82.9081 169.258C82.9137 169.254 82.919 169.249 82.9246 169.245C82.9683 169.212 83.0116 169.177 83.055 169.143C83.1067 169.102 83.1587 169.062 83.2098 169.021C83.2157 169.016 83.2214 169.011 83.2273 169.006C83.2701 168.971 83.3122 168.934 83.3547 168.898C83.4054 168.855 83.4563 168.813 83.5064 168.769C83.5124 168.764 83.5181 168.758 83.5241 168.753C83.5652 168.717 83.6057 168.679 83.6465 168.642C83.6968 168.596 83.7476 168.551 83.7975 168.504C83.8038 168.498 83.8098 168.492 83.816 168.486C83.8533 168.451 83.8899 168.415 83.9268 168.379C83.9799 168.328 84.0331 168.277 84.0856 168.224C84.0929 168.217 84.1002 168.209 84.1076 168.201C84.1419 168.167 84.1754 168.131 84.2094 168.096C84.2629 168.041 84.3168 167.985 84.3696 167.929C84.3789 167.919 84.3878 167.908 84.3972 167.898C84.4268 167.866 84.4561 167.834 84.4854 167.801C84.5417 167.739 84.5981 167.677 84.6534 167.614C84.6659 167.599 84.6781 167.584 84.6907 167.57C84.7155 167.541 84.7403 167.512 84.7648 167.483C84.8238 167.414 84.8823 167.344 84.9399 167.274C84.9571 167.253 84.9739 167.232 84.9908 167.211C85.0098 167.187 85.0288 167.164 85.0477 167.14C85.1108 167.061 85.1729 166.981 85.2344 166.9C85.2553 166.873 85.2762 166.846 85.2968 166.818C85.3079 166.803 85.3192 166.789 85.3303 166.774C85.4223 166.651 85.5128 166.526 85.6013 166.399C85.6054 166.393 85.6097 166.387 85.6138 166.381C85.6143 166.381 85.6151 166.38 85.6155 166.379C85.7177 166.232 85.8165 166.082 85.9136 165.931C85.9253 165.912 85.9368 165.894 85.9485 165.876C85.9593 165.858 85.9702 165.841 85.981 165.824C86.0967 165.641 86.209 165.455 86.3168 165.266C86.3223 165.257 86.3276 165.247 86.3331 165.237C86.3472 165.212 86.361 165.187 86.3749 165.162C86.4423 165.042 86.5079 164.921 86.5718 164.8C86.5935 164.758 86.6152 164.717 86.6366 164.676C86.7154 164.522 86.792 164.368 86.8651 164.212C86.8667 164.209 86.8681 164.206 86.8697 164.202C86.9068 164.123 86.9423 164.044 86.9778 163.964C86.9954 163.925 87.0139 163.886 87.0312 163.846C87.0851 163.722 87.1372 163.599 87.1873 163.474C87.1913 163.464 87.1947 163.455 87.1989 163.445C87.2448 163.33 87.2893 163.215 87.3318 163.1C87.3472 163.059 87.361 163.017 87.3759 162.976C87.4042 162.897 87.4328 162.818 87.4596 162.738C87.4607 162.735 87.4621 162.732 87.4632 162.728C87.5217 162.555 87.5749 162.382 87.6253 162.208C87.6374 162.167 87.6491 162.125 87.6607 162.084C87.7096 161.909 87.7557 161.734 87.7962 161.559C87.7965 161.558 87.7966 161.558 87.7966 161.557C87.825 161.435 87.851 161.313 87.8751 161.191C87.8822 161.155 87.8879 161.118 87.8947 161.082C87.9096 161.002 87.9242 160.923 87.9372 160.844C87.938 160.838 87.9391 160.833 87.9401 160.828C87.9672 160.661 87.989 160.494 88.0074 160.328C88.0095 160.31 88.0111 160.292 88.013 160.274C88.0158 160.248 88.0183 160.222 88.0209 160.195C88.0313 160.087 88.0399 159.979 88.0465 159.871C88.0483 159.842 88.0504 159.813 88.0519 159.784C88.0527 159.769 88.054 159.754 88.0548 159.739C88.0597 159.635 88.0621 159.531 88.0632 159.428C88.0635 159.401 88.0648 159.373 88.0648 159.346C88.0648 159.335 88.0654 159.324 88.0654 159.313C88.0659 159.192 88.0629 159.073 88.0573 158.956Z" fill="#627072"/>
<path d="M77.5217 158.607C77.5262 158.601 77.5309 158.595 77.5354 158.589C77.6422 158.435 77.7517 158.284 77.8629 158.135C77.8759 158.118 77.8883 158.099 77.9016 158.082C77.9266 158.048 77.9529 158.017 77.9781 157.983C78.0522 157.886 78.127 157.79 78.2027 157.695C78.2252 157.667 78.2466 157.638 78.2693 157.61C78.2899 157.584 78.3114 157.56 78.3322 157.535C78.4016 157.45 78.4721 157.366 78.5429 157.283C78.5723 157.248 78.6008 157.212 78.6304 157.178C78.6456 157.16 78.6615 157.144 78.6767 157.126C78.7434 157.05 78.8113 156.975 78.8789 156.9C78.9141 156.862 78.9483 156.822 78.9837 156.783C78.9949 156.771 79.0068 156.76 79.0181 156.747C79.0816 156.679 79.1461 156.613 79.2105 156.546C79.251 156.504 79.2908 156.461 79.3318 156.419C79.341 156.41 79.3504 156.401 79.3596 156.392C79.4223 156.329 79.4862 156.268 79.5499 156.206C79.5943 156.163 79.6379 156.119 79.6826 156.077C79.6903 156.069 79.6982 156.062 79.706 156.055C79.7654 155.999 79.826 155.945 79.886 155.891C79.9353 155.846 79.9838 155.8 80.0336 155.756C80.041 155.749 80.0488 155.743 80.0562 155.737C80.1163 155.684 80.1775 155.633 80.238 155.582C80.2889 155.539 80.3393 155.494 80.3906 155.452C80.3978 155.446 80.4052 155.441 80.4123 155.435C80.474 155.384 80.5364 155.337 80.5985 155.288C80.6507 155.247 80.702 155.204 80.7545 155.164C80.7613 155.159 80.7684 155.154 80.7752 155.149C80.8456 155.096 80.9168 155.045 80.9878 154.994C81.0361 154.959 81.084 154.922 81.1326 154.888C81.1377 154.885 81.1429 154.881 81.148 154.878C81.2466 154.809 81.3462 154.744 81.4459 154.679C81.4735 154.661 81.5006 154.642 81.5282 154.624C81.5298 154.623 81.5312 154.622 81.5328 154.621C81.6597 154.54 81.7876 154.462 81.9161 154.388C81.9248 154.383 81.9336 154.378 81.9421 154.373C81.967 154.359 81.9912 154.347 82.0161 154.333C82.1096 154.281 82.2031 154.228 82.2957 154.18C82.3141 154.171 82.332 154.163 82.3502 154.153C82.3643 154.146 82.3787 154.138 82.3928 154.131C82.4812 154.086 82.569 154.044 82.6565 154.004C82.6611 154.002 82.6657 153.999 82.6703 153.997C82.6835 153.991 82.6965 153.986 82.7096 153.98C82.7673 153.954 82.825 153.928 82.8822 153.903C82.9147 153.889 82.9467 153.877 82.979 153.864C82.9991 153.856 83.0198 153.846 83.0399 153.838C83.0564 153.831 83.0725 153.826 83.089 153.82C83.1744 153.786 83.2594 153.755 83.3437 153.725C83.3635 153.718 83.3836 153.71 83.4033 153.703C83.4086 153.702 83.4139 153.7 83.4193 153.698C83.4245 153.696 83.4299 153.694 83.4351 153.692C83.4995 153.671 83.5627 153.653 83.6264 153.634C83.6709 153.62 83.7161 153.605 83.7605 153.593C83.7644 153.591 83.7684 153.59 83.7724 153.589C83.8467 153.569 83.9197 153.552 83.9933 153.534C84.0323 153.525 84.0717 153.514 84.1104 153.505C84.1123 153.505 84.1143 153.504 84.1164 153.504C84.1167 153.504 84.1169 153.504 84.1172 153.504C84.1178 153.504 84.1186 153.503 84.1193 153.503C84.2177 153.482 84.315 153.465 84.4116 153.449C84.4258 153.447 84.4402 153.444 84.4543 153.442C84.4662 153.44 84.4777 153.439 84.4898 153.437C84.5847 153.423 84.6787 153.411 84.7717 153.402C84.7777 153.402 84.7839 153.401 84.7899 153.401C84.8037 153.4 84.8173 153.399 84.8311 153.398C84.9121 153.392 84.9925 153.387 85.0719 153.385C85.0869 153.384 85.1021 153.383 85.117 153.383C85.1249 153.383 85.1327 153.383 85.1405 153.383C85.2295 153.381 85.3175 153.383 85.4045 153.386C85.415 153.387 85.4254 153.387 85.4359 153.387C85.4503 153.388 85.4644 153.39 85.4788 153.39C85.5574 153.395 85.6351 153.402 85.7118 153.41C85.7219 153.412 85.7322 153.412 85.7424 153.414C85.7468 153.414 85.7512 153.414 85.7557 153.415C85.7557 153.415 85.756 153.415 85.7563 153.415C85.8405 153.426 85.9232 153.44 86.0053 153.456C86.0186 153.458 86.0321 153.46 86.0452 153.463C86.0571 153.465 86.0687 153.468 86.0806 153.471C86.1609 153.488 86.2405 153.507 86.3186 153.529C86.3241 153.53 86.3295 153.532 86.3351 153.534C86.3484 153.537 86.3615 153.542 86.3747 153.546C86.4411 153.566 86.5067 153.587 86.5714 153.61C86.5856 153.616 86.6002 153.62 86.6143 153.626C86.6224 153.629 86.6305 153.632 86.6386 153.635C86.7119 153.663 86.784 153.693 86.8552 153.726C86.8644 153.73 86.8734 153.734 86.8826 153.739C86.8961 153.745 86.9092 153.752 86.9227 153.758C86.9837 153.788 87.0438 153.819 87.1029 153.852C87.114 153.859 87.1254 153.865 87.1363 153.871C87.1416 153.874 87.1471 153.876 87.1523 153.879L86.8173 153.685C86.7425 153.641 86.6657 153.602 86.5878 153.564C86.5712 153.556 86.5546 153.547 86.5378 153.54C86.4611 153.504 86.3831 153.47 86.3037 153.44C86.2905 153.435 86.2769 153.43 86.2636 153.426C86.1902 153.398 86.1156 153.374 86.0397 153.351C86.0259 153.347 86.0123 153.342 85.9983 153.338C85.9153 153.315 85.8308 153.294 85.7452 153.276C85.7265 153.272 85.7077 153.268 85.6888 153.265C85.6007 153.247 85.5116 153.232 85.4208 153.22L85.4203 153.22C85.3295 153.209 85.2368 153.201 85.1433 153.195C85.1235 153.194 85.1036 153.193 85.0836 153.192C84.9918 153.188 84.8991 153.186 84.8051 153.188C84.7896 153.188 84.7739 153.189 84.7584 153.189C84.6717 153.191 84.5841 153.196 84.4956 153.203C84.4795 153.204 84.4635 153.205 84.4471 153.207C84.3506 153.215 84.2527 153.227 84.1541 153.242C84.1326 153.245 84.1109 153.248 84.0893 153.252C83.9884 153.268 83.8866 153.286 83.7838 153.308C83.7831 153.308 83.7823 153.309 83.7815 153.309L83.7809 153.309C83.6674 153.333 83.5525 153.362 83.4369 153.394C83.3993 153.405 83.3611 153.418 83.3234 153.429C83.2494 153.451 83.1754 153.473 83.1006 153.498C83.095 153.5 83.0895 153.501 83.0839 153.503C83.0644 153.51 83.0448 153.517 83.0251 153.524C82.9351 153.555 82.8446 153.589 82.7537 153.625C82.719 153.638 82.6843 153.652 82.6495 153.667C82.6164 153.68 82.5828 153.695 82.5496 153.71C82.4911 153.734 82.4329 153.758 82.3741 153.785C82.3575 153.793 82.3408 153.799 82.3242 153.807C82.2366 153.848 82.148 153.892 82.0594 153.937C82.0445 153.944 82.0297 153.951 82.0148 153.958C81.9046 154.015 81.7935 154.075 81.6817 154.138C81.6569 154.152 81.6321 154.164 81.6072 154.178C81.5982 154.184 81.5895 154.188 81.5806 154.193C81.4521 154.267 81.3244 154.345 81.1973 154.426C81.1958 154.427 81.1944 154.428 81.1928 154.429C81.1649 154.447 81.1374 154.466 81.1095 154.484C81.0101 154.549 80.9107 154.614 80.8123 154.683C80.8074 154.686 80.8027 154.69 80.7978 154.693C80.7494 154.727 80.7019 154.763 80.654 154.798C80.5824 154.849 80.5106 154.9 80.4396 154.954C80.4329 154.959 80.4264 154.965 80.4198 154.97C80.3673 155.01 80.3154 155.051 80.2632 155.093C80.2011 155.141 80.1387 155.189 80.0772 155.24C80.0702 155.245 80.0632 155.252 80.0561 155.257C80.0044 155.3 79.9534 155.344 79.902 155.387C79.8415 155.438 79.7807 155.489 79.7209 155.542C79.7136 155.548 79.7065 155.555 79.699 155.561C79.6493 155.605 79.6001 155.651 79.5507 155.696C79.4906 155.75 79.4301 155.804 79.3707 155.86C79.3631 155.867 79.3556 155.875 79.348 155.882C79.3032 155.924 79.259 155.968 79.2146 156.011C79.151 156.073 79.087 156.134 79.0242 156.197C79.0152 156.206 79.0065 156.216 78.9976 156.225C78.9566 156.266 78.916 156.309 78.8753 156.351C78.8109 156.418 78.7463 156.484 78.6829 156.552C78.6716 156.564 78.6607 156.577 78.6496 156.589C78.614 156.627 78.5789 156.666 78.5437 156.705C78.4759 156.78 78.4081 156.855 78.3415 156.931C78.3265 156.948 78.3116 156.966 78.2967 156.983C78.2669 157.018 78.2374 157.053 78.2079 157.087C78.1371 157.17 78.0667 157.254 77.9972 157.339C77.9766 157.364 77.9563 157.39 77.9358 157.415C77.913 157.444 77.8903 157.472 77.8677 157.5C77.7918 157.595 77.7171 157.691 77.6431 157.788C77.6179 157.821 77.5929 157.854 77.5679 157.887C77.5547 157.905 77.5411 157.922 77.5279 157.94C77.4167 158.089 77.3072 158.24 77.2003 158.393C77.1959 158.4 77.1913 158.406 77.1869 158.412C77.1862 158.413 77.1856 158.414 77.185 158.415C77.0622 158.592 76.9435 158.772 76.8268 158.954C76.8125 158.976 76.7988 158.998 76.7847 159.02C76.7571 159.063 76.7292 159.107 76.7021 159.15C76.6671 159.207 76.632 159.263 76.5975 159.319C76.5482 159.4 76.5002 159.482 76.4523 159.563C76.4197 159.618 76.3869 159.674 76.3549 159.73C76.3439 159.749 76.3333 159.768 76.3224 159.788C76.3054 159.818 76.2891 159.847 76.2723 159.877C76.1913 160.022 76.1126 160.167 76.0357 160.313C76.0097 160.363 75.9836 160.412 75.958 160.461C75.8633 160.646 75.7712 160.831 75.6832 161.019C75.6813 161.023 75.6796 161.027 75.6775 161.031C75.634 161.124 75.5921 161.218 75.5503 161.311C75.5283 161.361 75.5051 161.409 75.4836 161.459C75.4187 161.607 75.3562 161.756 75.2959 161.905C75.2944 161.909 75.2929 161.913 75.2913 161.917C75.2327 162.063 75.1763 162.209 75.1222 162.355C75.1042 162.404 75.0879 162.452 75.0704 162.501C75.0359 162.598 75.0012 162.694 74.9685 162.79C74.9665 162.796 74.9642 162.802 74.9623 162.808C74.9539 162.833 74.9463 162.857 74.9383 162.882C74.9004 162.997 74.8636 163.111 74.8286 163.226C74.815 163.271 74.8018 163.316 74.7885 163.36C74.759 163.46 74.7308 163.559 74.7035 163.659C74.6918 163.702 74.6798 163.745 74.6684 163.788C74.6341 163.918 74.6015 164.048 74.5712 164.178C74.569 164.187 74.5665 164.196 74.5643 164.206C74.5638 164.207 74.5636 164.209 74.5631 164.211C74.5292 164.358 74.4977 164.504 74.469 164.65C74.4606 164.693 74.4539 164.735 74.446 164.777C74.428 164.874 74.4102 164.971 74.3945 165.067C74.3929 165.077 74.391 165.086 74.3894 165.096C74.3847 165.126 74.3806 165.156 74.376 165.186C74.3595 165.293 74.3443 165.401 74.3307 165.509C74.3253 165.552 74.3202 165.594 74.3151 165.637C74.3107 165.675 74.3075 165.713 74.3034 165.752C74.3001 165.783 74.2969 165.815 74.2937 165.846C74.281 165.977 74.2709 166.106 74.263 166.236C74.2608 166.271 74.2584 166.306 74.2565 166.341C74.2555 166.359 74.2541 166.377 74.2533 166.395C74.2475 166.52 74.2446 166.644 74.2432 166.767C74.2427 166.801 74.2413 166.834 74.2413 166.867C74.2413 166.88 74.2405 166.893 74.2405 166.906C74.2408 167.052 74.2446 167.195 74.2513 167.335C74.2513 167.336 74.2514 167.337 74.2516 167.338C74.2524 167.354 74.2543 167.37 74.2551 167.387C74.2619 167.513 74.2706 167.638 74.2825 167.76C74.283 167.765 74.2839 167.77 74.2844 167.775C74.2893 167.825 74.2963 167.874 74.3021 167.923C74.3115 168.002 74.3202 168.082 74.3318 168.159C74.3329 168.167 74.3346 168.174 74.3357 168.182C74.3438 168.235 74.3538 168.286 74.363 168.339C74.3746 168.405 74.3853 168.472 74.3986 168.537C74.4004 168.545 74.4026 168.553 74.4043 168.562C74.4148 168.612 74.427 168.66 74.4384 168.71C74.453 168.773 74.4668 168.836 74.483 168.898C74.4853 168.907 74.4882 168.915 74.4904 168.924C74.5031 168.97 74.517 169.016 74.5305 169.062C74.5481 169.122 74.565 169.183 74.5842 169.241C74.5874 169.251 74.5909 169.259 74.594 169.269C74.6077 169.31 74.6226 169.349 74.637 169.389C74.6589 169.45 74.6803 169.512 74.7039 169.571C74.7081 169.582 74.7131 169.592 74.7175 169.603C74.7319 169.638 74.7475 169.673 74.7627 169.708C74.7883 169.767 74.814 169.827 74.8414 169.885C74.8476 169.898 74.8546 169.91 74.8611 169.923C74.8753 169.952 74.8901 169.981 74.9048 170.009C74.9359 170.07 74.9674 170.13 75.0005 170.188C75.01 170.205 75.0203 170.221 75.03 170.237C75.0428 170.259 75.0558 170.281 75.069 170.302C75.1069 170.364 75.1455 170.425 75.1858 170.484C75.2001 170.505 75.2146 170.525 75.2292 170.546C75.239 170.56 75.2485 170.574 75.2585 170.587C75.3078 170.655 75.3588 170.72 75.4113 170.784C75.4281 170.804 75.4443 170.825 75.4614 170.845C75.4687 170.854 75.4755 170.863 75.4829 170.871C75.4972 170.888 75.5121 170.904 75.5265 170.92C75.5745 170.973 75.6238 171.024 75.6742 171.074C75.6883 171.088 75.7023 171.103 75.7167 171.116C75.726 171.125 75.7362 171.133 75.7457 171.142C75.8018 171.195 75.8584 171.247 75.9172 171.295C75.9233 171.3 75.93 171.305 75.9362 171.31C75.9934 171.357 76.0523 171.401 76.1119 171.443C76.1149 171.446 76.1178 171.448 76.121 171.45C76.2088 171.513 76.2984 171.572 76.3912 171.626L76.7262 171.821C76.6874 171.798 76.6504 171.772 76.6126 171.748C76.5737 171.724 76.534 171.7 76.4961 171.674C76.4824 171.665 76.4695 171.655 76.456 171.645C76.4485 171.64 76.4403 171.635 76.4328 171.63C76.3932 171.601 76.3552 171.57 76.3168 171.54C76.2996 171.526 76.2818 171.514 76.2649 171.5C76.2607 171.496 76.2563 171.493 76.252 171.49C76.1912 171.44 76.1316 171.387 76.0736 171.333C76.0699 171.329 76.0663 171.325 76.0626 171.322C76.0572 171.317 76.0519 171.311 76.0465 171.306C76.0336 171.294 76.0216 171.281 76.0091 171.269C75.9634 171.224 75.9189 171.177 75.8753 171.13C75.8641 171.117 75.8523 171.106 75.8411 171.093C75.8333 171.084 75.8257 171.075 75.8178 171.066C75.8092 171.056 75.8002 171.047 75.7916 171.037C75.7758 171.019 75.7619 170.998 75.7462 170.979C75.7443 170.976 75.7425 170.974 75.7406 170.972C75.7102 170.935 75.6788 170.899 75.6493 170.86C75.63 170.835 75.6122 170.808 75.5934 170.782C75.5821 170.766 75.5695 170.753 75.5584 170.737C75.5465 170.72 75.536 170.701 75.5245 170.684C75.5072 170.659 75.4888 170.635 75.472 170.609C75.4484 170.573 75.4267 170.534 75.404 170.497C75.3899 170.474 75.3742 170.453 75.3604 170.429C75.353 170.417 75.3466 170.403 75.3394 170.39C75.3294 170.373 75.3189 170.356 75.3091 170.338C75.2848 170.295 75.263 170.249 75.2397 170.204C75.2245 170.174 75.2075 170.146 75.1928 170.116C75.1882 170.107 75.1842 170.096 75.1798 170.087C75.1737 170.074 75.1671 170.062 75.1611 170.049C75.1387 170.002 75.1188 169.952 75.0977 169.903C75.0821 169.867 75.065 169.833 75.0501 169.796C75.047 169.789 75.0444 169.78 75.0414 169.773C75.0373 169.762 75.0329 169.753 75.0287 169.742C75.0086 169.691 74.9907 169.637 74.9718 169.584C74.9573 169.543 74.9409 169.504 74.927 169.463C74.9249 169.456 74.9232 169.449 74.921 169.443C74.9181 169.434 74.915 169.426 74.9121 169.417C74.8953 169.365 74.8809 169.31 74.8652 169.257C74.8516 169.21 74.8364 169.166 74.8235 169.118C74.8218 169.112 74.8207 169.105 74.8189 169.099C74.8167 169.09 74.8143 169.082 74.8121 169.074C74.7978 169.019 74.7861 168.961 74.773 168.905C74.7614 168.855 74.7482 168.807 74.7376 168.756C74.7364 168.75 74.7354 168.743 74.7341 168.737C74.7325 168.729 74.7306 168.721 74.7291 168.713C74.7173 168.655 74.7081 168.594 74.6977 168.534C74.6885 168.481 74.6774 168.43 74.6693 168.376C74.6684 168.37 74.6679 168.364 74.6669 168.358C74.6658 168.35 74.6644 168.343 74.6633 168.336C74.6528 168.265 74.6454 168.191 74.6368 168.118C74.631 168.069 74.6232 168.021 74.6183 167.97C74.6178 167.966 74.6178 167.962 74.6173 167.957C74.6169 167.952 74.6161 167.947 74.6156 167.941C74.6067 167.849 74.6013 167.754 74.5953 167.66C74.5932 167.627 74.5899 167.595 74.5883 167.562C74.5879 167.552 74.5868 167.543 74.5861 167.533C74.5861 167.533 74.5861 167.532 74.5861 167.532C74.5861 167.531 74.5861 167.53 74.5861 167.53C74.5793 167.39 74.5758 167.247 74.5753 167.102C74.5753 167.089 74.5753 167.075 74.5753 167.062C74.5753 167.029 74.5777 166.996 74.578 166.963C74.5795 166.839 74.5823 166.715 74.5882 166.59C74.589 166.572 74.5887 166.554 74.5896 166.535C74.5913 166.501 74.5958 166.465 74.5978 166.431C74.6058 166.302 74.6161 166.172 74.6287 166.042C74.6318 166.01 74.6329 165.978 74.6363 165.946C74.6403 165.908 74.6457 165.87 74.65 165.832C74.6549 165.79 74.66 165.747 74.6654 165.704C74.679 165.597 74.6942 165.489 74.7107 165.381C74.7153 165.351 74.7192 165.321 74.7241 165.291C74.7257 165.281 74.727 165.272 74.7284 165.262C74.7441 165.166 74.7627 165.069 74.7807 164.973C74.7886 164.93 74.7953 164.888 74.8037 164.845C74.8325 164.699 74.8638 164.552 74.8978 164.406C74.8982 164.404 74.8986 164.402 74.8991 164.4C74.9013 164.391 74.9039 164.382 74.9059 164.372C74.9362 164.243 74.9688 164.113 75.0031 163.983C75.0145 163.94 75.0265 163.897 75.0384 163.854C75.0655 163.754 75.0939 163.655 75.1232 163.555C75.1363 163.511 75.1497 163.466 75.1633 163.421C75.1985 163.306 75.2351 163.191 75.2731 163.077C75.2812 163.052 75.2888 163.027 75.297 163.003C75.2991 162.997 75.3008 162.991 75.3029 162.985C75.3356 162.889 75.3709 162.792 75.4054 162.696C75.4229 162.647 75.4392 162.599 75.4571 162.55C75.5105 162.406 75.5665 162.262 75.6241 162.118C75.6265 162.112 75.6286 162.106 75.6309 162.101C75.6912 161.951 75.7538 161.802 75.8186 161.654C75.8401 161.605 75.8633 161.556 75.8853 161.507C75.9271 161.413 75.9685 161.319 76.0122 161.226C76.0141 161.222 76.0162 161.218 76.0183 161.214C76.1062 161.027 76.1983 160.842 76.2931 160.657C76.3186 160.607 76.3447 160.558 76.3707 160.509C76.4476 160.362 76.5263 160.217 76.6073 160.073C76.624 160.043 76.6393 160.012 76.6563 159.982C76.6672 159.963 76.679 159.944 76.6899 159.925C76.7219 159.869 76.7547 159.814 76.7872 159.758C76.8351 159.677 76.8832 159.595 76.9324 159.515C76.9667 159.458 77.0018 159.402 77.037 159.346C77.064 159.302 77.0905 159.258 77.1181 159.215C77.1322 159.192 77.1476 159.171 77.1617 159.149C77.2783 158.967 77.397 158.787 77.5198 158.61C77.5205 158.609 77.5211 158.608 77.5217 158.607Z" fill="#627072"/>
<path d="M87.1363 153.871C87.1254 153.864 87.114 153.859 87.1029 153.853C87.0308 153.812 86.9576 153.774 86.8826 153.739C86.8734 153.734 86.8644 153.73 86.8552 153.726C86.7762 153.69 86.6961 153.656 86.6143 153.626C86.6002 153.62 86.5856 153.616 86.5713 153.611C86.4937 153.583 86.4152 153.556 86.3351 153.534C86.3295 153.532 86.3241 153.53 86.3186 153.529C86.229 153.504 86.1378 153.482 86.0452 153.463C86.0321 153.46 86.0186 153.458 86.0053 153.456C85.9189 153.439 85.8314 153.425 85.7424 153.414C85.7322 153.413 85.7219 153.412 85.7118 153.411C85.621 153.4 85.529 153.392 85.4359 153.388C85.4256 153.387 85.4149 153.387 85.4045 153.386C85.3099 153.382 85.214 153.381 85.117 153.383C85.1021 153.383 85.0869 153.384 85.0718 153.385C84.9788 153.388 84.885 153.392 84.7898 153.401C84.7837 153.401 84.7775 153.402 84.7715 153.402C84.6669 153.412 84.5611 153.425 84.4541 153.442C84.44 153.444 84.4256 153.447 84.4115 153.449C84.3119 153.465 84.2118 153.483 84.1104 153.505C84.0717 153.514 84.0321 153.525 83.9933 153.534C83.9159 153.553 83.8387 153.571 83.7604 153.592C83.7161 153.605 83.6709 153.62 83.6264 153.634C83.5522 153.656 83.4782 153.678 83.4032 153.703C83.3836 153.71 83.3635 153.718 83.3437 153.725C83.2429 153.76 83.1419 153.797 83.0397 153.838C83.0196 153.846 82.9991 153.856 82.9788 153.864C82.8765 153.906 82.7738 153.949 82.6701 153.997C82.6655 153.999 82.6609 154.001 82.6563 154.004C82.5369 154.059 82.4166 154.117 82.2955 154.18C82.2028 154.228 82.1094 154.281 82.0159 154.333C81.9825 154.352 81.9495 154.369 81.9159 154.388C81.7874 154.462 81.6595 154.54 81.5326 154.621C81.5034 154.64 81.4747 154.66 81.4457 154.679C81.3461 154.744 81.2465 154.809 81.1478 154.878C81.0941 154.916 81.041 154.955 80.9876 154.994C80.9166 155.045 80.8454 155.096 80.7751 155.149C80.7156 155.194 80.6572 155.241 80.5984 155.288C80.5363 155.336 80.4738 155.384 80.4122 155.435C80.3535 155.483 80.296 155.533 80.2378 155.582C80.1771 155.633 80.1161 155.684 80.0561 155.737C79.9988 155.787 79.9426 155.839 79.886 155.891C79.826 155.945 79.7654 155.999 79.706 156.055C79.6535 156.105 79.6019 156.156 79.5499 156.206C79.4863 156.268 79.4225 156.329 79.3596 156.392C79.3093 156.443 79.26 156.495 79.2104 156.546C79.1461 156.613 79.0816 156.679 79.018 156.747C78.9713 156.797 78.9253 156.849 78.8789 156.9C78.8111 156.975 78.7434 157.05 78.6767 157.126C78.6317 157.178 78.5875 157.23 78.5429 157.282C78.4721 157.366 78.4017 157.449 78.3322 157.534C78.2887 157.588 78.2456 157.641 78.2027 157.695C78.1269 157.79 78.0521 157.886 77.9781 157.983C77.9396 158.034 77.9009 158.084 77.8629 158.135C77.7517 158.284 77.6422 158.435 77.5353 158.588C77.5303 158.596 77.525 158.603 77.5198 158.61C77.397 158.787 77.2783 158.967 77.1617 159.149C77.1197 159.214 77.078 159.28 77.0369 159.346C77.0018 159.402 76.9667 159.458 76.9323 159.515C76.8832 159.595 76.835 159.677 76.7872 159.758C76.7545 159.814 76.7217 159.869 76.6899 159.925C76.6618 159.974 76.6349 160.023 76.6073 160.072C76.5263 160.217 76.4476 160.362 76.3707 160.508C76.3447 160.558 76.3186 160.607 76.293 160.657C76.1983 160.841 76.1062 161.027 76.0183 161.214C75.9726 161.311 75.929 161.409 75.8854 161.507C75.8634 161.556 75.8403 161.605 75.8187 161.654C75.7539 161.802 75.6913 161.951 75.6311 162.1C75.6287 162.106 75.6267 162.112 75.6243 162.118C75.5666 162.262 75.5106 162.406 75.4572 162.55C75.4393 162.599 75.423 162.647 75.4056 162.696C75.3688 162.798 75.3319 162.9 75.2973 163.003C75.2891 163.027 75.2815 163.052 75.2734 163.076C75.2354 163.191 75.1988 163.306 75.1636 163.421C75.15 163.466 75.1368 163.51 75.1235 163.555C75.094 163.655 75.0658 163.754 75.0387 163.853C75.0268 163.897 75.0148 163.94 75.0034 163.983C74.9691 164.113 74.9366 164.243 74.9062 164.372C74.904 164.382 74.9015 164.391 74.8994 164.4C74.865 164.549 74.8332 164.697 74.804 164.845C74.7956 164.888 74.789 164.93 74.781 164.972C74.7612 165.078 74.7416 165.185 74.7245 165.29C74.7197 165.32 74.7157 165.35 74.711 165.38C74.6945 165.488 74.6793 165.596 74.6657 165.703C74.6603 165.746 74.6552 165.789 74.6503 165.832C74.6422 165.902 74.6357 165.971 74.629 166.041C74.6164 166.172 74.6061 166.301 74.5981 166.43C74.5948 166.484 74.5909 166.537 74.5885 166.59C74.5826 166.715 74.5798 166.839 74.5783 166.962C74.5779 167.009 74.5756 167.055 74.5756 167.101C74.5761 167.247 74.5798 167.389 74.5864 167.529C74.5864 167.53 74.5864 167.531 74.5864 167.531C74.5869 167.542 74.588 167.551 74.5886 167.561C74.5904 167.594 74.5935 167.626 74.5956 167.659C74.6016 167.754 74.607 167.849 74.6159 167.941C74.6164 167.946 74.6172 167.951 74.6176 167.957C74.6303 168.085 74.6455 168.212 74.6636 168.335C74.6647 168.343 74.6661 168.35 74.6672 168.357C74.6855 168.478 74.7059 168.597 74.7294 168.713C74.7309 168.721 74.7328 168.729 74.7344 168.736C74.758 168.851 74.7839 168.964 74.8124 169.074C74.8146 169.082 74.817 169.09 74.8192 169.098C74.8479 169.207 74.8788 169.313 74.9122 169.417C74.9151 169.425 74.9183 169.434 74.9211 169.442C74.9547 169.545 74.9905 169.645 75.0287 169.742C75.0327 169.752 75.0371 169.762 75.0414 169.772C75.0793 169.867 75.1189 169.96 75.1611 170.049C75.1671 170.062 75.1737 170.074 75.1798 170.087C75.221 170.173 75.2637 170.257 75.3089 170.338C75.3187 170.356 75.3292 170.372 75.3392 170.39C75.3821 170.464 75.4257 170.538 75.4718 170.609C75.4886 170.635 75.507 170.659 75.5243 170.684C75.5652 170.744 75.6061 170.804 75.6493 170.861C75.6788 170.899 75.71 170.935 75.7406 170.972C75.774 171.012 75.8064 171.054 75.8409 171.093C75.852 171.106 75.8637 171.117 75.8751 171.13C75.9308 171.19 75.9875 171.25 76.0463 171.306C76.0517 171.312 76.0569 171.317 76.0625 171.322C76.1281 171.384 76.1954 171.443 76.2647 171.5C76.2818 171.514 76.2994 171.526 76.3167 171.54C76.3753 171.586 76.4347 171.632 76.4959 171.674C76.5338 171.7 76.5735 171.723 76.6124 171.748C77.9601 172.602 79.8611 172.525 81.9635 171.312C86.024 168.967 89.3157 163.264 89.3025 158.599C89.2962 156.272 88.4683 154.636 87.1363 153.871ZM84.4864 167.801C84.457 167.833 84.4278 167.866 84.3982 167.898C84.3888 167.908 84.3799 167.919 84.3706 167.929C84.3178 167.985 84.2639 168.041 84.2104 168.096C84.1765 168.131 84.1428 168.167 84.1086 168.201C84.1012 168.209 84.094 168.216 84.0866 168.224C84.0341 168.277 83.9807 168.328 83.9278 168.379C83.8909 168.415 83.8543 168.451 83.817 168.486C83.8108 168.492 83.8047 168.498 83.7985 168.504C83.7487 168.551 83.698 168.596 83.6475 168.642C83.6067 168.679 83.5662 168.717 83.5251 168.753C83.5191 168.758 83.5132 168.764 83.5074 168.769C83.4571 168.813 83.4063 168.855 83.3557 168.898C83.3132 168.934 83.2711 168.971 83.2283 169.006C83.2224 169.01 83.2167 169.016 83.2109 169.02C83.1597 169.062 83.1077 169.102 83.056 169.143C83.0126 169.177 82.9693 169.212 82.9256 169.245C82.9201 169.249 82.9147 169.254 82.9091 169.258C82.85 169.303 82.7901 169.345 82.7303 169.388C82.6906 169.417 82.6511 169.447 82.6112 169.475C82.6072 169.478 82.6031 169.481 82.5991 169.484C82.5169 169.541 82.434 169.595 82.351 169.649C82.328 169.664 82.3055 169.68 82.2825 169.695C82.2812 169.696 82.28 169.696 82.2788 169.697C82.1731 169.765 82.067 169.829 81.96 169.891C81.8389 169.961 81.719 170.025 81.5995 170.086C81.5868 170.093 81.5744 170.098 81.5619 170.104C81.5549 170.108 81.548 170.111 81.5408 170.115C81.4334 170.168 81.3266 170.218 81.2207 170.265C81.2183 170.266 81.2158 170.267 81.2134 170.268C81.1378 170.301 81.0624 170.333 80.9877 170.363C80.9576 170.374 80.928 170.385 80.8982 170.396C80.8366 170.419 80.7748 170.443 80.7137 170.464C80.7076 170.466 80.7014 170.467 80.6952 170.469C80.66 170.481 80.6253 170.491 80.5903 170.502C80.5336 170.52 80.4765 170.539 80.4202 170.554C80.3765 170.567 80.3334 170.576 80.29 170.587C80.2378 170.6 80.1852 170.615 80.1337 170.626C80.1321 170.626 80.1304 170.626 80.1288 170.627C80.1191 170.629 80.1096 170.63 80.1 170.632C80.0011 170.653 79.9033 170.67 79.8068 170.684C79.7768 170.688 79.7474 170.691 79.7177 170.695C79.639 170.705 79.5608 170.712 79.4836 170.718C79.4692 170.719 79.4548 170.719 79.4405 170.72C79.2103 170.733 78.9868 170.728 78.7727 170.701C78.7564 170.699 78.7407 170.696 78.7244 170.694C78.6442 170.683 78.565 170.669 78.4872 170.652C78.4607 170.646 78.4347 170.64 78.4085 170.633C78.3406 170.617 78.2737 170.599 78.2078 170.578C78.1954 170.574 78.1833 170.57 78.1711 170.566C77.975 170.502 77.7876 170.42 77.6116 170.319C77.5494 170.283 77.4886 170.245 77.4292 170.205C76.4304 169.527 75.8178 168.213 75.8125 166.388C75.8016 162.506 78.5417 157.761 81.9201 155.81C83.5378 154.876 85.0119 154.752 86.1114 155.3C86.1832 155.335 86.2534 155.374 86.3221 155.416C86.3805 155.451 86.4382 155.488 86.4942 155.527C86.498 155.53 86.5018 155.533 86.5056 155.536C86.5268 155.551 86.5476 155.567 86.5685 155.583C86.5999 155.607 86.6317 155.629 86.6623 155.654C86.6943 155.68 86.7246 155.709 86.7556 155.736C86.8536 155.823 86.9473 155.917 87.0357 156.018C87.0406 156.024 87.0453 156.03 87.0501 156.036C87.0648 156.053 87.0793 156.071 87.0937 156.088C87.1357 156.139 87.1766 156.191 87.216 156.246C87.2255 156.259 87.2347 156.272 87.2441 156.285C87.2463 156.288 87.2483 156.291 87.2506 156.294C87.2935 156.356 87.335 156.419 87.3748 156.484C87.3805 156.493 87.3861 156.502 87.3916 156.512C87.4336 156.582 87.4737 156.654 87.5121 156.728C87.5152 156.734 87.5182 156.74 87.5212 156.746C87.5594 156.821 87.5959 156.899 87.6303 156.978C87.6328 156.984 87.6354 156.99 87.6379 156.996C87.6723 157.076 87.7046 157.159 87.7352 157.243C87.7373 157.249 87.7392 157.254 87.7411 157.26C87.7704 157.342 87.7976 157.426 87.8231 157.513C87.8262 157.523 87.8292 157.533 87.8322 157.543C87.8567 157.629 87.8794 157.716 87.9003 157.806C87.903 157.817 87.9056 157.828 87.9082 157.84C87.9285 157.93 87.9471 158.022 87.9636 158.116C87.9658 158.128 87.9678 158.14 87.9701 158.153C87.9872 158.254 88.0022 158.358 88.0147 158.464C88.0155 158.471 88.0165 158.478 88.0173 158.484C88.0477 158.748 88.0658 159.023 88.0666 159.313C88.0666 159.324 88.0659 159.335 88.0659 159.346C88.0659 159.373 88.0647 159.401 88.0643 159.428C88.0632 159.531 88.0609 159.635 88.0559 159.739C88.0552 159.754 88.0539 159.769 88.0531 159.784C88.0517 159.813 88.0496 159.842 88.0477 159.871C88.0411 159.979 88.0325 160.087 88.022 160.195C88.0195 160.222 88.0168 160.248 88.0141 160.274C88.0122 160.292 88.0106 160.31 88.0086 160.328C87.9902 160.494 87.9683 160.66 87.9412 160.828C87.9404 160.833 87.9393 160.838 87.9384 160.844C87.9254 160.923 87.9108 161.002 87.8959 161.082C87.8891 161.118 87.8834 161.154 87.8762 161.191C87.8523 161.312 87.8262 161.434 87.7978 161.557C87.7976 161.557 87.7975 161.558 87.7973 161.559C87.7569 161.734 87.7106 161.909 87.6618 162.084C87.6502 162.125 87.6385 162.167 87.6265 162.208C87.5761 162.382 87.5227 162.555 87.4644 162.728C87.4632 162.732 87.462 162.735 87.4607 162.738C87.4339 162.818 87.4054 162.897 87.377 162.976C87.3621 163.017 87.3484 163.059 87.333 163.1C87.2903 163.215 87.2458 163.33 87.2 163.445C87.1961 163.455 87.1924 163.465 87.1884 163.474C87.1384 163.599 87.0862 163.723 87.0324 163.846C87.0151 163.885 86.9965 163.925 86.9789 163.964C86.9433 164.044 86.9079 164.123 86.8709 164.202C86.8693 164.205 86.8678 164.209 86.8663 164.212C86.7932 164.368 86.7165 164.522 86.6377 164.676C86.6165 164.717 86.5946 164.758 86.5729 164.8C86.5091 164.921 86.4434 165.042 86.3761 165.162C86.3621 165.187 86.3484 165.212 86.3343 165.237C86.3287 165.247 86.3235 165.256 86.3179 165.266C86.2102 165.455 86.0978 165.641 85.9821 165.824C85.9714 165.841 85.9606 165.858 85.9496 165.875C85.9381 165.894 85.9265 165.912 85.9148 165.93C85.8178 166.082 85.7189 166.232 85.6167 166.379C85.6162 166.38 85.6154 166.38 85.6149 166.381C85.6108 166.387 85.6065 166.393 85.6024 166.399C85.514 166.526 85.4233 166.651 85.3314 166.774C85.3205 166.789 85.3091 166.803 85.298 166.818C85.2774 166.846 85.2565 166.873 85.2355 166.9C85.1741 166.981 85.1119 167.061 85.0489 167.14C85.03 167.164 85.011 167.187 84.992 167.211C84.975 167.232 84.9582 167.253 84.9411 167.274C84.8834 167.345 84.8249 167.414 84.766 167.483C84.7414 167.512 84.7167 167.541 84.6918 167.57C84.6793 167.584 84.6671 167.599 84.6546 167.613C84.5991 167.677 84.5428 167.739 84.4864 167.801Z" fill="#F2F2F2"/>
<path d="M107.899 111.674C107.935 114.622 105.904 115.861 103.36 114.445C100.818 113.028 98.7277 109.491 98.6913 106.545C98.6564 103.597 100.688 102.356 103.23 103.773C105.772 105.19 107.862 108.728 107.899 111.674Z" fill="#333333"/>
<path d="M105.565 110.855C105.566 111.002 105.56 111.142 105.542 111.272C105.522 111.432 105.488 111.581 105.441 111.715C105.191 112.456 104.569 112.806 103.783 112.65C103.65 112.625 103.512 112.584 103.371 112.528C103.259 112.484 103.143 112.43 103.026 112.367C102.289 111.967 101.62 111.256 101.143 110.438C101.138 110.433 101.135 110.427 101.13 110.419C101.051 110.281 100.977 110.14 100.907 109.998C100.905 109.99 100.901 109.983 100.897 109.975C100.599 109.345 100.42 108.676 100.412 108.055V108.025C100.412 107.736 100.46 107.443 100.558 107.177C100.764 106.627 101.194 106.202 101.894 106.223C101.986 106.226 102.078 106.234 102.168 106.25C103.054 106.399 103.839 107.109 104.384 107.803C104.419 107.847 104.454 107.891 104.485 107.934C104.523 107.985 104.558 108.034 104.593 108.083C105.156 108.882 105.553 109.877 105.565 110.855Z" fill="#1A1A1A"/>
<path d="M143.032 89.7518C143.025 89.6228 143.011 89.4884 142.991 89.3481C142.75 87.6276 141.907 85.9975 140.644 84.8049C139.633 83.8511 138.214 83.2094 136.925 83.9273C136.65 84.0806 114.469 96.9759 108.657 100.355C107.873 100.81 107.044 101.181 106.182 101.46C104.772 101.918 102.544 102.646 101.341 103.022C101.337 103.023 101.334 103.024 101.33 103.026L100.433 103.315C101.196 103.069 102.152 103.203 103.194 103.784C105.736 105.201 107.826 108.738 107.863 111.685C107.878 112.941 107.518 113.886 106.903 114.449C108.006 113.44 110.12 111.63 111.599 110.375C112.668 109.467 113.813 108.657 115.025 107.951C121.18 104.364 141.019 92.8037 141.03 92.7975C142.351 92.0289 143.117 91.2668 143.032 89.7518Z" fill="#4D4D4D"/>
<path d="M105.564 110.855C105.566 111.003 105.56 111.142 105.542 111.272C105.541 111.28 105.541 111.288 105.539 111.296C105.528 111.315 105.514 111.334 105.499 111.354C105.495 111.359 105.492 111.364 105.487 111.37C105.482 111.377 105.476 111.383 105.469 111.391C105.447 111.419 105.42 111.446 105.393 111.473C105.387 111.48 105.381 111.486 105.374 111.492C105.37 111.496 105.366 111.5 105.363 111.503C105.346 111.519 105.325 111.534 105.306 111.549C105.29 111.564 105.274 111.576 105.255 111.589C105.235 111.605 105.213 111.619 105.19 111.633C105.175 111.643 105.16 111.654 105.143 111.664C105.135 111.668 105.129 111.673 105.121 111.678L103.549 112.592L71.5016 131.216L68.5856 129.519L68.1736 129.28L68.5856 129.04L101.008 110.199L104.609 108.107C105.164 108.901 105.553 109.887 105.564 110.855Z" fill="#B3B3B3"/>
<path d="M64.3121 130.022C64.2675 129.996 64.2257 129.969 64.1867 129.941C64.1731 129.932 64.1617 129.921 64.1488 129.911C64.1247 129.893 64.0999 129.875 64.0781 129.856C64.0645 129.844 64.0533 129.831 64.0406 129.819C64.022 129.801 64.0027 129.784 63.9862 129.766C63.9739 129.752 63.9642 129.738 63.953 129.724C63.9387 129.707 63.9235 129.69 63.911 129.672C63.9108 129.672 63.9106 129.671 63.9103 129.671C63.9005 129.657 63.8932 129.642 63.8843 129.628C63.8736 129.611 63.8615 129.593 63.8523 129.575C63.8446 129.56 63.8393 129.545 63.8328 129.529C63.8254 129.512 63.8165 129.494 63.8106 129.476C63.8053 129.461 63.8026 129.445 63.7986 129.429C63.7942 129.411 63.7885 129.394 63.7856 129.376C63.7829 129.36 63.7829 129.344 63.7815 129.328C63.7799 129.311 63.7772 129.293 63.7772 129.275C63.7772 129.275 63.7772 129.274 63.7772 129.273L63.7663 133.149C63.7655 133.419 63.9438 133.69 64.3013 133.898L105.221 157.697L108.56 155.757L64.3121 130.022Z" fill="#999999"/>
<path d="M112.955 155.78L112.944 159.64V159.642C112.944 159.659 112.941 159.677 112.939 159.694C112.938 159.711 112.936 159.73 112.933 159.749V159.754C112.93 159.769 112.925 159.783 112.922 159.797C112.917 159.814 112.912 159.833 112.906 159.851C112.904 159.853 112.904 159.856 112.903 159.859C112.898 159.87 112.893 159.883 112.887 159.895C112.879 159.914 112.871 159.933 112.86 159.952C112.858 159.956 112.857 159.959 112.855 159.962C112.849 159.971 112.843 159.982 112.836 159.992C112.824 160.013 112.809 160.035 112.793 160.055C112.79 160.06 112.786 160.066 112.781 160.071C112.776 160.078 112.77 160.085 112.763 160.092C112.741 160.12 112.714 160.147 112.687 160.176C112.681 160.181 112.674 160.187 112.668 160.193L112.655 160.206C112.638 160.222 112.619 160.236 112.598 160.252C112.583 160.266 112.567 160.279 112.549 160.291C112.527 160.307 112.505 160.322 112.481 160.337C112.467 160.347 112.451 160.356 112.435 160.366C112.427 160.371 112.421 160.375 112.413 160.38L93.8173 171.188C93.7619 171.22 93.7048 171.249 93.6446 171.274C93.6288 171.282 93.6097 171.29 93.5923 171.296C93.5463 171.317 93.4988 171.334 93.4497 171.352C93.4386 171.355 93.4275 171.358 93.418 171.363C93.4101 171.364 93.4037 171.367 93.3974 171.369C93.3673 171.378 93.3356 171.388 93.3039 171.396C93.2801 171.402 93.2563 171.409 93.2326 171.415C93.1993 171.423 93.1644 171.429 93.1311 171.437C93.1121 171.44 93.0915 171.445 93.0725 171.448C93.0693 171.45 93.0662 171.45 93.0614 171.451C92.9933 171.462 92.9251 171.472 92.8554 171.48C92.8506 171.48 92.8443 171.48 92.8395 171.481C92.8237 171.483 92.8063 171.483 92.7904 171.485C92.7492 171.488 92.708 171.491 92.6668 171.493C92.6573 171.494 92.6478 171.494 92.6383 171.494C92.6208 171.494 92.605 171.496 92.5876 171.496H92.4877C92.4766 171.496 92.4639 171.496 92.4513 171.494H92.4053C92.3736 171.493 92.3435 171.491 92.3118 171.488C92.2991 171.488 92.2849 171.486 92.2722 171.485C92.2579 171.485 92.2421 171.483 92.2278 171.481C92.1977 171.478 92.1676 171.475 92.1375 171.472C92.1232 171.469 92.109 171.467 92.0947 171.466C92.082 171.464 92.0678 171.462 92.0551 171.459C92.0234 171.455 91.9917 171.45 91.96 171.443C91.9441 171.44 91.9283 171.437 91.914 171.434C91.9045 171.432 91.8934 171.429 91.8839 171.428C91.8459 171.42 91.8077 171.41 91.7698 171.401C91.754 171.396 91.7397 171.391 91.7239 171.388C91.7191 171.386 91.7128 171.385 91.708 171.383C91.6415 171.364 91.5749 171.342 91.5115 171.317C91.5083 171.315 91.5052 171.313 91.502 171.313C91.4972 171.31 91.4925 171.309 91.4862 171.306C91.4006 171.271 91.3166 171.233 91.2389 171.188L82.8571 166.348L80.919 165.23C80.9063 165.223 80.8936 165.215 80.8809 165.207C80.6797 165.082 80.5529 164.864 80.5513 164.626C80.5513 164.626 80.5513 164.624 80.5513 164.623C80.5481 163.669 80.9237 162.597 81.5148 161.691L85.3024 163.878L91.25 167.312C91.3277 167.356 91.4115 167.396 91.4972 167.431C91.5068 167.434 91.5147 167.439 91.5226 167.442C91.586 167.466 91.6525 167.488 91.7191 167.507C91.7239 167.508 91.7286 167.512 91.735 167.513C91.7492 167.518 91.7667 167.521 91.7809 167.524L91.895 167.553C91.9188 167.558 91.9441 167.562 91.9695 167.567C92.0028 167.573 92.0345 167.58 92.0662 167.585C92.0804 167.586 92.0931 167.589 92.1058 167.591C92.1201 167.592 92.1343 167.594 92.1486 167.596C92.1787 167.6 92.2088 167.604 92.2389 167.607C92.2468 167.607 92.2548 167.608 92.2627 167.608C92.269 167.61 92.2754 167.611 92.2833 167.611C92.296 167.611 92.3102 167.611 92.3229 167.613C92.3546 167.615 92.3847 167.616 92.4164 167.618C92.4307 167.618 92.4465 167.619 92.4624 167.621H92.4988C92.5321 167.621 92.5654 167.621 92.5987 167.619H92.6494C92.6589 167.619 92.6684 167.618 92.6779 167.618C92.7191 167.616 92.7603 167.613 92.8015 167.61C92.8174 167.608 92.8348 167.608 92.8506 167.607C92.8554 167.605 92.8601 167.605 92.8665 167.604C92.9362 167.597 93.0044 167.588 93.0725 167.575C93.0963 167.57 93.1185 167.566 93.1422 167.561C93.1755 167.554 93.2104 167.548 93.2421 167.54C93.2674 167.534 93.2912 167.528 93.315 167.52C93.3467 167.512 93.3768 167.504 93.4085 167.494C93.4148 167.491 93.4211 167.489 93.4291 167.488C93.4402 167.485 93.4497 167.48 93.4608 167.475C93.5099 167.459 93.5574 167.44 93.6034 167.421C93.6208 167.413 93.6383 167.407 93.6557 167.399C93.7159 167.372 93.773 167.344 93.8284 167.312L112.424 156.505C112.432 156.501 112.44 156.498 112.446 156.491C112.464 156.482 112.476 156.471 112.492 156.461C112.502 156.455 112.511 156.448 112.521 156.444C112.53 156.437 112.54 156.431 112.549 156.425C112.552 156.423 112.556 156.42 112.56 156.417C112.594 156.391 112.627 156.366 112.657 156.341C112.66 156.336 112.663 156.333 112.668 156.33C112.697 156.304 112.724 156.277 112.747 156.25C112.758 156.239 112.766 156.228 112.774 156.217C112.781 156.211 112.787 156.204 112.792 156.198C112.796 156.192 112.8 156.185 112.804 156.181C112.811 156.173 112.815 156.165 112.822 156.157C112.831 156.144 112.839 156.13 112.847 156.116C112.858 156.098 112.871 156.079 112.88 156.062C112.887 156.047 112.892 156.033 112.898 156.019C112.901 156.009 112.906 156 112.911 155.99C112.912 155.989 112.914 155.987 112.914 155.986C112.915 155.983 112.915 155.981 112.917 155.976C112.918 155.973 112.92 155.968 112.922 155.963C112.926 155.949 112.928 155.935 112.933 155.921C112.938 155.902 112.944 155.883 112.947 155.864C112.949 155.848 112.949 155.832 112.95 155.818C112.952 155.805 112.955 155.792 112.955 155.78Z" fill="#999999"/>
<path d="M112.951 155.818C112.95 155.832 112.95 155.848 112.948 155.864C112.945 155.883 112.938 155.902 112.934 155.921C112.929 155.935 112.927 155.95 112.923 155.964C112.921 155.969 112.919 155.974 112.918 155.977C112.918 155.978 112.916 155.98 112.916 155.981C112.915 155.985 112.913 155.988 112.912 155.991C112.907 156 112.902 156.01 112.899 156.019C112.892 156.034 112.888 156.048 112.881 156.062C112.872 156.08 112.859 156.099 112.848 156.116C112.84 156.13 112.832 156.145 112.823 156.157C112.818 156.162 112.815 156.168 112.81 156.173C112.81 156.176 112.807 156.178 112.805 156.181C112.796 156.194 112.786 156.205 112.775 156.218C112.767 156.229 112.759 156.24 112.748 156.251C112.725 156.278 112.698 156.305 112.669 156.33C112.664 156.333 112.661 156.336 112.658 156.341C112.628 156.367 112.595 156.392 112.561 156.417C112.557 156.42 112.553 156.424 112.55 156.425C112.541 156.432 112.531 156.438 112.522 156.444C112.498 156.462 112.473 156.477 112.447 156.492C112.441 156.498 112.433 156.501 112.425 156.506L93.8294 167.312C93.7739 167.344 93.7169 167.373 93.6566 167.4C93.6392 167.408 93.6218 167.414 93.6043 167.422C93.5584 167.441 93.5108 167.46 93.4617 167.476C93.4443 167.482 93.4269 167.488 93.4094 167.495C93.3777 167.504 93.3476 167.512 93.3159 167.52C93.2921 167.528 93.2684 167.534 93.243 167.541C93.2113 167.549 93.1765 167.555 93.1432 167.561C93.1194 167.566 93.0972 167.571 93.0735 167.576C93.0053 167.588 92.9372 167.598 92.8674 167.604C92.8452 167.607 92.8231 167.609 92.8025 167.61C92.7613 167.614 92.72 167.617 92.6788 167.618C92.6535 167.62 92.6265 167.62 92.5996 167.62C92.5663 167.622 92.5331 167.622 92.4998 167.622H92.4871C92.4633 167.62 92.4395 167.62 92.4174 167.618C92.3857 167.617 92.3556 167.615 92.3239 167.614C92.3064 167.612 92.2858 167.61 92.2668 167.609C92.2652 167.609 92.2652 167.609 92.2636 167.609C92.2557 167.609 92.2478 167.607 92.2399 167.607C92.2098 167.604 92.1796 167.601 92.1495 167.596C92.1226 167.593 92.0941 167.588 92.0671 167.585C92.0354 167.58 92.0037 167.574 91.9705 167.568C91.9451 167.563 91.9197 167.558 91.896 167.553C91.8579 167.544 91.8199 167.534 91.7819 167.525C91.7613 167.52 91.7407 167.514 91.7201 167.507C91.6535 167.488 91.5869 167.466 91.5236 167.442C91.5156 167.439 91.5077 167.435 91.4982 167.431C91.4126 167.396 91.3286 167.357 91.251 167.312L85.3034 163.878L81.5158 161.691C81.9785 160.978 82.576 160.366 83.2273 159.989C83.2281 159.989 83.2291 159.988 83.2299 159.988C83.3793 159.903 83.5636 159.906 83.714 159.99C83.7942 160.034 83.8647 160.073 83.8677 160.073L85.9135 161.256L91.8209 164.666C92.2575 164.918 92.7956 164.917 93.2314 164.664L105.221 157.696L107.943 156.116C107.95 156.113 107.956 156.108 107.961 156.105C107.962 156.105 107.962 156.103 107.964 156.102C108.217 155.935 108.21 155.555 107.943 155.398L64.3116 130.021C64.2672 129.996 64.226 129.969 64.1864 129.941C64.1737 129.931 64.161 129.922 64.1484 129.912C64.1246 129.893 64.0992 129.874 64.0786 129.855C64.0644 129.844 64.0533 129.831 64.0406 129.819C64.0216 129.801 64.0026 129.784 63.9867 129.765C63.974 129.752 63.9645 129.738 63.9534 129.724C63.9392 129.706 63.9233 129.69 63.9106 129.671C63.9011 129.657 63.8932 129.643 63.8837 129.628C63.8742 129.611 63.8615 129.594 63.852 129.575C63.8441 129.56 63.8393 129.544 63.833 129.529C63.8251 129.511 63.8171 129.494 63.8108 129.476C63.8061 129.46 63.8029 129.445 63.7981 129.429C63.7934 129.411 63.7886 129.394 63.7854 129.376C63.7823 129.361 63.7823 129.343 63.7823 129.327C63.7807 129.31 63.7775 129.292 63.7775 129.275C63.7775 129.006 63.955 128.738 64.3084 128.532L100.463 107.521L102.506 106.334C103.252 106.583 103.908 107.199 104.384 107.803C104.419 107.847 104.454 107.892 104.485 107.935C104.523 107.985 104.558 108.034 104.593 108.084C104.598 108.091 104.604 108.099 104.609 108.107L101.008 110.199L68.5857 129.04C68.4019 129.148 68.4019 129.413 68.5857 129.519L71.5017 131.216L112.422 155.016C112.802 155.237 112.978 155.53 112.951 155.818Z" fill="#F2F2F2"/>
<path d="M112.955 155.78L112.944 159.64V159.642C112.944 159.659 112.941 159.677 112.939 159.694C112.938 159.711 112.936 159.73 112.933 159.749V159.754C112.93 159.769 112.925 159.783 112.922 159.797C112.917 159.814 112.912 159.833 112.906 159.851C112.904 159.853 112.904 159.856 112.903 159.859C112.898 159.87 112.893 159.883 112.887 159.895C112.879 159.914 112.871 159.933 112.86 159.952C112.859 159.956 112.857 159.959 112.855 159.962C112.849 159.971 112.843 159.982 112.836 159.992C112.824 160.013 112.809 160.035 112.794 160.055C112.79 160.06 112.786 160.066 112.781 160.071C112.776 160.078 112.77 160.085 112.763 160.092C112.741 160.12 112.714 160.147 112.687 160.176C112.681 160.181 112.675 160.187 112.668 160.193L112.656 160.206C112.638 160.222 112.619 160.236 112.598 160.252C112.583 160.266 112.567 160.279 112.549 160.291C112.527 160.307 112.505 160.322 112.481 160.337C112.467 160.347 112.451 160.356 112.435 160.366C112.427 160.371 112.421 160.375 112.413 160.38L93.8175 171.188C93.762 171.22 93.7049 171.249 93.6447 171.274C93.6289 171.282 93.6098 171.29 93.5924 171.296C93.5465 171.317 93.4989 171.334 93.4498 171.352C93.4387 171.355 93.4276 171.358 93.4181 171.363C93.4102 171.364 93.4038 171.367 93.3975 171.369C93.3674 171.378 93.3357 171.388 93.304 171.396C93.2802 171.402 93.2564 171.409 93.2327 171.415C93.1994 171.423 93.1645 171.429 93.1313 171.437C93.1122 171.44 93.0916 171.445 93.0726 171.448C93.0694 171.45 93.0663 171.45 93.0615 171.451C92.9934 171.462 92.9252 171.472 92.8555 171.48C92.8507 171.48 92.8444 171.48 92.8397 171.481C92.8238 171.483 92.8064 171.483 92.7905 171.485C92.7493 171.488 92.7081 171.491 92.6669 171.493C92.6574 171.494 92.6479 171.494 92.6384 171.494C92.621 171.494 92.6051 171.496 92.5877 171.496H92.4989V167.621C92.5322 167.621 92.5655 167.621 92.5988 167.619H92.6495C92.659 167.619 92.6685 167.618 92.678 167.618C92.7192 167.616 92.7604 167.613 92.8016 167.61C92.8175 167.608 92.8349 167.608 92.8507 167.607C92.8555 167.605 92.8603 167.605 92.8666 167.604C92.9363 167.597 93.0045 167.588 93.0726 167.575C93.0964 167.57 93.1186 167.566 93.1423 167.561C93.1756 167.554 93.2105 167.548 93.2422 167.54C93.2675 167.534 93.2913 167.528 93.3151 167.52C93.3468 167.512 93.3769 167.504 93.4086 167.494C93.4149 167.491 93.4213 167.489 93.4292 167.488C93.4403 167.485 93.4498 167.48 93.4609 167.475C93.51 167.459 93.5575 167.44 93.6035 167.421C93.6209 167.413 93.6384 167.407 93.6558 167.399C93.716 167.372 93.7731 167.344 93.8285 167.312L112.424 156.505C112.432 156.501 112.44 156.498 112.446 156.491C112.464 156.482 112.476 156.471 112.492 156.461C112.502 156.455 112.511 156.448 112.521 156.444C112.53 156.437 112.54 156.431 112.549 156.425C112.553 156.423 112.556 156.42 112.56 156.417C112.594 156.391 112.627 156.366 112.657 156.341C112.66 156.336 112.663 156.333 112.668 156.33C112.697 156.304 112.724 156.277 112.747 156.25C112.759 156.239 112.766 156.228 112.774 156.217C112.781 156.211 112.787 156.204 112.792 156.198C112.797 156.192 112.8 156.185 112.804 156.181C112.811 156.173 112.816 156.165 112.822 156.157C112.831 156.144 112.839 156.13 112.847 156.116C112.858 156.098 112.871 156.079 112.881 156.062C112.887 156.047 112.892 156.033 112.898 156.019C112.901 156.009 112.906 156 112.911 155.99C112.912 155.989 112.914 155.987 112.914 155.986C112.915 155.983 112.915 155.981 112.917 155.976C112.919 155.973 112.92 155.968 112.922 155.963C112.927 155.949 112.928 155.935 112.933 155.921C112.938 155.902 112.944 155.883 112.947 155.864C112.949 155.848 112.949 155.832 112.95 155.818C112.952 155.805 112.955 155.792 112.955 155.78Z" fill="#B3B3B3"/>
</svg>
