<svg width="24" height="24" viewBox="0 0 24 24" fill="none" xmlns="http://www.w3.org/2000/svg">
<path d="M15.5003 14.5004H8.50027M11.5005 9.50042H8.50027M9.83027 20.8904C5.64627 20.6134 2.31427 17.2334 2.04027 12.9904C1.98727 12.1604 1.98727 11.3004 2.04027 10.4704C2.31427 6.22842 5.64627 2.85042 9.83027 2.57142C11.2754 2.47619 12.7252 2.47619 14.1703 2.57142C18.3543 2.84942 21.6863 6.22842 21.9603 10.4714C22.0132 11.3106 22.0132 12.1523 21.9603 12.9914C21.8603 14.5364 21.1773 15.9674 20.3723 17.1754C19.9053 18.0204 20.2133 19.0754 20.7003 19.9984C21.0503 20.6634 21.2263 20.9954 21.0853 21.2354C20.9453 21.4754 20.6303 21.4834 20.0013 21.4984C18.7563 21.5284 17.9173 21.1764 17.2513 20.6854C16.8743 20.4064 16.6853 20.2674 16.5553 20.2514C16.4253 20.2354 16.1683 20.3414 15.6563 20.5514C15.1963 20.7414 14.6613 20.8584 14.1713 20.8914C12.7463 20.9854 11.2573 20.9854 9.82927 20.8914" stroke="url(#paint0_linear_637_3062)" stroke-width="1.5" stroke-linecap="round" stroke-linejoin="round"/>
<defs>
<linearGradient id="paint0_linear_637_3062" x1="12.05" y1="8.40547" x2="1.77293" y2="8.71106" gradientUnits="userSpaceOnUse">
<stop stop-color="#1A1A1A"/>
<stop offset="1" stop-color="#353535"/>
</linearGradient>
</defs>
</svg>
