<svg width="240" height="185" viewBox="0 0 330 235" fill="none" xmlns="http://www.w3.org/2000/svg">
<path d="M329.641 202.646H0.357422V202.81H329.641V202.646Z" fill="#EBEBEB"/>
<path d="M296.647 213.246H274.834V213.411H296.647V213.246Z" fill="#EBEBEB"/>
<path d="M218.489 215.033H212.764V215.198H218.489V215.033Z" fill="#EBEBEB"/>
<path d="M274.176 207.131H261.537V207.296H274.176V207.131Z" fill="#EBEBEB"/>
<path d="M63.3498 208.237H34.9043V208.402H63.3498V208.237Z" fill="#EBEBEB"/>
<path d="M73.3856 208.237H69.2148V208.402H73.3856V208.237Z" fill="#EBEBEB"/>
<path d="M148.631 211.019H86.9395V211.183H148.631V211.019Z" fill="#EBEBEB"/>
<path d="M229.985 202.645H235.193L235.193 12.6846H229.985L229.985 202.645Z" fill="#EBEBEB"/>
<path d="M196.083 36.2775L260.17 33.5076L259.712 22.9033L195.625 25.6726L186.824 31.3653L196.083 36.2775Z" fill="#F0F0F0"/>
<path d="M191.352 69.4268L254.898 78.1825L256.347 67.6678L192.801 58.9121L183.123 62.936L191.352 69.4268Z" fill="#F0F0F0"/>
<path d="M225.867 89.1904L269.96 86.2031L279.336 90.8875L270.677 96.7929L226.835 99.763L225.867 89.1904Z" fill="#F5F5F5"/>
<path d="M282.427 44.9532L218.286 44.0635L218.139 54.6763L282.28 55.566L291.391 50.3851L282.427 44.9532Z" fill="#F5F5F5"/>
<path d="M66.2803 156.815H61.6328V202.645H66.2803V156.815Z" fill="#E6E6E6"/>
<path d="M116.273 156.815H111.625V202.645H116.273V156.815Z" fill="#E6E6E6"/>
<path d="M125.179 163.346H52.7284C51.3184 163.346 50.1758 162.203 50.1758 160.793V101.23C50.1758 99.8204 51.3184 98.6777 52.7284 98.6777H125.178C126.588 98.6777 127.731 99.8204 127.731 101.23V160.793C127.731 162.203 126.588 163.346 125.179 163.346Z" fill="#F0F0F0"/>
<path d="M123.724 160.944H54.1831C53.2973 160.944 52.5762 160.223 52.5762 159.338V102.684C52.5762 101.799 53.2973 101.078 54.1831 101.078H123.723C124.609 101.078 125.329 101.799 125.329 102.684V159.338C125.33 160.223 124.61 160.944 123.724 160.944ZM54.1831 101.764C53.6753 101.764 53.2624 102.177 53.2624 102.684V159.338C53.2624 159.845 53.6753 160.258 54.1831 160.258H123.723C124.231 160.258 124.643 159.845 124.643 159.338V102.684C124.643 102.177 124.23 101.764 123.723 101.764H54.1831Z" fill="#FAFAFA"/>
<path d="M67.0095 107.628L63.8287 103.579L60.6484 107.628H62.1836V115.733H65.4744V107.628H67.0095Z" fill="#FAFAFA"/>
<path d="M65.8569 126.653L69.9058 123.472L65.8569 120.292V121.827H57.752V125.118H65.8569V126.653Z" fill="#FAFAFA"/>
<path d="M61.8008 134.107L57.752 137.288L61.8008 140.469V138.933H69.9058V135.643H61.8008V134.107Z" fill="#FAFAFA"/>
<path d="M60.6484 153.131L63.8287 157.18L67.0095 153.131H65.4744V145.026H62.1829V153.131H60.6484Z" fill="#FAFAFA"/>
<path d="M120.157 107.136H74.5332V108.705H120.157V107.136Z" fill="#FAFAFA"/>
<path d="M110.741 110.607H74.5332V112.177H110.741V110.607Z" fill="#FAFAFA"/>
<path d="M120.157 120.951H74.5332V122.521H120.157V120.951Z" fill="#FAFAFA"/>
<path d="M110.741 124.423H74.5332V125.992H110.741V124.423Z" fill="#FAFAFA"/>
<path d="M120.157 134.767H74.5332V136.336H120.157V134.767Z" fill="#FAFAFA"/>
<path d="M110.741 138.238H74.5332V139.808H110.741V138.238Z" fill="#FAFAFA"/>
<path d="M120.157 148.583H74.5332V150.152H120.157V148.583Z" fill="#FAFAFA"/>
<path d="M110.741 152.055H74.5332V153.624H110.741V152.055Z" fill="#FAFAFA"/>
<path d="M95.7013 33.7687C95.7013 28.4323 92.6402 26.6627 90.2832 26.3433C86.4207 25.8198 83.6613 28.7596 83.6613 28.7596C83.6613 28.7596 81.5618 21.6807 73.9731 21.6807C66.3845 21.6807 64.0492 29.4129 64.0492 29.4129C64.0492 29.4129 61.0981 27.0691 56.8484 27.7797C53.869 28.2775 52.0955 30.4739 50.1758 33.7693L95.7013 33.7687Z" fill="#F0F0F0"/>
<path d="M182.346 15.6637C182.346 8.77315 178.394 6.48792 175.35 6.075C170.362 5.39865 166.799 9.19463 166.799 9.19463C166.799 9.19463 164.087 0.0537109 154.289 0.0537109C144.49 0.0537109 141.475 10.0383 141.475 10.0383C141.475 10.0383 137.664 7.01214 132.177 7.92887C128.329 8.57163 126.039 11.4081 123.561 15.6631L182.346 15.6637Z" fill="#F0F0F0"/>
<path d="M100.75 61.5099C100.75 61.5099 102.441 57.3267 106.627 56.8697C110.814 56.412 112.826 59.1898 112.826 59.1898C112.826 59.1898 116.104 53.3562 122.487 54.19C129.492 55.1047 129.09 61.5099 129.09 61.5099H100.75Z" fill="#F0F0F0"/>
<path d="M164.998 235C220.073 235 264.72 231.661 264.72 227.543C264.72 223.425 220.073 220.086 164.998 220.086C109.923 220.086 65.2754 223.425 65.2754 227.543C65.2754 231.661 109.923 235 164.998 235Z" fill="#F5F5F5"/>
<path d="M143.027 43.9963C135.468 37.0945 119.248 25.8369 95.5662 27.9951C68.6684 30.4443 47.2695 50.2632 41.0493 78.4855C35.3191 104.486 43.0692 140.209 80.977 164.708L77.8903 169.732L93.0011 169.388L86.4793 155.752L83.7357 160.218C48.1777 137.166 40.857 103.836 46.1941 79.6195C51.9104 53.6832 71.4778 35.479 96.0437 33.2419C117.712 31.2668 132.557 41.5701 139.474 47.8871C147.889 55.57 153.326 65.4182 153.326 72.9752H158.594C158.595 63.8679 152.63 52.7631 143.027 43.9963Z" fill="#407BFF"/>
<path opacity="0.7" d="M143.027 43.9963C135.468 37.0945 119.248 25.8369 95.5662 27.9951C68.6684 30.4443 47.2695 50.2632 41.0493 78.4855C35.3191 104.486 43.0692 140.209 80.977 164.708L77.8903 169.732L93.0011 169.388L86.4793 155.752L83.7357 160.218C48.1777 137.166 40.857 103.836 46.1941 79.6195C51.9104 53.6832 71.4778 35.479 96.0437 33.2419C117.712 31.2668 132.557 41.5701 139.474 47.8871C147.889 55.57 153.326 65.4182 153.326 72.9752H158.594C158.595 63.8679 152.63 52.7631 143.027 43.9963Z" fill="white"/>
<path d="M265.544 121.917C262.705 142.787 249.679 161.978 230.416 170.829C221.209 175.057 210.896 177.244 200.523 177.244C196.658 177.244 192.785 176.941 188.965 176.328C173.957 173.918 161.003 166.772 152.487 156.202C133.382 132.474 140.521 100.402 153.574 78.2939L158.112 80.9742C145.954 101.561 139.171 131.262 156.59 152.896C174.174 174.728 206.622 175.959 228.216 166.041C245.405 158.139 257.16 141.227 260.137 122.662C260.736 118.914 260.98 115.101 260.835 111.275C260.684 106.974 260.032 102.661 258.859 98.4263C256.251 89.0153 247.795 80.6515 238.141 82.9433C230.936 84.6622 226.096 91.7945 227.116 99.1902C228.005 105.618 233.478 110.36 238.299 112.658L236.033 117.419C228.183 113.672 222.895 107.133 221.9 99.9081C220.511 89.8583 227.11 80.1576 236.922 77.8197C249.666 74.7837 260.664 85.2022 263.937 97.0169C265.004 100.856 265.669 104.762 265.959 108.667C266.295 113.106 266.143 117.551 265.544 121.917Z" fill="#263238"/>
<g opacity="0.8">
<path d="M265.544 121.917C262.705 142.787 249.679 161.978 230.416 170.829C221.209 175.057 210.896 177.244 200.523 177.244C196.658 177.244 192.785 176.941 188.965 176.328C173.957 173.918 161.003 166.772 152.487 156.202C133.382 132.474 140.521 100.402 153.574 78.2939L158.112 80.9742C145.954 101.561 139.171 131.262 156.59 152.896C174.174 174.728 206.622 175.959 228.216 166.041C245.405 158.139 257.16 141.227 260.137 122.662C260.736 118.914 260.98 115.101 260.835 111.275C260.684 106.974 260.032 102.661 258.859 98.4263C256.251 89.0153 247.795 80.6515 238.141 82.9433C230.936 84.6622 226.096 91.7945 227.116 99.1902C228.005 105.618 233.478 110.36 238.299 112.658L236.033 117.419C228.183 113.672 222.895 107.133 221.9 99.9081C220.511 89.8583 227.11 80.1576 236.922 77.8197C249.666 74.7837 260.664 85.2022 263.937 97.0169C265.004 100.856 265.669 104.762 265.959 108.667C266.295 113.106 266.143 117.551 265.544 121.917Z" fill="white"/>
</g>
<path opacity="0.2" d="M265.544 121.917C263.594 122.339 261.757 122.563 260.137 122.662C260.736 118.914 260.98 115.101 260.835 111.275C262.804 110.439 264.51 109.536 265.958 108.667C266.294 113.106 266.143 117.551 265.544 121.917Z" fill="black"/>
<path d="M281.636 104.741L266.53 104.231L269.375 108.978C262.824 112.545 249.654 118.07 238.301 112.66C233.476 110.362 228.005 105.617 227.118 99.1904L221.898 99.9109C222.896 107.131 228.181 113.674 236.035 117.416C240.22 119.41 244.553 120.184 248.759 120.184C258.218 120.184 267.027 116.272 272.085 113.498L274.965 118.304L281.636 104.741Z" fill="#263238"/>
<path opacity="0.8" d="M281.636 104.741L266.53 104.231L269.375 108.978C262.824 112.545 249.654 118.07 238.301 112.66C233.476 110.362 228.005 105.617 227.118 99.1904L221.898 99.9109C222.896 107.131 228.181 113.674 236.035 117.416C240.22 119.41 244.553 120.184 248.759 120.184C258.218 120.184 267.027 116.272 272.085 113.498L274.965 118.304L281.636 104.741Z" fill="white"/>
<path d="M269.498 31.5744L260.627 19.3369L253.115 32.453L258.701 32.1533C259.139 42.0075 246.177 45.2423 243.483 45.8048C239.017 46.7379 234.387 47.17 229.486 47.6277C218.606 48.6425 207.355 49.6923 197.991 56.5934C190.738 61.9384 185.78 70.7427 185.052 79.5708C184.323 88.4213 188.207 96.9702 194.949 101.351C198.042 103.361 201.504 104.382 204.929 104.382C207.43 104.382 209.912 103.838 212.216 102.735C217.61 100.156 221.213 94.9003 221.853 88.6749C222.577 81.6315 219.142 73.7517 213.103 68.6004L209.684 72.6091C214.372 76.6073 217.157 82.8472 216.613 88.1362C216.155 92.5855 213.724 96.1747 209.944 97.9824C206.096 99.8225 201.677 99.4392 197.82 96.9333C192.76 93.6458 189.739 86.8421 190.303 80.0035C190.91 72.648 195.053 65.303 201.117 60.8346C209.303 54.8021 219.345 53.865 229.976 52.8732C234.808 52.4227 239.804 51.9558 244.562 50.962C254.062 48.9764 264.511 42.8102 263.964 31.8708L269.498 31.5744Z" fill="#407BFF"/>
<path opacity="0.5" d="M263.96 31.8731C264.507 42.8119 254.062 48.9761 244.559 50.965C239.804 51.9594 234.805 52.4204 229.972 52.8748C219.375 53.8627 209.365 54.7979 201.192 60.7777C201.166 60.7974 201.139 60.8172 201.113 60.8369C197.978 63.1485 195.357 66.224 193.474 69.6749C191.709 72.8953 190.589 76.445 190.299 80.0013C189.74 86.8438 192.756 93.6468 197.82 96.933C201.673 99.4422 206.092 99.8241 209.944 97.9801C213.725 96.1757 216.155 92.5865 216.609 88.1346C217.017 84.1568 215.549 79.6522 212.796 75.9576C214.877 75.1081 216.57 73.8502 216.425 72.026C220.363 76.8994 222.431 83.057 221.851 88.6746C221.213 94.8981 217.61 100.153 212.217 102.735C209.912 103.835 207.429 104.381 204.926 104.381C201.502 104.381 198.044 103.361 194.949 101.352C188.205 96.9725 184.32 88.4177 185.051 79.5732C185.36 75.8128 186.434 72.0589 188.133 68.5751C189.871 64.9859 192.268 61.6865 195.16 58.9666C196.055 58.117 197.004 57.3202 197.991 56.5957C207.356 49.694 218.605 48.6403 229.484 47.6261C234.384 47.1716 239.014 46.737 243.485 45.8018C246.179 45.242 259.139 42.0085 258.698 32.1497L253.114 32.4527L260.628 19.334L269.499 31.5768L263.96 31.8731Z" fill="white"/>
<path opacity="0.2" d="M201.192 60.7779C201.166 60.7976 201.14 60.8174 201.113 60.8371C197.978 63.1487 195.357 66.2242 193.474 69.6751C191.867 69.1812 190.089 68.7926 188.133 68.5753C189.871 64.9861 192.269 61.6867 195.16 58.9668C196.971 59.3817 199.012 59.9678 201.192 60.7779Z" fill="black"/>
<path d="M221.852 88.6753L216.611 88.1366C217.155 82.8476 214.371 76.6083 209.683 72.6095C196.526 61.3882 172.923 64.8509 159.967 74.979L156.723 70.8281C171.587 59.2077 197.788 55.5407 213.101 68.6008C219.142 73.7528 222.577 81.6325 221.852 88.6753Z" fill="#407BFF"/>
<g opacity="0.5">
<path d="M221.852 88.6753L216.611 88.1366C217.155 82.8476 214.371 76.6083 209.683 72.6095C196.526 61.3882 172.923 64.8509 159.967 74.979L156.723 70.8281C171.587 59.2077 197.788 55.5407 213.101 68.6008C219.142 73.7528 222.577 81.6325 221.852 88.6753Z" fill="white"/>
</g>
<path d="M181.776 209.326C157.155 209.326 132.567 198.738 116.617 180.287C103.895 165.57 96.6708 145.553 96.7985 125.367C96.8453 117.898 97.8825 110.575 99.882 103.601C102.128 95.7686 105.75 90.8505 110.499 85.8743C121.023 74.8466 136.348 69.443 151.491 71.4201L150.81 76.6445C137.325 74.8854 123.68 79.695 114.311 89.5122C109.196 94.871 106.658 99.0832 104.947 105.054C103.08 111.566 102.111 118.412 102.067 125.4C101.948 144.328 108.703 163.078 120.602 176.841C139.507 198.71 171.37 208.797 199.887 201.94C214.253 198.487 227.074 191.069 235.986 181.055C245.667 170.178 250.788 156.205 250.039 142.717C249.04 124.746 236.888 107.301 219.801 99.3078C203.433 91.6493 182.751 92.4053 165.826 101.28C163.638 102.427 161.437 103.739 159.308 105.007C154.483 107.881 149.494 110.854 143.861 112.465L142.412 107.4C147.386 105.977 151.867 103.307 156.612 100.481C158.801 99.1767 161.066 97.828 163.38 96.6136C181.732 86.9906 204.207 86.1944 222.034 94.5351C240.827 103.327 254.196 122.573 255.299 142.425C256.126 157.291 250.521 172.649 239.922 184.557C230.302 195.368 216.521 203.36 201.119 207.063C194.774 208.589 188.273 209.326 181.776 209.326Z" fill="#263238"/>
<g opacity="0.5">
<path d="M239.925 184.557C230.303 195.371 216.52 203.359 201.116 207.06C194.774 208.588 188.274 209.326 181.773 209.326C157.156 209.326 132.565 198.736 116.615 180.283C103.898 165.571 96.6733 145.55 96.7985 125.365C96.8446 118.384 97.7534 111.529 99.5052 104.963C99.6237 104.508 99.7489 104.054 99.8806 103.599C101.138 99.2068 102.831 95.7295 104.912 92.6474C106.545 90.2305 108.409 88.0572 110.497 85.8708C121.021 74.8463 136.345 69.4395 151.493 71.4218L150.808 76.6442C137.327 74.8858 123.681 79.6934 114.31 89.5126C111.992 91.9428 110.207 94.1358 108.784 96.3617C107.066 99.0487 105.88 101.788 104.945 105.055C104.53 106.51 104.155 107.979 103.832 109.467C102.693 114.63 102.1 119.971 102.067 125.398C101.948 144.325 108.705 163.075 120.606 176.839C139.507 198.71 171.368 208.799 199.884 201.937C214.254 198.486 227.076 191.07 235.987 181.054C245.668 170.181 250.791 156.206 250.041 142.718C249.04 124.746 236.889 107.301 219.799 99.3055C203.434 91.6464 182.755 92.4038 165.83 101.281C163.637 102.427 161.437 103.738 159.31 105.009C154.482 107.88 149.497 110.857 143.86 112.464L142.411 107.399C147.39 105.977 151.868 103.31 156.61 100.478C158.803 99.1738 161.068 97.8304 163.38 96.612C181.734 86.9903 204.204 86.1935 222.032 94.5375C240.827 103.329 254.196 122.573 255.303 142.422C256.126 157.292 250.521 172.65 239.925 184.557Z" fill="white"/>
</g>
<path opacity="0.2" d="M108.785 96.3618C107.066 99.0487 105.881 101.788 104.946 105.055C104.531 106.51 104.155 107.979 103.833 109.467C102.384 108.117 100.909 106.609 99.5059 104.963C99.6244 104.508 99.7495 104.054 99.8812 103.599C101.139 99.2068 102.832 95.7296 104.913 92.6475C106.045 93.8461 107.349 95.1237 108.785 96.3618Z" fill="black"/>
<path d="M163.381 96.6136C161.065 97.8273 158.802 99.1761 156.612 100.481C151.868 103.307 147.387 105.977 142.412 107.4C132.18 110.326 119.664 107.363 109.75 99.668C101.585 93.3306 94.6913 83.9065 88.6746 70.857C85.9033 64.8469 83.4884 58.522 81.1531 52.4052C79.78 48.8094 78.3601 45.0912 76.8757 41.4539C73.5308 33.26 68.2583 27.7135 61.7451 25.3763L64.193 20.3652L49.1855 22.1638L56.9909 35.1073L59.4157 30.1443C66.4842 32.4032 70.2762 39.2253 71.9977 43.4441C73.4597 47.0254 74.8684 50.7153 76.2316 54.2841C78.5978 60.4819 81.0457 66.8911 83.8908 73.0625C90.2696 86.8977 97.6719 96.962 106.52 103.83C114.911 110.343 124.698 113.809 134.069 113.809C137.414 113.809 140.706 113.367 143.862 112.465C149.495 110.854 154.484 107.881 159.309 105.007C161.437 103.739 163.639 102.427 165.827 101.28L163.381 96.6136Z" fill="#263238"/>
<path opacity="0.5" d="M163.381 96.6136C161.065 97.8273 158.802 99.1761 156.612 100.481C151.868 103.307 147.387 105.977 142.412 107.4C132.18 110.326 119.664 107.363 109.75 99.668C101.585 93.3306 94.6913 83.9065 88.6746 70.857C85.9033 64.8469 83.4884 58.522 81.1531 52.4052C79.78 48.8094 78.3601 45.0912 76.8757 41.4539C73.5308 33.26 68.2583 27.7135 61.7451 25.3763L64.193 20.3652L49.1855 22.1638L56.9909 35.1073L59.4157 30.1443C66.4842 32.4032 70.2762 39.2253 71.9977 43.4441C73.4597 47.0254 74.8684 50.7153 76.2316 54.2841C78.5978 60.4819 81.0457 66.8911 83.8908 73.0625C90.2696 86.8977 97.6719 96.962 106.52 103.83C114.911 110.343 124.698 113.809 134.069 113.809C137.414 113.809 140.706 113.367 143.862 112.465C149.495 110.854 154.484 107.881 159.309 105.007C161.437 103.739 163.639 102.427 165.827 101.28L163.381 96.6136Z" fill="white"/>
<path d="M165.68 76.9297C166.901 71.7575 163.698 66.5745 158.526 65.3532C153.354 64.1319 148.171 67.3348 146.95 72.507C145.728 77.6792 148.931 82.8621 154.103 84.0834C159.276 85.3047 164.459 82.1019 165.68 76.9297Z" fill="#407BFF"/>
<path opacity="0.5" d="M165.68 76.9297C166.901 71.7575 163.698 66.5745 158.526 65.3532C153.354 64.1319 148.171 67.3348 146.95 72.507C145.728 77.6792 148.931 82.8621 154.103 84.0834C159.276 85.3047 164.459 82.1019 165.68 76.9297Z" fill="white"/>
<path d="M260.849 193.847C256.002 194.189 250.944 194.439 245.867 194.439C224.285 194.439 202.059 190.033 191.508 170.421C187.603 163.157 185.357 154.728 184.916 146.199C184.705 142.221 184.89 138.224 185.476 134.312C185.726 132.652 186.049 131.013 186.444 129.393C187.774 123.946 190.284 119.422 193.701 116.307C197.212 113.1 201.92 111.559 206.945 111.967C212.326 112.401 217.476 115.108 220.709 119.198L216.58 122.471C214.229 119.501 210.469 117.538 206.524 117.216C202.961 116.932 199.675 117.986 197.251 120.199C194.61 122.603 192.641 126.218 191.561 130.65C191.094 132.56 190.738 134.503 190.501 136.472C190.014 140.377 189.967 144.362 190.343 148.293C191.001 155.228 192.964 162.005 196.151 167.925C207.755 189.493 236.62 190.303 260.474 188.591L260.849 193.847Z" fill="#407BFF"/>
<path d="M152.746 68.6335L147.721 70.2075C146.805 67.29 144.836 65.2221 141.866 64.0828C136.354 61.9556 129.024 63.4637 124.625 66.0519C120.002 68.7652 116.742 73.204 115.313 78.3342C114.542 81.0936 114.305 84.0572 114.68 87.0602C114.799 87.9954 114.977 88.924 115.214 89.8591C115.958 92.849 117.229 95.8587 118.566 99.0001C121.754 106.521 125.369 115.043 120.706 124.032C115.978 133.14 105.665 136.275 97.4128 136.275C96.6687 136.275 95.9442 136.249 95.2396 136.203C82.7004 135.333 67.8892 126.449 60.8031 115.53C55.8901 107.97 54.7574 99.9879 57.5036 92.4341L62.4561 94.2386C59.723 101.74 62.4495 108.398 65.222 112.659C71.4916 122.32 84.5576 130.183 95.6018 130.947C102.536 131.428 112.046 129.268 116.031 121.602C119.554 114.819 116.847 108.437 113.712 101.055C111.901 96.7807 110.024 92.3617 109.451 87.7122C109.419 87.4554 109.392 87.1919 109.366 86.9351C109.03 83.4381 109.359 79.9872 110.288 76.7602C112.092 70.405 116.182 64.906 121.951 61.5078C127.272 58.3796 136.367 56.3117 143.763 59.1633C148.241 60.8887 151.35 64.1684 152.746 68.6335Z" fill="#407BFF"/>
<path d="M269.185 191.192L256.107 183.612L256.902 200.001L269.185 191.192Z" fill="#407BFF"/>
<path opacity="0.2" d="M114.681 87.0598C114.8 87.9949 114.978 88.9235 115.215 89.8587C113.542 88.8379 111.566 87.7908 109.367 86.9346C109.031 83.4376 109.36 79.9867 110.289 76.7598C111.895 77.1812 113.608 77.7015 115.313 78.3337C114.543 81.0931 114.306 84.0567 114.681 87.0598Z" fill="black"/>
<path opacity="0.2" d="M190.343 148.294C188.67 147.8 186.819 147.128 184.916 146.2C184.705 142.222 184.89 138.224 185.476 134.312C186.846 135.011 188.512 135.755 190.501 136.473C190.014 140.378 189.967 144.362 190.343 148.294Z" fill="black"/>
<path d="M150.018 182.87C142.928 182.87 136.326 181.449 130.76 178.659C120.054 173.292 110.955 160.761 114.28 147.197C116.132 139.64 121.741 133.18 128.918 130.335L130.86 135.233C125.242 137.46 120.85 142.525 119.397 148.452C116.729 159.337 124.282 169.518 133.121 173.95C140.667 177.732 150.535 178.614 160.904 176.433C178.964 172.633 199.917 159.494 199.537 134.968C199.398 126.038 196.458 116.642 191.034 107.797C185.092 98.1064 174.809 85.3539 159.575 79.6303L161.427 74.6982C178.061 80.9474 189.15 94.6489 195.525 105.043C201.442 114.693 204.652 125.013 204.804 134.886C204.989 146.792 200.571 157.58 192.027 166.083C184.481 173.594 173.812 179.101 161.988 181.588C157.914 182.445 153.893 182.869 150.018 182.87Z" fill="#263238"/>
<g opacity="0.2">
<path d="M204.807 134.886C204.991 146.793 200.572 157.58 192.031 166.082C185.53 172.556 176.719 177.535 166.84 180.38C165.247 180.841 163.627 181.242 161.987 181.585C157.917 182.448 153.893 182.869 150.021 182.869C146.873 182.869 143.823 182.586 140.913 182.033C137.271 181.335 133.853 180.208 130.757 178.661C120.056 173.293 110.954 160.761 114.28 147.201C116.131 139.641 121.742 133.18 128.92 130.335L130.863 135.235C125.239 137.461 120.853 142.525 119.397 148.452C116.73 159.338 124.284 169.52 133.122 173.952C136.803 175.796 141.038 176.948 145.608 177.396C150.409 177.864 155.592 177.554 160.907 176.435C163.982 175.789 167.137 174.867 170.258 173.675C185.478 167.834 199.854 155.321 199.538 134.965C199.4 126.035 196.456 116.643 191.036 107.799C185.089 98.1047 174.809 85.3548 159.576 79.6319L161.427 74.6992C178.062 80.949 189.153 94.6472 195.528 105.039C201.441 114.694 204.655 125.014 204.807 134.886Z" fill="white"/>
</g>
<path opacity="0.2" d="M170.26 173.675C169.601 175.94 168.357 178.219 166.842 180.379C165.248 180.84 163.628 181.242 161.988 181.584C157.918 182.447 153.894 182.868 150.022 182.868C146.874 182.868 143.825 182.585 140.914 182.032C142.956 180.451 144.477 178.891 145.61 177.396C150.411 177.863 155.594 177.554 160.908 176.434C163.984 175.789 167.138 174.867 170.26 173.675Z" fill="black"/>
<path d="M158.091 221.044C157.951 221.051 157.749 220.998 157.587 220.708C157.509 220.567 157.497 220.411 157.553 220.245C157.658 219.931 158.009 219.609 158.39 219.334C157.889 219.457 157.394 219.505 157.182 219.307C157.045 219.178 157.03 218.985 157.137 218.734C157.238 218.499 157.414 218.336 157.661 218.25C158.436 217.983 159.665 218.605 159.721 218.633C159.741 218.643 159.759 218.658 159.773 218.677C159.778 218.686 159.784 218.695 159.788 218.705C159.788 218.705 159.788 218.705 159.788 218.705C159.796 218.724 159.799 218.744 159.798 218.764C159.798 218.778 159.795 218.792 159.79 218.806L159.789 218.807C159.788 218.809 159.788 218.81 159.787 218.812C159.662 219.106 159.119 220.332 158.534 220.831C158.387 220.957 158.237 221.037 158.091 221.044ZM157.836 220.331C157.805 220.424 157.809 220.503 157.849 220.574C157.956 220.766 158.046 220.761 158.076 220.76C158.417 220.744 158.969 219.859 159.345 219.076C158.786 219.384 157.977 219.905 157.836 220.331ZM157.412 218.842C157.379 218.917 157.334 219.051 157.39 219.104C157.571 219.273 158.458 219.064 159.285 218.75C158.896 218.59 158.209 218.362 157.761 218.517C157.686 218.543 157.62 218.58 157.566 218.626C157.5 218.683 157.448 218.754 157.412 218.842Z" fill="#407BFF"/>
<path d="M163.985 214.326C163.668 214.009 159.762 217.891 159.762 217.891C159.762 217.891 159.578 222.613 157.631 225.341C155.684 228.069 158.426 228.284 161.197 225.86C163.967 223.436 166.081 221.587 168.051 219.865C170.019 218.142 167.259 217.61 163.985 214.326Z" fill="#407BFF"/>
<path opacity="0.3" d="M163.985 214.326C163.668 214.009 159.762 217.891 159.762 217.891C159.762 217.891 159.578 222.613 157.631 225.341C155.684 228.069 158.426 228.284 161.197 225.86C163.967 223.436 166.081 221.587 168.051 219.865C170.019 218.142 167.259 217.61 163.985 214.326Z" fill="white"/>
<path opacity="0.2" d="M163.985 214.326C163.668 214.009 159.762 217.891 159.762 217.891C159.762 217.891 159.578 222.613 157.631 225.341C155.684 228.069 158.426 228.284 161.197 225.86C163.967 223.436 166.081 221.587 168.051 219.865C170.019 218.142 167.259 217.61 163.985 214.326Z" fill="black"/>
<path d="M159.946 224.321C159.836 224.237 159.722 224.069 159.802 223.749C159.842 223.594 159.941 223.47 160.098 223.382C160.394 223.214 160.879 223.197 161.355 223.235C160.896 223.007 160.492 222.727 160.472 222.444C160.458 222.26 160.581 222.107 160.835 221.987C161.073 221.876 161.318 221.867 161.561 221.96C162.325 222.255 162.812 223.503 162.834 223.559C162.842 223.58 162.845 223.603 162.842 223.626V223.627C162.84 223.637 162.838 223.647 162.834 223.657V223.658C162.827 223.677 162.815 223.694 162.801 223.708C162.79 223.718 162.778 223.727 162.765 223.734C162.763 223.735 162.762 223.736 162.76 223.737C162.462 223.877 161.206 224.445 160.423 224.445C160.227 224.445 160.061 224.409 159.946 224.321ZM160.249 223.626C160.162 223.675 160.111 223.737 160.091 223.816C160.038 224.028 160.108 224.082 160.131 224.1C160.397 224.305 161.423 223.997 162.246 223.652C161.615 223.524 160.651 223.397 160.249 223.626ZM160.965 222.243C160.889 222.278 160.762 222.35 160.767 222.425C160.785 222.666 161.592 223.076 162.427 223.369C162.248 223.002 161.893 222.393 161.451 222.223C161.376 222.194 161.303 222.18 161.23 222.18C161.142 222.18 161.054 222.201 160.965 222.243Z" fill="#407BFF"/>
<path d="M169.005 223.063C168.988 222.625 163.379 223.033 163.379 223.033C163.379 223.033 159.967 226.442 156.621 227.237C153.276 228.033 155.175 229.942 158.925 229.898C162.675 229.855 165.536 229.822 168.201 229.792C170.865 229.761 169.173 227.604 169.005 223.063Z" fill="#407BFF"/>
<path opacity="0.3" d="M169.005 223.063C168.988 222.625 163.379 223.033 163.379 223.033C163.379 223.033 159.967 226.442 156.621 227.237C153.276 228.033 155.175 229.942 158.925 229.898C162.675 229.855 165.536 229.822 168.201 229.792C170.865 229.761 169.173 227.604 169.005 223.063Z" fill="white"/>
<path d="M141.562 179.186C143.609 183.097 145.673 187.312 147.646 191.524C150.245 197.083 152.688 202.65 154.764 207.631C156.249 211.185 158.184 215.673 159.201 218.385C162.381 218.062 163.869 216.916 165.131 215.972C164.372 211.087 162.337 198.41 158.494 187.253C156.473 181.384 153.953 175.592 150.85 170.876C165.365 134.981 162.554 121.273 162.554 121.273L147.157 120.142C147.157 120.142 144.378 133.592 142.051 147.403C142.051 147.403 142.051 147.403 142.051 147.409C140.838 154.649 139.75 161.986 139.25 167.537L139.248 167.593C138.89 171.592 139.684 175.601 141.562 179.186Z" fill="#263238"/>
<path opacity="0.2" d="M154.915 160.192C157.071 154.081 158.656 148.781 159.801 144.228C158.935 140.614 157.637 137.502 155.795 135.599C155.795 135.599 152.725 145.502 154.915 160.192Z" fill="black"/>
<path opacity="0.2" d="M154.764 207.631C156.249 211.185 158.184 215.673 159.201 218.385C162.381 218.062 163.869 216.916 165.131 215.972C164.372 211.087 162.337 198.41 158.494 187.253C157.168 193.229 155.655 200.788 154.764 207.631Z" fill="black"/>
<path d="M153.363 118.7C153.363 118.7 157.853 152.024 160.427 168.061C163.13 184.903 163.473 211.928 162.797 222.941C163.781 223.489 167.367 224.152 169.305 223.571C169.305 223.571 178.463 189.509 172.379 169.724C177.919 130.755 169.903 121.212 169.903 121.212L153.363 118.7Z" fill="#263238"/>
<path d="M152.632 91.1971C146.492 92.6689 136.169 94.9482 130.255 92.227C123.276 88.2862 129.112 80.9688 132.99 77.3348C135.735 74.6914 138.627 72.4272 141.737 70.3323C142.555 69.7811 143.664 69.9978 144.215 70.8157C144.702 71.5381 144.588 72.4891 143.994 73.0798C141.57 75.639 139.144 78.303 136.996 80.9879C135.593 82.8128 134.029 84.7569 133.433 86.7853C133.341 87.1976 133.469 87.1673 133.396 86.8512C133.359 86.6799 133.193 86.3849 133.083 86.2901C133.077 86.267 133.076 86.2716 133.139 86.2868C135.496 86.865 138.125 86.4593 140.668 86.1702C144.023 85.7026 147.533 85.0012 150.852 84.2413C155.484 83.2376 157.18 89.8476 152.632 91.1971Z" fill="#E8BCBD"/>
<path d="M154.398 83.9361C150.811 83.8478 136.092 86.1225 136.092 86.1225L137.512 94.0484L147.989 93.6342L154.398 83.9361Z" fill="#407BFF"/>
<path opacity="0.7" d="M154.401 83.9391L149.683 91.0767L147.994 93.6346L144.992 93.7735L137.514 94.0515L136.096 86.1216C136.096 86.1216 150.815 83.8489 154.401 83.9391Z" fill="white"/>
<path opacity="0.2" d="M149.681 91.0765L147.993 93.6344L144.99 93.7734C146.116 89.7633 150.009 88.9941 150.009 88.9941C150.091 89.2648 149.625 90.8052 149.681 91.0765Z" fill="black"/>
<path d="M141.07 71.639L141.799 65.9325L144.491 61.9844L146.628 65.5551L145.896 68.0103C145.896 68.0103 146.7 71.2406 144.087 72.995L141.07 71.639Z" fill="#E8BCBD"/>
<path d="M146.855 112.863C146.621 108.032 146.521 104.636 146.505 101.204C146.383 96.1411 146.704 94.5388 146.841 92.4242C147.087 88.6348 150.058 84.3541 153.875 83.9563C154.933 83.8463 156.039 83.7502 157.105 83.6902C160.321 83.5091 163.277 83.7258 166.881 84.0235C167.808 84.0999 168.71 84.2033 169.56 84.3185C172.74 84.7512 174.635 87.8583 173.631 90.9911C170.54 100.633 169.176 106.899 168.729 111.908C169.278 113.442 172.174 121.737 170.989 122.678C169.683 123.715 147.917 124.494 146.231 122.678C144.922 121.269 146.212 115.415 146.855 112.863Z" fill="#407BFF"/>
<path opacity="0.7" d="M173.631 90.9932C173.076 92.7444 172.568 94.3849 172.117 95.9272C172.061 96.1222 172.005 96.3164 171.943 96.5041C171.728 97.2687 171.519 98.005 171.325 98.7143C170.838 100.486 170.435 102.12 170.094 103.628C169.365 106.832 168.948 109.514 168.725 111.912C169.281 113.448 172.179 121.739 170.991 122.684C169.684 123.719 147.917 124.491 146.228 122.684C144.922 121.274 146.215 115.415 146.861 112.864C146.624 108.027 146.52 104.635 146.506 101.202C146.389 96.1426 146.708 94.5376 146.847 92.425C147.09 88.6375 150.058 84.3562 153.88 83.9597C154.937 83.8418 156.042 83.7444 157.105 83.6891C160.322 83.5086 163.283 83.724 166.876 84.0229C167.807 84.0993 168.711 84.2034 169.558 84.3147C172.742 84.7526 174.632 87.8591 173.631 90.9932Z" fill="white"/>
<path opacity="0.2" d="M171.941 96.5042C171.726 97.2688 171.517 98.0051 171.323 98.7144C169.252 97.5955 170.148 94.2875 170.148 94.2875C170.62 93.1614 170.148 92.5502 171.017 92.7096C171.316 94.3777 171.629 95.4683 171.941 96.5042Z" fill="black"/>
<path d="M172.191 115.561L173.515 121.16L172.384 125.802L169.127 123.211L168.949 120.655C168.949 120.655 167.061 117.914 168.889 115.353L172.191 115.561Z" fill="#E8BCBD"/>
<path d="M173.685 85.9813C178.624 89.2926 189.399 96.9294 186.814 103.89C184.42 109.794 176.498 114.704 171.145 117.717C170.277 118.187 169.193 117.864 168.724 116.997C168.311 116.235 168.511 115.307 169.149 114.774C173.033 111.197 177.236 107.679 180.121 103.296C180.456 102.697 180.792 102.073 180.744 101.728C180.723 101.789 180.715 101.738 180.65 101.609C179.852 100.121 178.381 98.7727 176.952 97.4918C174.715 95.5483 172.124 93.6398 169.7 91.9493C165.997 89.1747 169.704 83.6322 173.685 85.9813Z" fill="#E8BCBD"/>
<path d="M169.561 84.3184C174.699 84.9954 182.316 90.4397 185.274 95.053L178.886 100.495C178.886 100.495 173.389 96.9457 168.182 95.3487C168.182 95.3487 166.236 92.1547 166.528 88.4285C166.82 84.703 169.561 84.3184 169.561 84.3184Z" fill="#407BFF"/>
<path opacity="0.7" d="M169.561 84.3184C174.699 84.9954 182.316 90.4397 185.274 95.053L178.886 100.495C178.886 100.495 173.389 96.9457 168.182 95.3487C168.182 95.3487 166.236 92.1547 166.528 88.4285C166.82 84.703 169.561 84.3184 169.561 84.3184Z" fill="white"/>
<path d="M150.57 89.4943C150.57 89.4943 150.707 83.639 157.892 82.796C165.077 81.953 165.964 84.526 165.432 87.942C165.432 87.942 163.657 87.1438 161.927 86.7441C160.197 86.345 155.381 91.8902 155.381 91.8902C155.381 91.8902 153.185 87.6477 152.809 87.2624C152.433 86.8765 150.57 89.4943 150.57 89.4943Z" fill="#407BFF"/>
<path d="M145.111 70.0766C146.495 73.2009 148.361 74.4508 148.098 79.0048C147.835 83.5588 148.841 84.8035 157.389 83.3771C165.938 81.9513 168.279 79.4599 168.178 75.6218C168.078 71.7836 166.247 70.9848 164.559 68.7371C162.871 66.49 162.483 60.9936 155.428 61.4178C148.373 61.8419 142.964 65.2309 145.111 70.0766Z" fill="#263238"/>
<path d="M158.366 74.1836C158.804 77.4145 160.081 83.1342 162.781 84.2748C162.781 84.2748 159.86 85.0203 155.549 91.0857C154.053 88.8288 153.498 86.0339 153.498 86.0339C156.464 83.8738 155.818 83.4753 154.473 81.3883L158.366 74.1836Z" fill="#E8BCBD"/>
<path opacity="0.2" d="M156.78 77.123L154.475 81.3853C154.795 81.8786 155.088 82.3916 155.308 82.9184C156.481 82.2131 157.708 80.0991 157.39 78.7095C157.231 78.0167 156.989 77.3884 156.78 77.123Z" fill="black"/>
<path d="M159.819 68.4614C160.068 73.6265 160.28 75.8018 158.024 78.8443C154.63 83.4214 148.35 82.9228 146.593 78.0152C145.012 73.5982 144.872 65.8936 149.577 63.0486C154.214 60.2451 159.571 63.2962 159.819 68.4614Z" fill="#E8BCBD"/>
<path d="M150.077 72.1719C150.077 72.1719 149.54 74.1482 148.844 75.173C149.443 75.6168 150.356 75.2224 150.356 75.2224L150.077 72.1719Z" fill="#D4827D"/>
<path d="M161.946 72.4011C161.49 73.5312 160.604 74.3254 159.738 74.6764C158.435 75.2039 157.676 73.9513 157.947 72.5347C158.191 71.2591 159.163 69.4474 160.514 69.529C161.844 69.6087 162.467 71.1089 161.946 72.4011Z" fill="#E8BCBD"/>
<path d="M148.195 68.8854C148.255 68.8676 148.32 68.8722 148.377 68.9031C148.494 68.9683 148.531 69.1224 148.461 69.2476C147.754 70.5048 146.614 70.6378 146.564 70.6431C146.428 70.6576 146.313 70.5555 146.309 70.4146C146.304 70.2743 146.41 70.1491 146.546 70.134C146.591 70.1294 147.475 70.0128 148.037 69.0131C148.073 68.9486 148.131 68.9045 148.195 68.8854Z" fill="#263238"/>
<path d="M151.736 68.4528C151.673 68.4574 151.614 68.4844 151.572 68.5338C151.485 68.6359 151.504 68.7933 151.614 68.8861C152.719 69.8134 153.834 69.5355 153.881 69.5229C154.014 69.488 154.085 69.3524 154.04 69.2187C153.995 69.0857 153.851 69.006 153.719 69.0402C153.675 69.0514 152.807 69.2542 151.929 68.5166C151.871 68.4692 151.801 68.4482 151.736 68.4528Z" fill="#263238"/>
<path d="M153.858 70.9408C153.879 70.9855 153.893 71.0343 153.901 71.0863C153.998 71.5104 153.862 71.9187 153.598 71.9958C153.338 72.0788 153.044 71.7969 152.946 71.3728C152.922 71.2569 152.911 71.1482 152.919 71.0442L152.924 71.0402C152.932 70.755 153.056 70.5206 153.249 70.4633C153.486 70.3948 153.733 70.6009 153.858 70.9408Z" fill="#263238"/>
<path d="M153.423 70.501H152.385C152.385 70.501 153.064 71.1451 153.423 70.501Z" fill="#263238"/>
<path d="M154.761 77.301C154.005 77.6533 151.869 78.1051 151.941 78.2836C151.941 78.2836 151.882 78.1281 151.744 77.9431C151.744 77.9411 151.743 77.9385 151.742 77.9365C151.521 77.6138 151.062 77.1732 150.418 77.3115C150.015 77.1502 153.165 74.0858 154.733 76.483C154.973 76.8861 154.93 77.1442 154.761 77.301Z" fill="#263238"/>
<path d="M154.76 77.3013C154.004 77.6537 151.869 78.1055 151.94 78.2839C151.94 78.2839 151.882 78.1285 151.744 77.9434C151.744 77.9415 151.743 77.9388 151.742 77.9369C152.081 77.0972 153.437 76.1495 154.76 77.3013Z" fill="#A02724"/>
<path opacity="0.2" d="M153.822 72.6166C153.086 72.6166 152.733 71.7473 152.729 71.7374C152.711 71.6933 152.733 71.6426 152.778 71.6248C152.823 71.6083 152.873 71.6288 152.89 71.6735C152.905 71.7104 153.263 72.5837 153.996 72.4236C154.041 72.4124 154.089 72.4434 154.099 72.4902C154.109 72.5369 154.08 72.5837 154.033 72.5936C153.96 72.6094 153.889 72.6166 153.822 72.6166Z" fill="black"/>
<path d="M147.993 71.9692L146.881 71.8164C146.881 71.8164 147.514 72.6067 147.993 71.9692Z" fill="#263238"/>
<path d="M147.404 71.8889C147.404 71.8889 148.332 70.7529 149.472 71.6255C149.472 71.6255 148.516 71.3186 147.839 72.124L147.404 71.8889Z" fill="#263238"/>
<path opacity="0.2" d="M148.31 73.0997C148.274 73.0997 148.24 73.078 148.228 73.0431C148.212 72.9983 148.235 72.9476 148.28 72.9311C149.177 72.6038 149.386 71.8892 149.388 71.882C149.402 71.8359 149.449 71.8089 149.495 71.8214C149.541 71.8346 149.568 71.882 149.556 71.9281C149.546 71.961 149.324 72.7349 148.34 73.0944C148.329 73.0984 148.32 73.0997 148.31 73.0997Z" fill="black"/>
<path d="M151.848 63.9688C151.848 63.9688 153.841 71.3546 158.599 72.9734C163.357 74.5921 163.13 79.6407 161.392 80.678C161.392 80.678 165.318 81.3273 166.316 77.613C167.313 73.8987 164.491 70.5577 163.785 65.33C163.078 60.1023 155.473 59.5004 150.933 60.6344C146.393 61.7685 143.247 64.4245 145.11 70.0757C145.11 70.0757 145.834 64.387 151.848 63.9688Z" fill="#263238"/>
<path d="M203.649 145.592C199.83 145.592 196.088 144.948 192.693 144.285C181.336 142.06 172.319 139.322 164.314 135.668C154.418 131.151 146.25 125.218 140.038 118.034C136.593 114.05 134.176 109.54 131.838 105.178C128.511 98.9678 125.367 93.1019 119.573 89.1354C108.507 81.5605 94.7636 80.8118 85.1821 81.5171C80.8231 81.8378 66.3029 83.7048 62.4615 94.2419L57.5117 92.4374C60.8342 83.3229 71.0334 77.2766 84.7949 76.2624C95.2141 75.4938 110.223 76.3506 122.549 84.7875C129.404 89.4805 133.003 96.1952 136.483 102.689C138.786 106.987 140.961 111.047 144.023 114.588C149.736 121.196 157.3 126.675 166.502 130.875C174.122 134.353 182.765 136.972 193.706 139.114C198.487 140.051 204.004 140.947 208.961 139.731C213.254 138.677 216.893 135.474 218.233 131.568C218.999 129.335 219.334 125.945 216.585 122.47L220.717 119.202C224.013 123.368 224.901 128.367 223.215 133.277C221.28 138.921 216.298 143.355 210.216 144.848C208.037 145.382 205.83 145.592 203.649 145.592Z" fill="#407BFF"/>
<path d="M167.811 153.397C166.412 142.016 156.771 131.868 144.887 129.266C139.294 128.042 133.773 128.411 128.919 130.334L130.86 135.233C134.679 133.719 139.26 133.427 143.76 134.413C153.531 136.551 161.446 144.806 162.581 154.04C163.269 159.635 161.685 165.678 158.123 171.053C151.908 180.431 141.188 185.812 133.665 189.044C106.272 200.812 78.1231 202.968 57.4052 195.055L59.3717 190.008L44.5645 193.042L53.4143 205.295L55.4901 199.969C64.2971 203.332 74.3251 205 85.0249 205C101.048 205 118.574 201.261 135.745 193.884C143.888 190.387 155.521 184.515 162.515 173.964C166.77 167.542 168.651 160.238 167.811 153.397Z" fill="#263238"/>
<path opacity="0.2" d="M167.811 153.397C166.412 142.016 156.771 131.868 144.887 129.266C139.294 128.042 133.773 128.411 128.919 130.334L130.86 135.233C134.679 133.719 139.26 133.427 143.76 134.413C153.531 136.551 161.446 144.806 162.581 154.04C163.269 159.635 161.685 165.678 158.123 171.053C151.908 180.431 141.188 185.812 133.665 189.044C106.272 200.812 78.1231 202.968 57.4052 195.055L59.3717 190.008L44.5645 193.042L53.4143 205.295L55.4901 199.969C64.2971 203.332 74.3251 205 85.0249 205C101.048 205 118.574 201.261 135.745 193.884C143.888 190.387 155.521 184.515 162.515 173.964C166.77 167.542 168.651 160.238 167.811 153.397Z" fill="white"/>
<path d="M167.124 54.4537L164.9 37.8525H169.346L167.124 54.4537Z" fill="#407BFF"/>
<path d="M170.199 55.4091L177.515 36.1572L181.475 38.1757L170.199 55.4091Z" fill="#407BFF"/>
<path d="M172.504 57.6574L183.684 46.7871L186.297 50.3835L172.504 57.6574Z" fill="#407BFF"/>
</svg>
