<svg width="24" height="24" viewBox="0 0 24 24" fill="none" xmlns="http://www.w3.org/2000/svg">
<path d="M12 15C12.7956 15 13.5587 14.6839 14.1213 14.1213C14.6839 13.5587 15 12.7956 15 12C15 11.2044 14.6839 10.4413 14.1213 9.87868C13.5587 9.31607 12.7956 9 12 9C11.2044 9 10.4413 9.31607 9.87868 9.87868C9.31607 10.4413 9 11.2044 9 12C9 12.7956 9.31607 13.5587 9.87868 14.1213C10.4413 14.6839 11.2044 15 12 15Z" fill="#C2C2C2"/>
<path fill-rule="evenodd" clip-rule="evenodd" d="M0.549561 12.0001C2.07836 7.1317 6.62636 3.6001 12 3.6001C17.3736 3.6001 21.9216 7.1317 23.4504 12.0001C21.9216 16.8685 17.3736 20.4001 12 20.4001C6.62636 20.4001 2.07836 16.8685 0.549561 12.0001ZM16.8 12.0001C16.8 13.2731 16.2942 14.494 15.3941 15.3942C14.4939 16.2944 13.273 16.8001 12 16.8001C10.7269 16.8001 9.50602 16.2944 8.60585 15.3942C7.70567 14.494 7.19996 13.2731 7.19996 12.0001C7.19996 10.7271 7.70567 9.50616 8.60585 8.60599C9.50602 7.70581 10.7269 7.2001 12 7.2001C13.273 7.2001 14.4939 7.70581 15.3941 8.60599C16.2942 9.50616 16.8 10.7271 16.8 12.0001Z" fill="#C2C2C2"/>
</svg>
